G04*
G04 #@! TF.GenerationSoftware,Altium Limited,Altium Designer,21.7.2 (23)*
G04*
G04 Layer_Color=32768*
%FSLAX25Y25*%
%MOIN*%
G70*
G04*
G04 #@! TF.SameCoordinates,3B60FD94-7D09-417F-B4C1-333D49710502*
G04*
G04*
G04 #@! TF.FilePolarity,Positive*
G04*
G01*
G75*
%ADD11C,0.01000*%
%ADD39C,0.00394*%
%ADD40C,0.00197*%
D11*
Y338000D02*
X213000D01*
Y500D02*
Y338000D01*
X500Y500D02*
X213000D01*
X0Y0D02*
X500Y500D01*
X0Y0D02*
Y338000D01*
D39*
X112500Y175031D02*
Y178969D01*
X110531Y177000D02*
X114469D01*
X78500Y156532D02*
Y160468D01*
X76531Y158500D02*
X80468D01*
X102500Y128032D02*
Y131968D01*
X100531Y130000D02*
X104469D01*
X118532Y138437D02*
X122468D01*
X120500Y136469D02*
Y140405D01*
X78500Y144032D02*
Y147968D01*
X76531Y146000D02*
X80468D01*
X106500Y113531D02*
Y117469D01*
X104532Y115500D02*
X108468D01*
X55032Y158500D02*
X58969D01*
X57000Y156532D02*
Y160468D01*
X111500Y97531D02*
Y101469D01*
X109531Y99500D02*
X113469D01*
X111500Y54015D02*
Y55984D01*
X110516Y55000D02*
X112485D01*
D40*
X104035Y171882D02*
X120965D01*
X104035Y182118D02*
X120965D01*
Y171882D02*
Y182118D01*
X104035Y171882D02*
Y182118D01*
X70232Y163421D02*
X86768D01*
X70232Y153579D02*
X86768D01*
X70232D02*
Y163421D01*
X86768Y153579D02*
Y163421D01*
X97579Y121732D02*
X107421D01*
X97579Y138268D02*
X107421D01*
X97579Y121732D02*
Y138268D01*
X107421Y121732D02*
Y138268D01*
X115579Y130169D02*
Y146705D01*
X125421Y130169D02*
Y146705D01*
X115579Y130169D02*
X125421D01*
X115579Y146705D02*
X125421D01*
X70232Y150921D02*
X86768D01*
X70232Y141079D02*
X86768D01*
X70232D02*
Y150921D01*
X86768Y141079D02*
Y150921D01*
X98232Y120421D02*
X114768D01*
X98232Y110579D02*
X114768D01*
X98232D02*
Y120421D01*
X114768Y110579D02*
Y120421D01*
X11500Y127532D02*
Y131468D01*
X9532Y129500D02*
X13468D01*
X1539Y154303D02*
X23587D01*
X1539Y104697D02*
Y154303D01*
Y104697D02*
X23587D01*
Y154303D01*
X48732Y153579D02*
Y163421D01*
X65268Y153579D02*
Y163421D01*
X48732D02*
X65268D01*
X48732Y153579D02*
X65268D01*
X99500Y162587D02*
X124500D01*
Y148413D02*
Y162587D01*
X99500Y148413D02*
X124500D01*
X99500D02*
Y162587D01*
X108153Y104815D02*
X114847D01*
X108153Y94185D02*
X114847D01*
Y104815D01*
X108153Y94185D02*
Y104815D01*
X109532Y59921D02*
X113469D01*
Y50078D02*
Y59921D01*
X109532Y50078D02*
Y59921D01*
Y50078D02*
X113469D01*
M02*
