G04*
G04 #@! TF.GenerationSoftware,Altium Limited,Altium Designer,21.7.2 (23)*
G04*
G04 Layer_Color=65535*
%FSLAX25Y25*%
%MOIN*%
G70*
G04*
G04 #@! TF.SameCoordinates,3B60FD94-7D09-417F-B4C1-333D49710502*
G04*
G04*
G04 #@! TF.FilePolarity,Positive*
G04*
G01*
G75*
%ADD10C,0.00984*%
%ADD11C,0.01000*%
%ADD12C,0.00787*%
%ADD13C,0.01575*%
G36*
X113063Y274243D02*
X113949D01*
Y274169D01*
X114466D01*
Y274095D01*
X114909D01*
Y274021D01*
X115352D01*
Y273947D01*
X115721D01*
Y273873D01*
X116017D01*
Y273800D01*
X116312D01*
Y273726D01*
X116681D01*
Y273652D01*
X116977D01*
Y273578D01*
X117198D01*
Y273504D01*
X117494D01*
Y273430D01*
X117715D01*
Y273357D01*
X117937D01*
Y273283D01*
X118158D01*
Y273209D01*
X118380D01*
Y273135D01*
X118601D01*
Y273061D01*
X118749D01*
Y272987D01*
X118971D01*
Y272914D01*
X119192D01*
Y272840D01*
X119340D01*
Y272766D01*
X119561D01*
Y272692D01*
X119709D01*
Y272618D01*
X119857D01*
Y272544D01*
X120078D01*
Y272470D01*
X120226D01*
Y272397D01*
X120373D01*
Y272323D01*
X120521D01*
Y272249D01*
X120669D01*
Y272175D01*
X120817D01*
Y272101D01*
X120964D01*
Y272027D01*
X121112D01*
Y271954D01*
X121259D01*
Y271880D01*
X121407D01*
Y271806D01*
X121555D01*
Y271732D01*
X121703D01*
Y271658D01*
X121776D01*
Y271584D01*
X121924D01*
Y271511D01*
X121998D01*
Y271437D01*
X122146D01*
Y271363D01*
X122219D01*
Y271289D01*
X122293D01*
Y271215D01*
X122367D01*
Y271141D01*
X122441D01*
Y270994D01*
X122515D01*
Y270624D01*
X122589D01*
Y270403D01*
X122515D01*
Y270108D01*
X122441D01*
Y269960D01*
X122367D01*
Y269886D01*
X122293D01*
Y269812D01*
X122219D01*
Y269738D01*
X122146D01*
Y269665D01*
X122072D01*
Y269591D01*
X121924D01*
Y269517D01*
X121776D01*
Y269443D01*
X121481D01*
Y269369D01*
X121407D01*
Y269443D01*
X121112D01*
Y269517D01*
X120890D01*
Y269591D01*
X120743D01*
Y269665D01*
X120595D01*
Y269738D01*
X120447D01*
Y269812D01*
X120300D01*
Y269886D01*
X120152D01*
Y269960D01*
X120004D01*
Y270034D01*
X119857D01*
Y270108D01*
X119709D01*
Y270181D01*
X119561D01*
Y270255D01*
X119413D01*
Y270329D01*
X119266D01*
Y270403D01*
X119044D01*
Y270477D01*
X118897D01*
Y270551D01*
X118749D01*
Y270624D01*
X118527D01*
Y270698D01*
X118380D01*
Y270772D01*
X118158D01*
Y270846D01*
X118010D01*
Y270920D01*
X117789D01*
Y270994D01*
X117568D01*
Y271068D01*
X117346D01*
Y271141D01*
X117124D01*
Y271215D01*
X116903D01*
Y271289D01*
X116608D01*
Y271363D01*
X116312D01*
Y271437D01*
X116091D01*
Y271511D01*
X115721D01*
Y271584D01*
X115352D01*
Y271658D01*
X114983D01*
Y271732D01*
X114614D01*
Y271806D01*
X114023D01*
Y271880D01*
X113285D01*
Y271954D01*
X109593D01*
Y271880D01*
X108928D01*
Y271806D01*
X108338D01*
Y271732D01*
X107968D01*
Y271658D01*
X107599D01*
Y271584D01*
X107230D01*
Y271511D01*
X106935D01*
Y271437D01*
X106639D01*
Y271363D01*
X106344D01*
Y271289D01*
X106122D01*
Y271215D01*
X105901D01*
Y271141D01*
X105605D01*
Y271068D01*
X105458D01*
Y270994D01*
X105236D01*
Y270920D01*
X105015D01*
Y270846D01*
X104793D01*
Y270772D01*
X104646D01*
Y270698D01*
X104424D01*
Y270624D01*
X104276D01*
Y270551D01*
X104129D01*
Y270477D01*
X103907D01*
Y270403D01*
X103760D01*
Y270329D01*
X103612D01*
Y270255D01*
X103390D01*
Y270181D01*
X103243D01*
Y270108D01*
X103095D01*
Y270034D01*
X102947D01*
Y269960D01*
X102800D01*
Y269886D01*
X102652D01*
Y269812D01*
X102504D01*
Y269738D01*
X102357D01*
Y269665D01*
X102209D01*
Y269591D01*
X101987D01*
Y269517D01*
X101840D01*
Y269443D01*
X101618D01*
Y269369D01*
X101323D01*
Y269443D01*
X101175D01*
Y269517D01*
X101027D01*
Y269591D01*
X100880D01*
Y269665D01*
X100806D01*
Y269738D01*
X100732D01*
Y269812D01*
X100658D01*
Y269886D01*
X100584D01*
Y270034D01*
X100511D01*
Y270181D01*
X100437D01*
Y270920D01*
X100511D01*
Y271141D01*
X100584D01*
Y271215D01*
X100658D01*
Y271289D01*
X100732D01*
Y271363D01*
X100806D01*
Y271437D01*
X100880D01*
Y271511D01*
X101027D01*
Y271584D01*
X101101D01*
Y271658D01*
X101249D01*
Y271732D01*
X101397D01*
Y271806D01*
X101544D01*
Y271880D01*
X101618D01*
Y271954D01*
X101766D01*
Y272027D01*
X101913D01*
Y272101D01*
X102061D01*
Y272175D01*
X102209D01*
Y272249D01*
X102430D01*
Y272323D01*
X102578D01*
Y272397D01*
X102726D01*
Y272470D01*
X102873D01*
Y272544D01*
X103021D01*
Y272618D01*
X103243D01*
Y272692D01*
X103390D01*
Y272766D01*
X103612D01*
Y272840D01*
X103760D01*
Y272914D01*
X103981D01*
Y272987D01*
X104202D01*
Y273061D01*
X104350D01*
Y273135D01*
X104572D01*
Y273209D01*
X104793D01*
Y273283D01*
X105015D01*
Y273357D01*
X105236D01*
Y273430D01*
X105532D01*
Y273504D01*
X105753D01*
Y273578D01*
X106049D01*
Y273652D01*
X106270D01*
Y273726D01*
X106639D01*
Y273800D01*
X106935D01*
Y273873D01*
X107304D01*
Y273947D01*
X107673D01*
Y274021D01*
X108116D01*
Y274095D01*
X108559D01*
Y274169D01*
X109224D01*
Y274243D01*
X110405D01*
Y274317D01*
X113063D01*
Y274243D01*
D02*
G37*
G36*
X112842Y269443D02*
X113506D01*
Y269369D01*
X114097D01*
Y269295D01*
X114466D01*
Y269221D01*
X114835D01*
Y269148D01*
X115205D01*
Y269074D01*
X115500D01*
Y269000D01*
X115795D01*
Y268926D01*
X116017D01*
Y268852D01*
X116312D01*
Y268778D01*
X116534D01*
Y268705D01*
X116755D01*
Y268631D01*
X116977D01*
Y268557D01*
X117198D01*
Y268483D01*
X117346D01*
Y268409D01*
X117568D01*
Y268335D01*
X117715D01*
Y268262D01*
X117937D01*
Y268188D01*
X118084D01*
Y268114D01*
X118306D01*
Y268040D01*
X118454D01*
Y267966D01*
X118601D01*
Y267892D01*
X118749D01*
Y267819D01*
X118897D01*
Y267745D01*
X119044D01*
Y267671D01*
X119192D01*
Y267597D01*
X119340D01*
Y267523D01*
X119413D01*
Y267449D01*
X119561D01*
Y267375D01*
X119635D01*
Y267302D01*
X119783D01*
Y267228D01*
X119857D01*
Y267154D01*
X119930D01*
Y267080D01*
X120004D01*
Y267006D01*
X120078D01*
Y266933D01*
X120152D01*
Y266785D01*
X120226D01*
Y266711D01*
X120300D01*
Y266490D01*
X120373D01*
Y266194D01*
X120300D01*
Y265899D01*
X120226D01*
Y265751D01*
X120152D01*
Y265603D01*
X120078D01*
Y265529D01*
X120004D01*
Y265456D01*
X119930D01*
Y265382D01*
X119783D01*
Y265308D01*
X119709D01*
Y265234D01*
X119487D01*
Y265160D01*
X118971D01*
Y265234D01*
X118749D01*
Y265308D01*
X118601D01*
Y265382D01*
X118454D01*
Y265456D01*
X118306D01*
Y265529D01*
X118158D01*
Y265603D01*
X117937D01*
Y265677D01*
X117789D01*
Y265751D01*
X117641D01*
Y265825D01*
X117494D01*
Y265899D01*
X117346D01*
Y265973D01*
X117198D01*
Y266046D01*
X116977D01*
Y266120D01*
X116829D01*
Y266194D01*
X116681D01*
Y266268D01*
X116460D01*
Y266342D01*
X116238D01*
Y266416D01*
X116091D01*
Y266490D01*
X115869D01*
Y266563D01*
X115648D01*
Y266637D01*
X115352D01*
Y266711D01*
X115131D01*
Y266785D01*
X114835D01*
Y266859D01*
X114540D01*
Y266933D01*
X114171D01*
Y267006D01*
X113728D01*
Y267080D01*
X113285D01*
Y267154D01*
X112620D01*
Y267228D01*
X110479D01*
Y267154D01*
X109740D01*
Y267080D01*
X109224D01*
Y267006D01*
X108781D01*
Y266933D01*
X108411D01*
Y266859D01*
X108116D01*
Y266785D01*
X107821D01*
Y266711D01*
X107525D01*
Y266637D01*
X107304D01*
Y266563D01*
X107082D01*
Y266490D01*
X106861D01*
Y266416D01*
X106639D01*
Y266342D01*
X106492D01*
Y266268D01*
X106270D01*
Y266194D01*
X106122D01*
Y266120D01*
X105901D01*
Y266046D01*
X105753D01*
Y265973D01*
X105605D01*
Y265899D01*
X105458D01*
Y265825D01*
X105310D01*
Y265751D01*
X105162D01*
Y265677D01*
X104941D01*
Y265603D01*
X104793D01*
Y265529D01*
X104646D01*
Y265456D01*
X104498D01*
Y265382D01*
X104350D01*
Y265308D01*
X104129D01*
Y265234D01*
X103907D01*
Y265160D01*
X103390D01*
Y265234D01*
X103243D01*
Y265308D01*
X103095D01*
Y265382D01*
X103021D01*
Y265456D01*
X102947D01*
Y265529D01*
X102873D01*
Y265603D01*
X102800D01*
Y265751D01*
X102726D01*
Y265973D01*
X102652D01*
Y266637D01*
X102726D01*
Y266859D01*
X102800D01*
Y266933D01*
X102873D01*
Y267080D01*
X102947D01*
Y267154D01*
X103095D01*
Y267228D01*
X103169D01*
Y267302D01*
X103316D01*
Y267375D01*
X103464D01*
Y267449D01*
X103538D01*
Y267523D01*
X103686D01*
Y267597D01*
X103833D01*
Y267671D01*
X103981D01*
Y267745D01*
X104129D01*
Y267819D01*
X104276D01*
Y267892D01*
X104424D01*
Y267966D01*
X104646D01*
Y268040D01*
X104793D01*
Y268114D01*
X104941D01*
Y268188D01*
X105089D01*
Y268262D01*
X105310D01*
Y268335D01*
X105458D01*
Y268409D01*
X105605D01*
Y268483D01*
X105827D01*
Y268557D01*
X105975D01*
Y268631D01*
X106196D01*
Y268705D01*
X106418D01*
Y268778D01*
X106639D01*
Y268852D01*
X106935D01*
Y268926D01*
X107156D01*
Y269000D01*
X107451D01*
Y269074D01*
X107747D01*
Y269148D01*
X108116D01*
Y269221D01*
X108485D01*
Y269295D01*
X108854D01*
Y269369D01*
X109445D01*
Y269443D01*
X110110D01*
Y269517D01*
X112842D01*
Y269443D01*
D02*
G37*
G36*
X112546Y264644D02*
X113285D01*
Y264570D01*
X113728D01*
Y264496D01*
X114097D01*
Y264422D01*
X114392D01*
Y264348D01*
X114688D01*
Y264274D01*
X114909D01*
Y264200D01*
X115131D01*
Y264127D01*
X115352D01*
Y264053D01*
X115500D01*
Y263979D01*
X115721D01*
Y263905D01*
X115869D01*
Y263831D01*
X116091D01*
Y263757D01*
X116238D01*
Y263684D01*
X116386D01*
Y263610D01*
X116534D01*
Y263536D01*
X116681D01*
Y263462D01*
X116829D01*
Y263388D01*
X116977D01*
Y263314D01*
X117124D01*
Y263241D01*
X117272D01*
Y263167D01*
X117346D01*
Y263093D01*
X117494D01*
Y263019D01*
X117641D01*
Y262945D01*
X117715D01*
Y262871D01*
X117789D01*
Y262797D01*
X117863D01*
Y262724D01*
X117937D01*
Y262650D01*
X118010D01*
Y262502D01*
X118084D01*
Y262281D01*
X118158D01*
Y261838D01*
X118084D01*
Y261542D01*
X118010D01*
Y261468D01*
X117937D01*
Y261395D01*
X117863D01*
Y261247D01*
X117789D01*
Y261173D01*
X117715D01*
Y261099D01*
X117568D01*
Y261025D01*
X117420D01*
Y260951D01*
X117272D01*
Y260878D01*
X116829D01*
Y260951D01*
X116608D01*
Y261025D01*
X116460D01*
Y261099D01*
X116312D01*
Y261173D01*
X116165D01*
Y261247D01*
X116017D01*
Y261321D01*
X115869D01*
Y261395D01*
X115648D01*
Y261468D01*
X115500D01*
Y261542D01*
X115352D01*
Y261616D01*
X115205D01*
Y261690D01*
X114983D01*
Y261764D01*
X114835D01*
Y261838D01*
X114614D01*
Y261911D01*
X114392D01*
Y261985D01*
X114171D01*
Y262059D01*
X113875D01*
Y262133D01*
X113654D01*
Y262207D01*
X113285D01*
Y262281D01*
X112916D01*
Y262354D01*
X112399D01*
Y262428D01*
X110553D01*
Y262354D01*
X110036D01*
Y262281D01*
X109667D01*
Y262207D01*
X109298D01*
Y262133D01*
X109076D01*
Y262059D01*
X108781D01*
Y261985D01*
X108559D01*
Y261911D01*
X108338D01*
Y261838D01*
X108116D01*
Y261764D01*
X107968D01*
Y261690D01*
X107821D01*
Y261616D01*
X107599D01*
Y261542D01*
X107451D01*
Y261468D01*
X107304D01*
Y261395D01*
X107156D01*
Y261321D01*
X107008D01*
Y261247D01*
X106861D01*
Y261173D01*
X106713D01*
Y261099D01*
X106492D01*
Y261025D01*
X106344D01*
Y260951D01*
X106049D01*
Y260878D01*
X105605D01*
Y260951D01*
X105458D01*
Y261025D01*
X105384D01*
Y261099D01*
X105236D01*
Y261173D01*
X105162D01*
Y261247D01*
X105089D01*
Y261395D01*
X105015D01*
Y261468D01*
X104941D01*
Y261616D01*
X104867D01*
Y262428D01*
X104941D01*
Y262576D01*
X105015D01*
Y262650D01*
X105089D01*
Y262797D01*
X105162D01*
Y262871D01*
X105310D01*
Y262945D01*
X105384D01*
Y263019D01*
X105458D01*
Y263093D01*
X105605D01*
Y263167D01*
X105679D01*
Y263241D01*
X105827D01*
Y263314D01*
X105975D01*
Y263388D01*
X106122D01*
Y263462D01*
X106270D01*
Y263536D01*
X106418D01*
Y263610D01*
X106565D01*
Y263684D01*
X106713D01*
Y263757D01*
X106861D01*
Y263831D01*
X107082D01*
Y263905D01*
X107230D01*
Y263979D01*
X107451D01*
Y264053D01*
X107673D01*
Y264127D01*
X107821D01*
Y264200D01*
X108116D01*
Y264274D01*
X108338D01*
Y264348D01*
X108633D01*
Y264422D01*
X108928D01*
Y264496D01*
X109298D01*
Y264570D01*
X109740D01*
Y264644D01*
X110479D01*
Y264717D01*
X112546D01*
Y264644D01*
D02*
G37*
G36*
X112325Y260139D02*
X112842D01*
Y260065D01*
X113137D01*
Y259992D01*
X113433D01*
Y259918D01*
X113654D01*
Y259844D01*
X113875D01*
Y259770D01*
X114097D01*
Y259696D01*
X114245D01*
Y259622D01*
X114392D01*
Y259548D01*
X114540D01*
Y259475D01*
X114688D01*
Y259401D01*
X114835D01*
Y259327D01*
X114983D01*
Y259253D01*
X115057D01*
Y259179D01*
X115205D01*
Y259105D01*
X115278D01*
Y259032D01*
X115426D01*
Y258958D01*
X115500D01*
Y258884D01*
X115574D01*
Y258810D01*
X115648D01*
Y258736D01*
X115721D01*
Y258662D01*
X115795D01*
Y258589D01*
X115869D01*
Y258441D01*
X115943D01*
Y258293D01*
X116017D01*
Y257555D01*
X115943D01*
Y257407D01*
X115869D01*
Y257333D01*
X115795D01*
Y257259D01*
X115721D01*
Y257186D01*
X115648D01*
Y257112D01*
X115574D01*
Y257038D01*
X115500D01*
Y256964D01*
X115352D01*
Y256890D01*
X115131D01*
Y256817D01*
X114614D01*
Y256890D01*
X114466D01*
Y256964D01*
X114319D01*
Y257038D01*
X114171D01*
Y257112D01*
X114023D01*
Y257186D01*
X113875D01*
Y257259D01*
X113802D01*
Y257333D01*
X113654D01*
Y257407D01*
X113506D01*
Y257481D01*
X113359D01*
Y257555D01*
X113211D01*
Y257629D01*
X112989D01*
Y257702D01*
X112768D01*
Y257776D01*
X112473D01*
Y257850D01*
X110479D01*
Y257776D01*
X110184D01*
Y257702D01*
X109888D01*
Y257629D01*
X109740D01*
Y257555D01*
X109593D01*
Y257481D01*
X109445D01*
Y257407D01*
X109298D01*
Y257333D01*
X109150D01*
Y257259D01*
X109076D01*
Y257186D01*
X108928D01*
Y257112D01*
X108781D01*
Y257038D01*
X108633D01*
Y256964D01*
X108485D01*
Y256890D01*
X108338D01*
Y256817D01*
X107821D01*
Y256890D01*
X107599D01*
Y256964D01*
X107451D01*
Y257038D01*
X107378D01*
Y257112D01*
X107304D01*
Y257186D01*
X107230D01*
Y257259D01*
X107156D01*
Y257333D01*
X107082D01*
Y257481D01*
X107008D01*
Y257629D01*
X106935D01*
Y258293D01*
X107008D01*
Y258441D01*
X107082D01*
Y258589D01*
X107156D01*
Y258662D01*
X107230D01*
Y258736D01*
X107304D01*
Y258810D01*
X107378D01*
Y258884D01*
X107451D01*
Y258958D01*
X107599D01*
Y259032D01*
X107673D01*
Y259105D01*
X107821D01*
Y259179D01*
X107895D01*
Y259253D01*
X108042D01*
Y259327D01*
X108190D01*
Y259401D01*
X108264D01*
Y259475D01*
X108411D01*
Y259548D01*
X108559D01*
Y259622D01*
X108781D01*
Y259696D01*
X108928D01*
Y259770D01*
X109150D01*
Y259844D01*
X109298D01*
Y259918D01*
X109593D01*
Y259992D01*
X109814D01*
Y260065D01*
X110184D01*
Y260139D01*
X110700D01*
Y260213D01*
X112325D01*
Y260139D01*
D02*
G37*
G36*
X111698Y70054D02*
X111815D01*
Y69820D01*
X111931D01*
Y69703D01*
X112048D01*
Y69470D01*
X112165D01*
Y69353D01*
X112282D01*
Y69120D01*
X112398D01*
Y68886D01*
X112515D01*
Y68769D01*
X112632D01*
Y68652D01*
Y68536D01*
X112749D01*
Y68419D01*
X112865D01*
Y68185D01*
X112982D01*
Y67952D01*
X113099D01*
Y67835D01*
X113216D01*
Y67602D01*
X113332D01*
Y67485D01*
X113449D01*
Y67251D01*
X113566D01*
Y67135D01*
X113683D01*
Y66901D01*
X113800D01*
Y66668D01*
X113916D01*
Y66434D01*
X114033D01*
Y66317D01*
X114150D01*
Y66084D01*
X114267D01*
Y65967D01*
X114383D01*
Y65733D01*
X114500D01*
Y65500D01*
X114617D01*
Y65383D01*
X114734D01*
Y65267D01*
X114850D01*
Y65033D01*
X114967D01*
Y64799D01*
X115084D01*
Y64566D01*
X115200D01*
Y64449D01*
X115317D01*
Y64216D01*
X115434D01*
Y64099D01*
X115551D01*
Y63865D01*
X115668D01*
Y63749D01*
X115784D01*
Y63515D01*
X115901D01*
Y63282D01*
X116018D01*
Y63165D01*
X116135D01*
Y62931D01*
X116251D01*
Y62815D01*
X116368D01*
Y62581D01*
X116485D01*
Y62348D01*
X116602D01*
Y62231D01*
X116718D01*
Y61997D01*
X116835D01*
Y61880D01*
X116952D01*
Y61647D01*
X117069D01*
Y61414D01*
X117185D01*
Y61297D01*
X117302D01*
Y61063D01*
X117419D01*
Y60946D01*
X117536D01*
Y60713D01*
X117652D01*
Y60479D01*
X117769D01*
Y60363D01*
X105393D01*
Y60479D01*
X105510D01*
Y60713D01*
X105626D01*
Y60946D01*
X105743D01*
Y61063D01*
X105860D01*
Y61297D01*
X105977D01*
Y61530D01*
X106093D01*
Y61647D01*
X106210D01*
Y61880D01*
X106327D01*
Y61997D01*
X106444D01*
Y62231D01*
X106560D01*
Y62348D01*
X106677D01*
Y62581D01*
X106794D01*
Y62698D01*
X106911D01*
Y62931D01*
X107027D01*
Y63165D01*
X107144D01*
Y63282D01*
X107261D01*
Y63515D01*
X107378D01*
Y63749D01*
X107494D01*
Y63865D01*
X107611D01*
Y64099D01*
X107728D01*
Y64216D01*
X107845D01*
Y64449D01*
X107961D01*
Y64566D01*
X108078D01*
Y64799D01*
X108195D01*
Y65033D01*
X108312D01*
Y65267D01*
X108429D01*
Y65383D01*
X108545D01*
Y65617D01*
X108662D01*
Y65733D01*
X108779D01*
Y65967D01*
X108896D01*
Y66201D01*
X109012D01*
Y66317D01*
X109129D01*
Y66551D01*
X109246D01*
Y66668D01*
X109363D01*
Y66901D01*
X109479D01*
Y67135D01*
X109596D01*
Y67251D01*
X109713D01*
Y67485D01*
X109830D01*
Y67602D01*
X109946D01*
Y67835D01*
X110063D01*
Y67952D01*
X110180D01*
Y68185D01*
X110297D01*
Y68419D01*
X110414D01*
Y68536D01*
X110530D01*
Y68769D01*
X110647D01*
Y68886D01*
X110764D01*
Y69120D01*
X110880D01*
Y69236D01*
X110997D01*
Y69470D01*
X111114D01*
Y69703D01*
X111231D01*
Y69820D01*
X111347D01*
Y70054D01*
X111464D01*
Y70170D01*
X111698D01*
Y70054D01*
D02*
G37*
G36*
X131488Y68791D02*
X132071D01*
Y68674D01*
X132422D01*
Y68558D01*
X132772D01*
Y68441D01*
X133005D01*
Y68324D01*
X133239D01*
Y68207D01*
X133356D01*
Y68091D01*
X133589D01*
Y67974D01*
X133706D01*
Y67857D01*
X133940D01*
Y67740D01*
X134056D01*
Y67624D01*
X134173D01*
Y67507D01*
X134290D01*
Y67390D01*
X134407D01*
Y67273D01*
X134523D01*
Y67157D01*
X134640D01*
Y67040D01*
X134757D01*
Y66923D01*
X134874D01*
Y66690D01*
X134990D01*
Y66573D01*
X135107D01*
Y66456D01*
X135224D01*
Y66223D01*
X135341D01*
Y65989D01*
X135457D01*
Y65755D01*
X135574D01*
Y65405D01*
X135691D01*
Y64938D01*
X135808D01*
Y64354D01*
X135924D01*
Y62836D01*
X135808D01*
Y62253D01*
X135691D01*
Y61902D01*
X135574D01*
Y61552D01*
X135457D01*
Y61319D01*
X135341D01*
Y61085D01*
X135224D01*
Y60968D01*
X135107D01*
Y60735D01*
X134990D01*
Y60618D01*
X134874D01*
Y60385D01*
X134757D01*
Y60268D01*
X134640D01*
Y60151D01*
X134523D01*
Y60034D01*
X134407D01*
Y59918D01*
X134290D01*
Y59801D01*
X134173D01*
Y59684D01*
X134056D01*
Y59567D01*
X133940D01*
Y59451D01*
X133706D01*
Y59334D01*
X133589D01*
Y59217D01*
X133356D01*
Y59100D01*
X133239D01*
Y58983D01*
X133005D01*
Y58867D01*
X132772D01*
Y58750D01*
X132422D01*
Y58633D01*
X132071D01*
Y58517D01*
X131488D01*
Y58400D01*
X129970D01*
Y58517D01*
X129269D01*
Y58633D01*
X128919D01*
Y58750D01*
X128569D01*
Y58867D01*
X128335D01*
Y58983D01*
X128102D01*
Y59100D01*
X127985D01*
Y59217D01*
X127751D01*
Y59334D01*
X127518D01*
Y59451D01*
X127401D01*
Y59567D01*
X127284D01*
Y59684D01*
X127168D01*
Y59801D01*
X127051D01*
Y59918D01*
X126934D01*
Y60034D01*
X126817D01*
Y60151D01*
X126700D01*
Y60268D01*
X126584D01*
Y60385D01*
X126467D01*
Y60618D01*
X126350D01*
Y60735D01*
X126233D01*
Y60968D01*
X126117D01*
Y61085D01*
X126000D01*
Y61319D01*
X125883D01*
Y61552D01*
X125767D01*
Y61902D01*
X125650D01*
Y62370D01*
X125533D01*
Y62836D01*
X125416D01*
Y64354D01*
X125533D01*
Y65055D01*
X125650D01*
Y65405D01*
X125767D01*
Y65755D01*
X125883D01*
Y65989D01*
X126000D01*
Y66223D01*
X126117D01*
Y66339D01*
X126233D01*
Y66573D01*
X126350D01*
Y66690D01*
X126467D01*
Y66923D01*
X126584D01*
Y67040D01*
X126700D01*
Y67157D01*
X126817D01*
Y67273D01*
X126934D01*
Y67390D01*
X127051D01*
Y67507D01*
X127168D01*
Y67624D01*
X127284D01*
Y67740D01*
X127401D01*
Y67857D01*
X127635D01*
Y67974D01*
X127751D01*
Y68091D01*
X127985D01*
Y68207D01*
X128102D01*
Y68324D01*
X128335D01*
Y68441D01*
X128569D01*
Y68558D01*
X128919D01*
Y68674D01*
X129269D01*
Y68791D01*
X129853D01*
Y68908D01*
X131488D01*
Y68791D01*
D02*
G37*
G36*
X115025Y68441D02*
X115258D01*
Y68324D01*
X115492D01*
Y68207D01*
X115725D01*
Y68091D01*
X115959D01*
Y67974D01*
X116192D01*
Y67857D01*
X116426D01*
Y67740D01*
X116659D01*
Y67624D01*
X117010D01*
Y67507D01*
X117126D01*
Y67390D01*
X117360D01*
Y67273D01*
X117593D01*
Y67157D01*
X117944D01*
Y67040D01*
X118060D01*
Y66923D01*
X118411D01*
Y66806D01*
X118644D01*
Y66690D01*
X118878D01*
Y66573D01*
X119111D01*
Y66456D01*
X119345D01*
Y66339D01*
X119578D01*
Y66223D01*
X119812D01*
Y66106D01*
X120045D01*
Y65989D01*
X120279D01*
Y65872D01*
X120512D01*
Y65755D01*
X120746D01*
Y65639D01*
X121096D01*
Y65522D01*
X121330D01*
Y65405D01*
X121446D01*
Y65289D01*
X121797D01*
Y65172D01*
X121914D01*
Y65055D01*
X122264D01*
Y64938D01*
X122497D01*
Y64821D01*
X122731D01*
Y64705D01*
X122964D01*
Y64588D01*
X123198D01*
Y64471D01*
X123315D01*
Y62836D01*
X123431D01*
Y62136D01*
X123548D01*
Y61669D01*
X123665D01*
Y61319D01*
X123782D01*
Y60852D01*
X123898D01*
Y60618D01*
X124015D01*
Y60385D01*
X124132D01*
Y60151D01*
X124249D01*
Y60034D01*
X124365D01*
Y59801D01*
X124482D01*
Y59684D01*
X124599D01*
Y59451D01*
X124716D01*
Y59334D01*
X124832D01*
Y59100D01*
X124949D01*
Y58983D01*
X125066D01*
Y58867D01*
X125183D01*
Y58750D01*
X125300D01*
Y58633D01*
X125416D01*
Y58517D01*
X125533D01*
Y58400D01*
X125650D01*
Y58283D01*
X125767D01*
Y58166D01*
X125883D01*
Y58049D01*
X126000D01*
Y57933D01*
X126117D01*
Y57816D01*
X126350D01*
Y57699D01*
X126467D01*
Y57582D01*
X126700D01*
Y57466D01*
X126817D01*
Y57349D01*
X127051D01*
Y57232D01*
X127284D01*
Y57115D01*
X127401D01*
Y56999D01*
X127751D01*
Y56882D01*
X127985D01*
Y56765D01*
X128335D01*
Y56648D01*
X128685D01*
Y56532D01*
X129153D01*
Y56298D01*
X129269D01*
Y55714D01*
X129386D01*
Y55247D01*
X129503D01*
Y54780D01*
X129620D01*
Y54196D01*
X129736D01*
Y53729D01*
X129853D01*
Y53146D01*
X129970D01*
Y52562D01*
X130087D01*
Y52095D01*
X130203D01*
Y51511D01*
X130320D01*
Y51044D01*
X130437D01*
Y50577D01*
X130554D01*
Y49993D01*
X130670D01*
Y49409D01*
X130787D01*
Y48942D01*
X130904D01*
Y48475D01*
X131021D01*
Y47892D01*
X131137D01*
Y47425D01*
X130904D01*
Y47541D01*
X130320D01*
Y47658D01*
X129620D01*
Y47775D01*
X129036D01*
Y47892D01*
X128335D01*
Y48008D01*
X127635D01*
Y48125D01*
X127051D01*
Y48242D01*
X126467D01*
Y48359D01*
X125767D01*
Y48475D01*
X125066D01*
Y48592D01*
X124365D01*
Y48709D01*
X123782D01*
Y48825D01*
X123081D01*
Y48942D01*
X122497D01*
Y49059D01*
X122264D01*
Y49176D01*
X122147D01*
Y49760D01*
X122030D01*
Y50577D01*
X121914D01*
Y51278D01*
X121797D01*
Y51861D01*
X121680D01*
Y52562D01*
X121563D01*
Y53379D01*
X121446D01*
Y54080D01*
X121330D01*
Y54780D01*
X121213D01*
Y55364D01*
X121096D01*
Y56065D01*
X120979D01*
Y56882D01*
X120863D01*
Y57582D01*
X120746D01*
Y58283D01*
X120629D01*
Y58867D01*
X120512D01*
Y59567D01*
X120396D01*
Y59801D01*
X120279D01*
Y59918D01*
X120162D01*
Y60151D01*
X120045D01*
Y60385D01*
X119929D01*
Y60501D01*
X119812D01*
Y60735D01*
X119695D01*
Y60968D01*
X119578D01*
Y61085D01*
X119462D01*
Y61319D01*
X119345D01*
Y61435D01*
X119228D01*
Y61669D01*
X119111D01*
Y61786D01*
X118994D01*
Y62019D01*
X118878D01*
Y62253D01*
X118761D01*
Y62486D01*
X118644D01*
Y62603D01*
X118527D01*
Y62720D01*
X118411D01*
Y62953D01*
X118294D01*
Y63187D01*
X118177D01*
Y63304D01*
X118060D01*
Y63537D01*
X117944D01*
Y63771D01*
X117827D01*
Y63887D01*
X117710D01*
Y64121D01*
X117593D01*
Y64238D01*
X117477D01*
Y64471D01*
X117360D01*
Y64588D01*
X117243D01*
Y64821D01*
X117126D01*
Y65055D01*
X117010D01*
Y65172D01*
X116893D01*
Y65405D01*
X116776D01*
Y65639D01*
X116659D01*
Y65755D01*
X116543D01*
Y65989D01*
X116426D01*
Y66106D01*
X116309D01*
Y66339D01*
X116192D01*
Y66573D01*
X116076D01*
Y66690D01*
X115959D01*
Y66923D01*
X115842D01*
Y67040D01*
X115725D01*
Y67273D01*
X115609D01*
Y67390D01*
X115492D01*
Y67624D01*
X115375D01*
Y67857D01*
X115258D01*
Y67974D01*
X115141D01*
Y68207D01*
X115025D01*
Y68324D01*
X114908D01*
Y68558D01*
X115025D01*
Y68441D01*
D02*
G37*
G36*
X99379Y71360D02*
X99729D01*
Y71243D01*
X99963D01*
Y71126D01*
X100080D01*
Y71010D01*
X100196D01*
Y70893D01*
X100313D01*
Y70776D01*
X100430D01*
Y70659D01*
X100547D01*
Y70543D01*
X100663D01*
Y70309D01*
X100780D01*
Y69959D01*
X100897D01*
Y69025D01*
X100780D01*
Y68674D01*
X100663D01*
Y68441D01*
X100547D01*
Y68324D01*
X100430D01*
Y68207D01*
X100313D01*
Y68091D01*
X100196D01*
Y67974D01*
X100080D01*
Y67857D01*
X99963D01*
Y64121D01*
X100080D01*
Y64238D01*
X100313D01*
Y64354D01*
X100547D01*
Y64471D01*
X100780D01*
Y64588D01*
X101014D01*
Y64705D01*
X101247D01*
Y64821D01*
X101481D01*
Y64938D01*
X101714D01*
Y65055D01*
X101948D01*
Y65172D01*
X102181D01*
Y65289D01*
X102415D01*
Y65405D01*
X102765D01*
Y65522D01*
X102882D01*
Y65639D01*
X103232D01*
Y65755D01*
X103466D01*
Y65872D01*
X103699D01*
Y65989D01*
X103933D01*
Y66106D01*
X104166D01*
Y66223D01*
X104400D01*
Y66339D01*
X104633D01*
Y66456D01*
X104867D01*
Y66573D01*
X105100D01*
Y66690D01*
X105334D01*
Y66806D01*
X105567D01*
Y66923D01*
X105918D01*
Y67040D01*
X106151D01*
Y67157D01*
X106268D01*
Y67273D01*
X106618D01*
Y67390D01*
X106852D01*
Y67507D01*
X107085D01*
Y67624D01*
X107319D01*
Y67740D01*
X107552D01*
Y67857D01*
X107786D01*
Y67974D01*
X108019D01*
Y68091D01*
X108253D01*
Y68207D01*
X108486D01*
Y68324D01*
X108720D01*
Y68441D01*
X108953D01*
Y68558D01*
X109070D01*
Y68324D01*
X108953D01*
Y68207D01*
X108836D01*
Y67974D01*
X108720D01*
Y67740D01*
X108603D01*
Y67624D01*
X108486D01*
Y67390D01*
X108370D01*
Y67273D01*
X108253D01*
Y67040D01*
X108136D01*
Y66923D01*
X108019D01*
Y66690D01*
X107903D01*
Y66456D01*
X107786D01*
Y66339D01*
X107669D01*
Y66106D01*
X107552D01*
Y65989D01*
X107435D01*
Y65755D01*
X107319D01*
Y65522D01*
X107202D01*
Y65405D01*
X107085D01*
Y65172D01*
X106968D01*
Y65055D01*
X106852D01*
Y64821D01*
X106735D01*
Y64588D01*
X106618D01*
Y64471D01*
X106501D01*
Y64238D01*
X106385D01*
Y64121D01*
X106268D01*
Y63887D01*
X106151D01*
Y63654D01*
X106034D01*
Y63537D01*
X105918D01*
Y63304D01*
X105801D01*
Y63187D01*
X105684D01*
Y62953D01*
X105567D01*
Y62836D01*
X105450D01*
Y62603D01*
X105334D01*
Y62370D01*
X105217D01*
Y62253D01*
X105100D01*
Y62019D01*
X104983D01*
Y61786D01*
X104867D01*
Y61669D01*
X104750D01*
Y61435D01*
X104633D01*
Y61319D01*
X104516D01*
Y61085D01*
X104400D01*
Y60852D01*
X104283D01*
Y60735D01*
X104166D01*
Y60501D01*
X104050D01*
Y60385D01*
X103933D01*
Y60151D01*
X103816D01*
Y59918D01*
X103699D01*
Y59801D01*
X103582D01*
Y59567D01*
X103466D01*
Y58867D01*
X103349D01*
Y58283D01*
X103232D01*
Y57582D01*
X103115D01*
Y56882D01*
X102999D01*
Y56065D01*
X102882D01*
Y55364D01*
X102765D01*
Y54663D01*
X102648D01*
Y53963D01*
X102532D01*
Y53379D01*
X102415D01*
Y52679D01*
X102298D01*
Y51978D01*
X102181D01*
Y51161D01*
X102065D01*
Y50460D01*
X101948D01*
Y49760D01*
X101831D01*
Y49176D01*
X101714D01*
Y48942D01*
X101481D01*
Y48825D01*
X100897D01*
Y48709D01*
X100196D01*
Y48592D01*
X99496D01*
Y48475D01*
X98795D01*
Y48359D01*
X97978D01*
Y48242D01*
X97394D01*
Y48125D01*
X96694D01*
Y48008D01*
X95993D01*
Y47892D01*
X95293D01*
Y47775D01*
X94592D01*
Y47658D01*
X93775D01*
Y47541D01*
X93074D01*
Y47425D01*
X92841D01*
Y47892D01*
X92957D01*
Y48475D01*
X93074D01*
Y48942D01*
X93191D01*
Y49526D01*
X93308D01*
Y49993D01*
X93424D01*
Y50460D01*
X93541D01*
Y51044D01*
X93658D01*
Y51628D01*
X93775D01*
Y52095D01*
X93892D01*
Y52679D01*
X94008D01*
Y53146D01*
X94125D01*
Y53729D01*
X94242D01*
Y54196D01*
X94358D01*
Y54780D01*
X94475D01*
Y55247D01*
X94592D01*
Y55714D01*
X94709D01*
Y56298D01*
X94826D01*
Y56882D01*
X94942D01*
Y57349D01*
X95059D01*
Y57816D01*
X95176D01*
Y58400D01*
X95293D01*
Y58867D01*
X95409D01*
Y59451D01*
X95526D01*
Y59918D01*
X95643D01*
Y60501D01*
X95760D01*
Y60968D01*
X95876D01*
Y61552D01*
X95993D01*
Y62136D01*
X96110D01*
Y62253D01*
X96227D01*
Y62370D01*
X96460D01*
Y62486D01*
X96694D01*
Y62603D01*
X96927D01*
Y62720D01*
X97161D01*
Y62836D01*
X97511D01*
Y62953D01*
X97745D01*
Y63070D01*
X97861D01*
Y67857D01*
X97745D01*
Y67974D01*
X97511D01*
Y68207D01*
X97394D01*
Y68324D01*
X97277D01*
Y68441D01*
X97161D01*
Y68674D01*
X97044D01*
Y69025D01*
X96927D01*
Y69959D01*
X97044D01*
Y70309D01*
X97161D01*
Y70543D01*
X97277D01*
Y70659D01*
X97394D01*
Y70776D01*
X97511D01*
Y71010D01*
X97745D01*
Y71126D01*
X97861D01*
Y71243D01*
X98095D01*
Y71360D01*
X98445D01*
Y71477D01*
X99379D01*
Y71360D01*
D02*
G37*
G36*
X119462Y49760D02*
X119345D01*
Y49526D01*
X119228D01*
Y49293D01*
X119111D01*
Y49059D01*
X118994D01*
Y48825D01*
X118878D01*
Y48592D01*
X118761D01*
Y48359D01*
X118644D01*
Y48242D01*
Y48125D01*
X118527D01*
Y47892D01*
X118411D01*
Y47658D01*
X118294D01*
Y47425D01*
X118177D01*
Y47191D01*
X118060D01*
Y46957D01*
X117944D01*
Y46724D01*
X117827D01*
Y46490D01*
X117710D01*
Y46257D01*
X117593D01*
Y46140D01*
X106385D01*
Y46257D01*
X106268D01*
Y46490D01*
X106151D01*
Y46724D01*
X106034D01*
Y46957D01*
X105918D01*
Y47191D01*
X105801D01*
Y47425D01*
X105684D01*
Y47658D01*
X105567D01*
Y47892D01*
X105450D01*
Y48125D01*
X105334D01*
Y48359D01*
X105217D01*
Y48592D01*
X105100D01*
Y48825D01*
X104983D01*
Y49059D01*
X104867D01*
Y49293D01*
X104750D01*
Y49526D01*
X104633D01*
Y49760D01*
X104516D01*
Y49876D01*
X119462D01*
Y49760D01*
D02*
G37*
G36*
X122380Y46841D02*
X122964D01*
Y46724D01*
X123665D01*
Y46607D01*
X124249D01*
Y46490D01*
X124949D01*
Y46374D01*
X125533D01*
Y46257D01*
X126233D01*
Y46140D01*
X126934D01*
Y46023D01*
X127635D01*
Y45907D01*
X128335D01*
Y45790D01*
X128919D01*
Y45673D01*
X129503D01*
Y45556D01*
X130203D01*
Y45440D01*
X130904D01*
Y45323D01*
X131021D01*
Y44973D01*
X130904D01*
Y44739D01*
X130787D01*
Y44389D01*
X130670D01*
Y44039D01*
X130554D01*
Y43805D01*
X130437D01*
Y43571D01*
X130320D01*
Y43221D01*
X130203D01*
Y42988D01*
X130087D01*
Y42637D01*
X129970D01*
Y42404D01*
X129853D01*
Y42170D01*
X129736D01*
Y41820D01*
X129620D01*
Y41470D01*
X129503D01*
Y41236D01*
X129386D01*
Y40886D01*
X129269D01*
Y40652D01*
X129153D01*
Y40302D01*
X129036D01*
Y40069D01*
X128919D01*
Y39835D01*
X128802D01*
Y39485D01*
X128685D01*
Y39135D01*
X128569D01*
Y38901D01*
X128452D01*
Y38551D01*
X128335D01*
Y38317D01*
X128218D01*
Y37967D01*
X128102D01*
Y37734D01*
X127635D01*
Y37617D01*
X126817D01*
Y37500D01*
X126000D01*
Y37383D01*
X125183D01*
Y37266D01*
X124365D01*
Y37150D01*
X123665D01*
Y37033D01*
X122731D01*
Y36916D01*
X122030D01*
Y36799D01*
X121213D01*
Y36683D01*
X120396D01*
Y36566D01*
X119695D01*
Y36449D01*
X118878D01*
Y36332D01*
X118060D01*
Y36216D01*
X117477D01*
Y36449D01*
X117593D01*
Y36799D01*
X117710D01*
Y37033D01*
X117827D01*
Y37266D01*
X117944D01*
Y37617D01*
X118060D01*
Y37850D01*
X118177D01*
Y38084D01*
X118294D01*
Y38434D01*
X118411D01*
Y38668D01*
X118527D01*
Y38901D01*
X118644D01*
Y39251D01*
X118761D01*
Y39485D01*
X118878D01*
Y39835D01*
X118994D01*
Y40069D01*
X119111D01*
Y40302D01*
X119228D01*
Y40536D01*
X119345D01*
Y40886D01*
X119462D01*
Y41120D01*
X119578D01*
Y41353D01*
X119695D01*
Y41703D01*
X119812D01*
Y41937D01*
X119929D01*
Y42170D01*
X120045D01*
Y42521D01*
X120162D01*
Y42754D01*
X120279D01*
Y42988D01*
X120396D01*
Y43338D01*
X120512D01*
Y43571D01*
X120629D01*
Y43805D01*
X120746D01*
Y44155D01*
X120863D01*
Y44389D01*
X120979D01*
Y44622D01*
X121096D01*
Y44973D01*
X121213D01*
Y45206D01*
X121330D01*
Y45556D01*
X121446D01*
Y45790D01*
X121563D01*
Y46023D01*
X121680D01*
Y46257D01*
X121797D01*
Y46607D01*
X121914D01*
Y46841D01*
X122030D01*
Y46957D01*
X122380D01*
Y46841D01*
D02*
G37*
G36*
X102065Y46607D02*
X102181D01*
Y46257D01*
X102298D01*
Y45907D01*
X102415D01*
Y45673D01*
X102532D01*
Y45323D01*
X102648D01*
Y45089D01*
X102765D01*
Y44856D01*
X102882D01*
Y44622D01*
X102999D01*
Y44272D01*
X103115D01*
Y43922D01*
X103232D01*
Y43688D01*
X103349D01*
Y43338D01*
X103466D01*
Y43104D01*
X103582D01*
Y42871D01*
X103699D01*
Y42637D01*
X103816D01*
Y42287D01*
X103933D01*
Y42054D01*
X104050D01*
Y41703D01*
X104166D01*
Y41470D01*
X104283D01*
Y41120D01*
X104400D01*
Y40886D01*
X104516D01*
Y40652D01*
X104633D01*
Y40302D01*
X104750D01*
Y40069D01*
X104867D01*
Y39718D01*
X104983D01*
Y39485D01*
X105100D01*
Y39251D01*
X105217D01*
Y38901D01*
X105334D01*
Y38551D01*
X105450D01*
Y38317D01*
X105567D01*
Y38084D01*
X105684D01*
Y37734D01*
X105801D01*
Y37500D01*
X105918D01*
Y37266D01*
X106034D01*
Y36916D01*
X106151D01*
Y36683D01*
X106268D01*
Y36332D01*
X106385D01*
Y36216D01*
X105918D01*
Y36332D01*
X105217D01*
Y36449D01*
X104516D01*
Y36566D01*
X103699D01*
Y36683D01*
X102765D01*
Y36799D01*
X101948D01*
Y36916D01*
X101247D01*
Y37033D01*
X100430D01*
Y37150D01*
X99613D01*
Y37266D01*
X98795D01*
Y37383D01*
X98095D01*
Y37500D01*
X97161D01*
Y37617D01*
X96460D01*
Y37734D01*
X95876D01*
Y37967D01*
X95760D01*
Y38317D01*
X95643D01*
Y38551D01*
X95526D01*
Y38901D01*
X95409D01*
Y39251D01*
X95293D01*
Y39485D01*
X95176D01*
Y39718D01*
Y39835D01*
X95059D01*
Y40069D01*
X94942D01*
Y40302D01*
X94826D01*
Y40652D01*
X94709D01*
Y40886D01*
X94592D01*
Y41236D01*
X94475D01*
Y41470D01*
X94358D01*
Y41820D01*
X94242D01*
Y42054D01*
X94125D01*
Y42404D01*
X94008D01*
Y42637D01*
X93892D01*
Y42988D01*
X93775D01*
Y43221D01*
X93658D01*
Y43571D01*
X93541D01*
Y43922D01*
X93424D01*
Y44155D01*
X93308D01*
Y44389D01*
X93191D01*
Y44739D01*
X93074D01*
Y44973D01*
X92957D01*
Y45323D01*
X93191D01*
Y45440D01*
X93892D01*
Y45556D01*
X94709D01*
Y45673D01*
X95409D01*
Y45790D01*
X95993D01*
Y45907D01*
X96694D01*
Y46023D01*
X97511D01*
Y46140D01*
X98095D01*
Y46257D01*
X98912D01*
Y46374D01*
X99613D01*
Y46490D01*
X100313D01*
Y46607D01*
X101014D01*
Y46724D01*
X101597D01*
Y46841D01*
X102065D01*
Y46607D01*
D02*
G37*
G36*
X118527Y44039D02*
X118411D01*
Y43805D01*
X118294D01*
Y43455D01*
X118177D01*
Y43221D01*
X118060D01*
Y42988D01*
X117944D01*
Y42637D01*
X117827D01*
Y42404D01*
X117710D01*
Y42054D01*
X117593D01*
Y41820D01*
X117477D01*
Y41470D01*
X117360D01*
Y41236D01*
X117243D01*
Y41003D01*
X117126D01*
Y40769D01*
X117010D01*
Y40419D01*
X116893D01*
Y40185D01*
X116776D01*
Y39835D01*
X116659D01*
Y39602D01*
X116543D01*
Y39368D01*
X116426D01*
Y39135D01*
X116309D01*
Y38784D01*
X116192D01*
Y38551D01*
X116076D01*
Y38317D01*
X115959D01*
Y37967D01*
X115842D01*
Y37734D01*
X115725D01*
Y37500D01*
X115609D01*
Y37150D01*
X115492D01*
Y36916D01*
X115375D01*
Y36566D01*
X115258D01*
Y36332D01*
X115141D01*
Y36099D01*
X115025D01*
Y35865D01*
X114791D01*
Y35749D01*
X113974D01*
Y35632D01*
X113273D01*
Y35515D01*
X112456D01*
Y35398D01*
X111522D01*
Y35515D01*
X110705D01*
Y35632D01*
X110004D01*
Y35749D01*
X109187D01*
Y35865D01*
X108720D01*
Y36216D01*
X108603D01*
Y36449D01*
X108486D01*
Y36799D01*
X108370D01*
Y37033D01*
X108253D01*
Y37266D01*
X108136D01*
Y37617D01*
X108019D01*
Y37850D01*
X107903D01*
Y38201D01*
X107786D01*
Y38434D01*
X107669D01*
Y38668D01*
X107552D01*
Y39018D01*
X107435D01*
Y39368D01*
X107319D01*
Y39602D01*
X107202D01*
Y39835D01*
X107085D01*
Y40185D01*
X106968D01*
Y40419D01*
X106852D01*
Y40769D01*
X106735D01*
Y41003D01*
X106618D01*
Y41236D01*
X106501D01*
Y41587D01*
X106385D01*
Y41820D01*
X106268D01*
Y42170D01*
X106151D01*
Y42404D01*
X106034D01*
Y42637D01*
X105918D01*
Y42988D01*
X105801D01*
Y43221D01*
X105684D01*
Y43571D01*
X105567D01*
Y43805D01*
X105450D01*
Y44039D01*
X105334D01*
Y44272D01*
X118527D01*
Y44039D01*
D02*
G37*
G36*
X95643Y35632D02*
X96343D01*
Y35515D01*
X97161D01*
Y35398D01*
X97511D01*
Y35048D01*
X97394D01*
Y34815D01*
X97277D01*
Y34581D01*
X97161D01*
Y34348D01*
X97044D01*
Y34114D01*
X96927D01*
Y33880D01*
X96810D01*
Y33530D01*
X96694D01*
Y33297D01*
X96577D01*
Y33063D01*
X96460D01*
Y32830D01*
X96343D01*
Y32479D01*
X96227D01*
Y32246D01*
X96110D01*
Y31896D01*
X95993D01*
Y31662D01*
X95876D01*
Y31429D01*
X95760D01*
Y31195D01*
X95643D01*
Y30961D01*
X95526D01*
Y30611D01*
X95409D01*
Y30378D01*
X95293D01*
Y30144D01*
X95176D01*
Y29911D01*
X95059D01*
Y29560D01*
X94942D01*
Y29327D01*
X94826D01*
Y29093D01*
X94709D01*
Y28743D01*
X94592D01*
Y28510D01*
X94475D01*
Y28276D01*
X94358D01*
Y28043D01*
X94242D01*
Y27809D01*
X94125D01*
Y27459D01*
X94008D01*
Y27225D01*
X93892D01*
Y26992D01*
X93775D01*
Y26758D01*
X93658D01*
Y26408D01*
X93541D01*
Y26175D01*
X93424D01*
Y25941D01*
X93308D01*
Y25707D01*
X93191D01*
Y25474D01*
X93541D01*
Y25591D01*
X93775D01*
Y25707D01*
X94125D01*
Y25824D01*
X94475D01*
Y25941D01*
X94709D01*
Y26058D01*
X95059D01*
Y26175D01*
X95409D01*
Y26291D01*
X95643D01*
Y26408D01*
X95993D01*
Y26525D01*
X96343D01*
Y26641D01*
X96694D01*
Y26758D01*
X96927D01*
Y26875D01*
X97277D01*
Y26992D01*
X97511D01*
Y27108D01*
X97861D01*
Y27225D01*
X98211D01*
Y27342D01*
X98445D01*
Y27459D01*
X98795D01*
Y27575D01*
X99146D01*
Y27692D01*
X99379D01*
Y27809D01*
X99613D01*
Y27926D01*
X99963D01*
Y28043D01*
X100313D01*
Y28159D01*
X100547D01*
Y28276D01*
X100897D01*
Y28393D01*
X101247D01*
Y28510D01*
X101597D01*
Y28626D01*
X101831D01*
Y28743D01*
X102181D01*
Y28860D01*
X102415D01*
Y28977D01*
X102648D01*
Y29093D01*
X103115D01*
Y29210D01*
X103349D01*
Y29444D01*
X103232D01*
Y29677D01*
X103115D01*
Y29911D01*
X102999D01*
Y30144D01*
X102882D01*
Y30378D01*
X102765D01*
Y30611D01*
X102648D01*
Y30845D01*
X102532D01*
Y31078D01*
X102415D01*
Y31312D01*
X102298D01*
Y31545D01*
X102181D01*
Y31779D01*
X102065D01*
Y32012D01*
X101948D01*
Y32246D01*
X101831D01*
Y32479D01*
X101714D01*
Y32713D01*
X101597D01*
Y32830D01*
X101481D01*
Y33180D01*
X101364D01*
Y33413D01*
X101247D01*
Y33647D01*
X101130D01*
Y33880D01*
X101014D01*
Y34114D01*
X100897D01*
Y34348D01*
X100780D01*
Y34581D01*
X100663D01*
Y34815D01*
X100547D01*
Y34931D01*
X101130D01*
Y34815D01*
X101948D01*
Y34698D01*
X102648D01*
Y34581D01*
X103115D01*
Y34348D01*
X103232D01*
Y34114D01*
X103349D01*
Y33880D01*
X103466D01*
Y33647D01*
X103582D01*
Y33413D01*
X103699D01*
Y33180D01*
X103816D01*
Y32946D01*
X103933D01*
Y32713D01*
X104050D01*
Y32479D01*
X104166D01*
Y32246D01*
X104283D01*
Y32012D01*
X104400D01*
Y31779D01*
X104516D01*
Y31545D01*
X104633D01*
Y31312D01*
X104750D01*
Y31078D01*
X104867D01*
Y30845D01*
X104983D01*
Y30611D01*
X105100D01*
Y30378D01*
X110938D01*
Y33413D01*
X111522D01*
Y33297D01*
X112456D01*
Y33413D01*
X113040D01*
Y30378D01*
X118878D01*
Y30611D01*
X118994D01*
Y30845D01*
X119111D01*
Y31078D01*
X119228D01*
Y31312D01*
X119345D01*
Y31545D01*
X119462D01*
Y31779D01*
X119578D01*
Y32012D01*
X119695D01*
Y32246D01*
X119812D01*
Y32479D01*
X119929D01*
Y32713D01*
X120045D01*
Y33063D01*
X120162D01*
Y33180D01*
X120279D01*
Y33413D01*
X120396D01*
Y33647D01*
X120512D01*
Y33880D01*
X120629D01*
Y34114D01*
X120746D01*
Y34348D01*
X120863D01*
Y34581D01*
X121330D01*
Y34698D01*
X122147D01*
Y34815D01*
X122964D01*
Y34931D01*
X123431D01*
Y34815D01*
X123315D01*
Y34581D01*
X123198D01*
Y34348D01*
X123081D01*
Y34114D01*
X122964D01*
Y33880D01*
X122847D01*
Y33647D01*
X122731D01*
Y33413D01*
X122614D01*
Y33180D01*
X122497D01*
Y32946D01*
X122380D01*
Y32713D01*
X122264D01*
Y32479D01*
X122147D01*
Y32246D01*
X122030D01*
Y32012D01*
X121914D01*
Y31779D01*
X121797D01*
Y31545D01*
X121680D01*
Y31312D01*
X121563D01*
Y31078D01*
X121446D01*
Y30845D01*
X121330D01*
Y30611D01*
X121213D01*
Y30378D01*
X121096D01*
Y30144D01*
X120979D01*
Y29911D01*
X120863D01*
Y29677D01*
X120746D01*
Y29444D01*
X120629D01*
Y29210D01*
X120979D01*
Y29093D01*
X121213D01*
Y28977D01*
X121563D01*
Y28860D01*
X121797D01*
Y28743D01*
X122147D01*
Y28626D01*
X122497D01*
Y28510D01*
X122731D01*
Y28393D01*
X123081D01*
Y28276D01*
X123315D01*
Y28159D01*
X123665D01*
Y28043D01*
X124015D01*
Y27926D01*
X124365D01*
Y27809D01*
X124599D01*
Y27692D01*
X124832D01*
Y27575D01*
X125183D01*
Y27459D01*
X125533D01*
Y27342D01*
X125767D01*
Y27225D01*
X126117D01*
Y27108D01*
X126467D01*
Y26992D01*
X126700D01*
Y26875D01*
X127051D01*
Y26758D01*
X127401D01*
Y26641D01*
X127635D01*
Y26525D01*
X127868D01*
Y26408D01*
X128335D01*
Y26291D01*
X128569D01*
Y26175D01*
X128919D01*
Y26058D01*
X129269D01*
Y25941D01*
X129503D01*
Y25824D01*
X129853D01*
Y25707D01*
X130203D01*
Y25591D01*
X130437D01*
Y25474D01*
X130787D01*
Y25591D01*
X130670D01*
Y25941D01*
X130554D01*
Y26175D01*
X130437D01*
Y26408D01*
X130320D01*
Y26641D01*
X130203D01*
Y26992D01*
X130087D01*
Y27225D01*
X129970D01*
Y27459D01*
X129853D01*
Y27809D01*
X129736D01*
Y28043D01*
X129620D01*
Y28276D01*
X129503D01*
Y28510D01*
X129386D01*
Y28743D01*
X129269D01*
Y29093D01*
X129153D01*
Y29327D01*
X129036D01*
Y29560D01*
X128919D01*
Y29911D01*
X128802D01*
Y30144D01*
X128685D01*
Y30378D01*
X128569D01*
Y30611D01*
X128452D01*
Y30961D01*
X128335D01*
Y31195D01*
X128218D01*
Y31429D01*
X128102D01*
Y31662D01*
X127985D01*
Y31896D01*
X127868D01*
Y32246D01*
X127751D01*
Y32479D01*
X127635D01*
Y32830D01*
X127518D01*
Y33063D01*
X127401D01*
Y33297D01*
X127284D01*
Y33530D01*
X127168D01*
Y33764D01*
X127051D01*
Y34114D01*
X126934D01*
Y34348D01*
X126817D01*
Y34698D01*
X126700D01*
Y34931D01*
X126584D01*
Y35165D01*
X126467D01*
Y35398D01*
X126934D01*
Y35515D01*
X127635D01*
Y35632D01*
X128685D01*
Y35282D01*
X128802D01*
Y35048D01*
X128919D01*
Y34815D01*
X129036D01*
Y34464D01*
X129153D01*
Y34231D01*
X129269D01*
Y33997D01*
X129386D01*
Y33764D01*
X129503D01*
Y33530D01*
X129620D01*
Y33297D01*
X129736D01*
Y32946D01*
X129853D01*
Y32713D01*
X129970D01*
Y32479D01*
X130087D01*
Y32129D01*
X130203D01*
Y31896D01*
X130320D01*
Y31662D01*
X130437D01*
Y31429D01*
X130554D01*
Y31078D01*
X130670D01*
Y30845D01*
X130787D01*
Y30611D01*
X130904D01*
Y30378D01*
X131021D01*
Y30027D01*
X131137D01*
Y29794D01*
X131254D01*
Y29560D01*
X131371D01*
Y29210D01*
X131488D01*
Y28977D01*
X131604D01*
Y28743D01*
X131721D01*
Y28510D01*
X131838D01*
Y28276D01*
X131955D01*
Y28043D01*
X132071D01*
Y27692D01*
X132188D01*
Y27459D01*
X132305D01*
Y27225D01*
X132422D01*
Y26875D01*
X132538D01*
Y26641D01*
X132655D01*
Y26408D01*
X132772D01*
Y26175D01*
X132889D01*
Y25941D01*
X133005D01*
Y25591D01*
X133122D01*
Y25357D01*
X133239D01*
Y25007D01*
X133356D01*
Y24773D01*
X133473D01*
Y24540D01*
X133589D01*
Y24306D01*
X133706D01*
Y23956D01*
X133823D01*
Y23722D01*
X133940D01*
Y23489D01*
X134056D01*
Y23256D01*
X134173D01*
Y23022D01*
X134290D01*
Y22672D01*
X134407D01*
Y22438D01*
X134523D01*
Y22205D01*
X134640D01*
Y21854D01*
X134757D01*
Y21621D01*
X134874D01*
Y21387D01*
X134990D01*
Y21154D01*
X135107D01*
Y21037D01*
X138143D01*
Y18935D01*
X130670D01*
Y21037D01*
X132772D01*
Y21271D01*
X132655D01*
Y21504D01*
X132538D01*
Y21738D01*
X132422D01*
Y21971D01*
X132305D01*
Y22205D01*
X132188D01*
Y22555D01*
X132071D01*
Y22788D01*
X131721D01*
Y22905D01*
X131371D01*
Y23022D01*
X131137D01*
Y23139D01*
X130670D01*
Y23256D01*
X130320D01*
Y23372D01*
X130087D01*
Y23489D01*
X129736D01*
Y23606D01*
X129386D01*
Y23722D01*
X129153D01*
Y23839D01*
X128802D01*
Y23956D01*
X128452D01*
Y24073D01*
X128102D01*
Y24190D01*
X127868D01*
Y24306D01*
X127518D01*
Y24423D01*
X127284D01*
Y24540D01*
X126934D01*
Y24657D01*
X126584D01*
Y24773D01*
X126350D01*
Y24890D01*
X126000D01*
Y25007D01*
X125650D01*
Y25124D01*
X125416D01*
Y25240D01*
X125066D01*
Y25357D01*
X124832D01*
Y25474D01*
X124482D01*
Y25591D01*
X124249D01*
Y25707D01*
X123898D01*
Y25824D01*
X123548D01*
Y25941D01*
X123198D01*
Y26058D01*
X122964D01*
Y26175D01*
X122614D01*
Y26291D01*
X122380D01*
Y26408D01*
X122030D01*
Y26525D01*
X121797D01*
Y26641D01*
X121446D01*
Y26758D01*
X121213D01*
Y26875D01*
X120863D01*
Y26992D01*
X120512D01*
Y27108D01*
X120279D01*
Y27225D01*
X119929D01*
Y27342D01*
X119695D01*
Y27459D01*
X119345D01*
Y27575D01*
X118761D01*
Y27459D01*
X118644D01*
Y27342D01*
X118527D01*
Y27225D01*
X118294D01*
Y27108D01*
X118177D01*
Y26992D01*
X118060D01*
Y26875D01*
X117827D01*
Y26758D01*
X117710D01*
Y26641D01*
X117593D01*
Y26525D01*
X117360D01*
Y26408D01*
X117243D01*
Y26291D01*
X117126D01*
Y26175D01*
X117010D01*
Y26058D01*
X116776D01*
Y25941D01*
X116659D01*
Y25824D01*
X116543D01*
Y25707D01*
X116309D01*
Y25591D01*
X116192D01*
Y25474D01*
X115959D01*
Y25357D01*
X115842D01*
Y25240D01*
X115725D01*
Y25124D01*
X115492D01*
Y25007D01*
X115375D01*
Y24890D01*
X115258D01*
Y24773D01*
X115025D01*
Y24657D01*
X114908D01*
Y24540D01*
X114791D01*
Y24423D01*
X114558D01*
Y24306D01*
X114441D01*
Y24190D01*
X114324D01*
Y24073D01*
X114207D01*
Y23956D01*
X113974D01*
Y23839D01*
X113857D01*
Y23722D01*
X113624D01*
Y23606D01*
X113507D01*
Y23489D01*
X113390D01*
Y23372D01*
X113273D01*
Y23256D01*
X113040D01*
Y19169D01*
X115725D01*
Y17067D01*
X108253D01*
Y19169D01*
X110938D01*
Y23256D01*
X110821D01*
Y23372D01*
X110588D01*
Y23489D01*
X110471D01*
Y23606D01*
X110354D01*
Y23722D01*
X110121D01*
Y23839D01*
X110004D01*
Y23956D01*
X109887D01*
Y24073D01*
X109654D01*
Y24190D01*
X109537D01*
Y24306D01*
X109420D01*
Y24423D01*
X109187D01*
Y24540D01*
X109070D01*
Y24657D01*
X108953D01*
Y24773D01*
X108720D01*
Y24890D01*
X108603D01*
Y25007D01*
X108486D01*
Y25124D01*
X108253D01*
Y25240D01*
X108136D01*
Y25357D01*
X108019D01*
Y25474D01*
X107786D01*
Y25591D01*
X107669D01*
Y25707D01*
X107552D01*
Y25824D01*
X107319D01*
Y25941D01*
X107202D01*
Y26058D01*
X107085D01*
Y26175D01*
X106852D01*
Y26291D01*
X106735D01*
Y26408D01*
X106618D01*
Y26525D01*
X106385D01*
Y26641D01*
X106268D01*
Y26758D01*
X106034D01*
Y26875D01*
X105918D01*
Y26992D01*
X105801D01*
Y27108D01*
X105684D01*
Y27225D01*
X105567D01*
Y27342D01*
X105334D01*
Y27459D01*
X105217D01*
Y27575D01*
X104633D01*
Y27459D01*
X104400D01*
Y27342D01*
X104050D01*
Y27225D01*
X103816D01*
Y27108D01*
X103466D01*
Y26992D01*
X103115D01*
Y26875D01*
X102765D01*
Y26758D01*
X102532D01*
Y26641D01*
X102181D01*
Y26525D01*
X101948D01*
Y26408D01*
X101714D01*
Y26291D01*
X101364D01*
Y26175D01*
X101014D01*
Y26058D01*
X100780D01*
Y25941D01*
X100430D01*
Y25824D01*
X100080D01*
Y25707D01*
X99846D01*
Y25591D01*
X99496D01*
Y25474D01*
X99262D01*
Y25357D01*
X98912D01*
Y25240D01*
X98679D01*
Y25124D01*
X98328D01*
Y25007D01*
X97978D01*
Y24890D01*
X97628D01*
Y24773D01*
X97394D01*
Y24657D01*
X97044D01*
Y24540D01*
X96810D01*
Y24423D01*
X96460D01*
Y24306D01*
X96110D01*
Y24190D01*
X95876D01*
Y24073D01*
X95526D01*
Y23956D01*
X95176D01*
Y23839D01*
X94826D01*
Y23722D01*
X94592D01*
Y23606D01*
X94242D01*
Y23489D01*
X93892D01*
Y23372D01*
X93541D01*
Y23256D01*
X93191D01*
Y23139D01*
X92841D01*
Y23022D01*
X92607D01*
Y22905D01*
X92257D01*
Y22788D01*
X91907D01*
Y22555D01*
X91790D01*
Y22205D01*
X91673D01*
Y21971D01*
X91556D01*
Y21738D01*
X91440D01*
Y21504D01*
X91323D01*
Y21271D01*
X91206D01*
Y21037D01*
X93308D01*
Y18935D01*
X85835D01*
Y21037D01*
X88871D01*
Y21154D01*
X88988D01*
Y21387D01*
X89104D01*
Y21621D01*
X89221D01*
Y21854D01*
X89338D01*
Y22205D01*
X89455D01*
Y22438D01*
X89571D01*
Y22672D01*
X89688D01*
Y23022D01*
X89805D01*
Y23256D01*
X89922D01*
Y23489D01*
X90039D01*
Y23722D01*
X90155D01*
Y24073D01*
X90272D01*
Y24306D01*
X90389D01*
Y24540D01*
X90505D01*
Y24773D01*
X90622D01*
Y25124D01*
X90739D01*
Y25357D01*
X90856D01*
Y25591D01*
X90973D01*
Y25941D01*
X91089D01*
Y26175D01*
X91206D01*
Y26408D01*
X91323D01*
Y26641D01*
X91440D01*
Y26875D01*
X91556D01*
Y27225D01*
X91673D01*
Y27459D01*
X91790D01*
Y27692D01*
X91907D01*
Y27926D01*
X92023D01*
Y28276D01*
X92140D01*
Y28510D01*
X92257D01*
Y28743D01*
X92374D01*
Y28977D01*
X92490D01*
Y29210D01*
X92607D01*
Y29560D01*
X92724D01*
Y29794D01*
X92841D01*
Y30027D01*
X92957D01*
Y30378D01*
X93074D01*
Y30611D01*
X93191D01*
Y30845D01*
X93308D01*
Y31195D01*
X93424D01*
Y31429D01*
X93541D01*
Y31662D01*
X93658D01*
Y31896D01*
X93775D01*
Y32129D01*
X93892D01*
Y32479D01*
X94008D01*
Y32713D01*
X94125D01*
Y32946D01*
X94242D01*
Y33297D01*
X94358D01*
Y33530D01*
X94475D01*
Y33764D01*
X94592D01*
Y33997D01*
X94709D01*
Y34231D01*
X94826D01*
Y34464D01*
X94942D01*
Y34815D01*
X95059D01*
Y35048D01*
X95176D01*
Y35282D01*
X95293D01*
Y35632D01*
X95409D01*
Y35749D01*
X95643D01*
Y35632D01*
D02*
G37*
%LPC*%
G36*
X131137Y65872D02*
X130203D01*
Y65755D01*
X129853D01*
Y65639D01*
X129620D01*
Y65522D01*
X129503D01*
Y65405D01*
X129386D01*
Y65289D01*
X129269D01*
Y65172D01*
X129153D01*
Y65055D01*
X129036D01*
Y64938D01*
X128919D01*
Y64705D01*
X128802D01*
Y64354D01*
X128685D01*
Y63537D01*
X128802D01*
Y63187D01*
X128919D01*
Y62836D01*
X129036D01*
Y62720D01*
X129153D01*
Y62603D01*
X129269D01*
Y62486D01*
X129386D01*
Y62370D01*
X129503D01*
Y62253D01*
X129620D01*
Y62136D01*
X129853D01*
Y62019D01*
X130203D01*
Y61902D01*
X131137D01*
Y62019D01*
X131488D01*
Y62136D01*
X131721D01*
Y62253D01*
X131838D01*
Y62370D01*
X131955D01*
Y62486D01*
X132071D01*
Y62603D01*
X132188D01*
Y62720D01*
X132305D01*
Y62836D01*
X132422D01*
Y63070D01*
X132538D01*
Y63420D01*
X132655D01*
Y64354D01*
X132538D01*
Y64705D01*
X132422D01*
Y64938D01*
X132305D01*
Y65055D01*
X132188D01*
Y65172D01*
X132071D01*
Y65405D01*
X131838D01*
Y65522D01*
X131721D01*
Y65639D01*
X131488D01*
Y65755D01*
X131137D01*
Y65872D01*
D02*
G37*
G36*
X100780Y60268D02*
X97044D01*
Y59451D01*
Y59334D01*
Y58166D01*
X100780D01*
Y60268D01*
D02*
G37*
G36*
X116192Y28276D02*
X113040D01*
Y27108D01*
Y26992D01*
Y25824D01*
X113157D01*
Y25941D01*
X113273D01*
Y26058D01*
X113390D01*
Y26175D01*
X113624D01*
Y26291D01*
X113740D01*
Y26408D01*
X113857D01*
Y26525D01*
X114091D01*
Y26641D01*
X114207D01*
Y26758D01*
X114324D01*
Y26875D01*
X114441D01*
Y26992D01*
X114674D01*
Y27108D01*
X114791D01*
Y27225D01*
X114908D01*
Y27342D01*
X115141D01*
Y27459D01*
X115258D01*
Y27575D01*
X115492D01*
Y27692D01*
X115609D01*
Y27809D01*
X115725D01*
Y27926D01*
X115959D01*
Y28043D01*
X116076D01*
Y28159D01*
X116192D01*
Y28276D01*
D02*
G37*
G36*
X110938D02*
X107786D01*
Y28159D01*
X107903D01*
Y28043D01*
X108019D01*
Y27926D01*
X108253D01*
Y27809D01*
X108370D01*
Y27692D01*
X108486D01*
Y27575D01*
X108720D01*
Y27459D01*
X108836D01*
Y27342D01*
X108953D01*
Y27225D01*
X109187D01*
Y27108D01*
X109304D01*
Y26992D01*
X109420D01*
Y26875D01*
X109654D01*
Y26758D01*
X109771D01*
Y26641D01*
X109887D01*
Y26525D01*
X110121D01*
Y26408D01*
X110238D01*
Y26291D01*
X110354D01*
Y26175D01*
X110588D01*
Y26058D01*
X110705D01*
Y25941D01*
X110821D01*
Y25824D01*
X110938D01*
Y28276D01*
D02*
G37*
%LPD*%
D10*
X21835Y143181D02*
X21096Y143607D01*
Y142755D01*
X21835Y143181D01*
D11*
X1500Y196000D02*
X211500D01*
X1500Y336500D02*
X211500D01*
Y196000D02*
Y336500D01*
X1500Y196000D02*
Y336500D01*
X128000Y179999D02*
X127001Y180999D01*
X125001D01*
X124002Y179999D01*
Y176001D01*
X125001Y175001D01*
X127001D01*
X128000Y176001D01*
X133998Y175001D02*
X130000D01*
X133998Y179000D01*
Y179999D01*
X132999Y180999D01*
X130999D01*
X130000Y179999D01*
X82002Y129501D02*
Y135499D01*
X85001D01*
X86000Y134499D01*
Y132500D01*
X85001Y131500D01*
X82002D01*
X84001D02*
X86000Y129501D01*
X88000Y135499D02*
X91998D01*
Y134499D01*
X88000Y130501D01*
Y129501D01*
X49600Y166500D02*
Y172498D01*
X52599D01*
X53599Y171498D01*
Y169499D01*
X52599Y168499D01*
X49600D01*
X51599D02*
X53599Y166500D01*
X59597Y172498D02*
X57597Y171498D01*
X55598Y169499D01*
Y167500D01*
X56598Y166500D01*
X58597D01*
X59597Y167500D01*
Y168499D01*
X58597Y169499D01*
X55598D01*
X81002Y112001D02*
Y117999D01*
X84001D01*
X85000Y116999D01*
Y115000D01*
X84001Y114000D01*
X81002D01*
X83001D02*
X85000Y112001D01*
X90998Y117999D02*
X87000D01*
Y115000D01*
X88999Y116000D01*
X89999D01*
X90998Y115000D01*
Y113001D01*
X89999Y112001D01*
X87999D01*
X87000Y113001D01*
X129002Y130001D02*
Y135999D01*
X132001D01*
X133000Y134999D01*
Y133000D01*
X132001Y132000D01*
X129002D01*
X131001D02*
X133000Y130001D01*
X137999D02*
Y135999D01*
X135000Y133000D01*
X138998D01*
X56002Y142501D02*
Y148499D01*
X59001D01*
X60000Y147499D01*
Y145500D01*
X59001Y144500D01*
X56002D01*
X58001D02*
X60000Y142501D01*
X62000Y147499D02*
X62999Y148499D01*
X64999D01*
X65998Y147499D01*
Y146500D01*
X64999Y145500D01*
X63999D01*
X64999D01*
X65998Y144500D01*
Y143501D01*
X64999Y142501D01*
X62999D01*
X62000Y143501D01*
X70502Y166001D02*
Y171999D01*
X73501D01*
X74500Y170999D01*
Y169000D01*
X73501Y168000D01*
X70502D01*
X72501D02*
X74500Y166001D01*
X80498D02*
X76500D01*
X80498Y170000D01*
Y170999D01*
X79499Y171999D01*
X77499D01*
X76500Y170999D01*
X2400Y157400D02*
Y163398D01*
X5399D01*
X6399Y162398D01*
Y160399D01*
X5399Y159399D01*
X2400D01*
X8398Y157400D02*
X10397D01*
X9398D01*
Y163398D01*
X8398Y162398D01*
X89002Y165501D02*
Y171499D01*
X92001D01*
X93001Y170499D01*
Y168500D01*
X92001Y167500D01*
X89002D01*
X91002D02*
X93001Y165501D01*
X95000Y171499D02*
X98999D01*
X97000D01*
Y165501D01*
X100998D02*
X102998D01*
X101998D01*
Y171499D01*
X100998Y170499D01*
X97001Y95501D02*
Y101499D01*
X100000D01*
X101000Y100499D01*
Y98500D01*
X100000Y97500D01*
X97001D01*
X99001D02*
X101000Y95501D01*
X102999D02*
X104999D01*
X103999D01*
Y101499D01*
X102999Y100499D01*
X153500Y154999D02*
X152500Y155999D01*
X150501D01*
X149501Y154999D01*
Y151001D01*
X150501Y150001D01*
X152500D01*
X153500Y151001D01*
X155499Y150001D02*
X157499D01*
X156499D01*
Y155999D01*
X155499Y154999D01*
X0Y338000D02*
X213000D01*
Y500D02*
Y338000D01*
X500Y500D02*
X213000D01*
X0Y0D02*
X500Y500D01*
X0Y0D02*
Y338000D01*
D12*
X78106Y160961D02*
X78894D01*
X78106Y156039D02*
X78894D01*
X100039Y129606D02*
Y130394D01*
X104961Y129606D02*
Y130394D01*
X118039Y138043D02*
Y138831D01*
X122961Y138043D02*
Y138831D01*
X78106Y148461D02*
X78894D01*
X78106Y143539D02*
X78894D01*
X106106Y117961D02*
X106894D01*
X106106Y113039D02*
X106894D01*
X3921Y114933D02*
Y144067D01*
X15535Y145839D02*
Y151744D01*
Y145839D02*
X19079D01*
Y142098D02*
Y145839D01*
Y113161D02*
Y116902D01*
X15535Y107256D02*
Y113161D01*
X19079D01*
X56606Y160961D02*
X57394D01*
X56606Y156039D02*
X57394D01*
X107472Y161406D02*
X116528D01*
Y149594D02*
Y161406D01*
X107472Y149594D02*
X116528D01*
X107472D02*
Y161406D01*
X100484Y161602D02*
X106095D01*
X113764Y99106D02*
Y99894D01*
X109236Y99106D02*
Y99894D01*
X136205Y153146D02*
X136795D01*
X136205Y158854D02*
X136795D01*
D13*
X109925Y48504D02*
X113075D01*
M02*
