G04*
G04 #@! TF.GenerationSoftware,Altium Limited,Altium Designer,21.7.2 (23)*
G04*
G04 Layer_Color=2752767*
%FSLAX25Y25*%
%MOIN*%
G70*
G04*
G04 #@! TF.SameCoordinates,3B60FD94-7D09-417F-B4C1-333D49710502*
G04*
G04*
G04 #@! TF.FilePolarity,Positive*
G04*
G01*
G75*
%ADD11C,0.01000*%
%ADD41C,0.00200*%
%ADD42C,0.00267*%
D11*
Y338000D02*
X213000D01*
Y500D02*
Y338000D01*
X500Y500D02*
X213000D01*
X0Y0D02*
X500Y500D01*
X0Y0D02*
Y338000D01*
D41*
X114200Y204700D02*
Y206300D01*
X115800D01*
Y204700D01*
X114200D01*
Y184200D02*
Y185800D01*
X115800D01*
Y184200D01*
X114200D01*
D42*
X133300Y148000D02*
X132747Y148761D01*
X131853Y148470D01*
Y147530D01*
X132747Y147239D01*
X133300Y148000D01*
X118300Y115500D02*
X117747Y116261D01*
X116853Y115970D01*
Y115030D01*
X117747Y114739D01*
X118300Y115500D01*
X29800Y124500D02*
X29247Y125261D01*
X28353Y124970D01*
Y124030D01*
X29247Y123739D01*
X29800Y124500D01*
X44800Y158500D02*
X44247Y159261D01*
X43353Y158970D01*
Y158030D01*
X44247Y157739D01*
X44800Y158500D01*
X94300Y115500D02*
X93747Y116261D01*
X92853Y115970D01*
Y115030D01*
X93747Y114739D01*
X94300Y115500D01*
M02*
