G04*
G04 #@! TF.GenerationSoftware,Altium Limited,Altium Designer,21.7.2 (23)*
G04*
G04 Layer_Physical_Order=3*
G04 Layer_Color=16440176*
%FSLAX25Y25*%
%MOIN*%
G70*
G04*
G04 #@! TF.SameCoordinates,3B60FD94-7D09-417F-B4C1-333D49710502*
G04*
G04*
G04 #@! TF.FilePolarity,Positive*
G04*
G01*
G75*
%ADD11C,0.01000*%
%ADD37C,0.05000*%
G36*
X97500Y103500D02*
X19500D01*
Y163000D01*
X97500D01*
Y103500D01*
D02*
G37*
G36*
X136000Y149938D02*
X135500Y149804D01*
X135301Y150149D01*
X134649Y150801D01*
X133851Y151261D01*
X133000Y151489D01*
Y148000D01*
Y144510D01*
X133851Y144738D01*
X134649Y145199D01*
X135301Y145851D01*
X135500Y146196D01*
X136000Y146062D01*
Y103500D01*
X106000D01*
Y122500D01*
Y163000D01*
X136000D01*
Y149938D01*
D02*
G37*
%LPC*%
G36*
X44500Y161989D02*
Y159000D01*
X47490D01*
X47262Y159851D01*
X46801Y160649D01*
X46149Y161301D01*
X45351Y161761D01*
X44500Y161989D01*
D02*
G37*
G36*
X43500D02*
X42649Y161761D01*
X41851Y161301D01*
X41199Y160649D01*
X40738Y159851D01*
X40510Y159000D01*
X43500D01*
Y161989D01*
D02*
G37*
G36*
X47490Y158000D02*
X44500D01*
Y155010D01*
X45351Y155238D01*
X46149Y155699D01*
X46801Y156351D01*
X47262Y157149D01*
X47490Y158000D01*
D02*
G37*
G36*
X43500D02*
X40510D01*
X40738Y157149D01*
X41199Y156351D01*
X41851Y155699D01*
X42649Y155238D01*
X43500Y155010D01*
Y158000D01*
D02*
G37*
G36*
X29500Y127989D02*
Y125000D01*
X32489D01*
X32261Y125851D01*
X31801Y126649D01*
X31149Y127301D01*
X30351Y127761D01*
X29500Y127989D01*
D02*
G37*
G36*
X28500D02*
X27649Y127761D01*
X26851Y127301D01*
X26199Y126649D01*
X25738Y125851D01*
X25510Y125000D01*
X28500D01*
Y127989D01*
D02*
G37*
G36*
X32489Y124000D02*
X29500D01*
Y121010D01*
X30351Y121239D01*
X31149Y121699D01*
X31801Y122351D01*
X32261Y123149D01*
X32489Y124000D01*
D02*
G37*
G36*
X28500D02*
X25510D01*
X25738Y123149D01*
X26199Y122351D01*
X26851Y121699D01*
X27649Y121239D01*
X28500Y121010D01*
Y124000D01*
D02*
G37*
G36*
X94000Y118990D02*
Y116000D01*
X96990D01*
X96762Y116851D01*
X96301Y117649D01*
X95649Y118301D01*
X94851Y118762D01*
X94000Y118990D01*
D02*
G37*
G36*
X93000D02*
X92149Y118762D01*
X91351Y118301D01*
X90699Y117649D01*
X90238Y116851D01*
X90010Y116000D01*
X93000D01*
Y118990D01*
D02*
G37*
G36*
X96990Y115000D02*
X94000D01*
Y112011D01*
X94851Y112239D01*
X95649Y112699D01*
X96301Y113351D01*
X96762Y114149D01*
X96990Y115000D01*
D02*
G37*
G36*
X93000D02*
X90010D01*
X90238Y114149D01*
X90699Y113351D01*
X91351Y112699D01*
X92149Y112239D01*
X93000Y112011D01*
Y115000D01*
D02*
G37*
G36*
X132000Y151489D02*
X131149Y151261D01*
X130351Y150801D01*
X129699Y150149D01*
X129238Y149351D01*
X129010Y148500D01*
X132000D01*
Y151489D01*
D02*
G37*
G36*
Y147500D02*
X129010D01*
X129238Y146649D01*
X129699Y145851D01*
X130351Y145199D01*
X131149Y144738D01*
X132000Y144510D01*
Y147500D01*
D02*
G37*
G36*
X118000Y118990D02*
Y116000D01*
X120990D01*
X120762Y116851D01*
X120301Y117649D01*
X119649Y118301D01*
X118851Y118762D01*
X118000Y118990D01*
D02*
G37*
G36*
X117000D02*
X116149Y118762D01*
X115351Y118301D01*
X114699Y117649D01*
X114239Y116851D01*
X114011Y116000D01*
X117000D01*
Y118990D01*
D02*
G37*
G36*
X120990Y115000D02*
X118000D01*
Y112011D01*
X118851Y112239D01*
X119649Y112699D01*
X120301Y113351D01*
X120762Y114149D01*
X120990Y115000D01*
D02*
G37*
G36*
X117000D02*
X114011D01*
X114239Y114149D01*
X114699Y113351D01*
X115351Y112699D01*
X116149Y112239D01*
X117000Y112011D01*
Y115000D01*
D02*
G37*
%LPD*%
D11*
X0Y338000D02*
X213000D01*
Y500D02*
Y338000D01*
X500Y500D02*
X213000D01*
X0Y0D02*
X500Y500D01*
X0Y0D02*
Y338000D01*
D37*
X132500Y148000D02*
D03*
X117500Y115500D02*
D03*
X29000Y124500D02*
D03*
X44000Y158500D02*
D03*
X93500Y115500D02*
D03*
M02*
