G04*
G04 #@! TF.GenerationSoftware,Altium Limited,Altium Designer,21.7.2 (23)*
G04*
G04 Layer_Color=8388736*
%FSLAX25Y25*%
%MOIN*%
G70*
G04*
G04 #@! TF.SameCoordinates,3B60FD94-7D09-417F-B4C1-333D49710502*
G04*
G04*
G04 #@! TF.FilePolarity,Negative*
G04*
G01*
G75*
%ADD11C,0.01000*%
%ADD14R,0.06496X0.06693*%
%ADD15R,0.05315X0.06299*%
%ADD16R,0.06299X0.05315*%
%ADD17R,0.06890X0.03780*%
%ADD18R,0.12402X0.08858*%
%ADD19R,0.06201X0.02362*%
%ADD20R,0.05906X0.03937*%
%ADD21R,0.03740X0.03740*%
%ADD22R,0.03740X0.05512*%
%ADD23C,0.02591*%
%ADD24C,0.05591*%
D11*
Y338000D02*
X213000D01*
Y500D02*
Y338000D01*
X500Y500D02*
X213000D01*
X0Y0D02*
X500Y500D01*
X0Y0D02*
Y338000D01*
D14*
X116043Y177000D02*
D03*
X108957D02*
D03*
D15*
X74563Y158500D02*
D03*
X82437D02*
D03*
X74563Y146000D02*
D03*
X82437D02*
D03*
X102563Y115500D02*
D03*
X110437D02*
D03*
X53063Y158500D02*
D03*
X60937D02*
D03*
D16*
X102500Y126063D02*
D03*
Y133937D02*
D03*
X120500Y134500D02*
D03*
Y142374D02*
D03*
D17*
X19650Y119658D02*
D03*
Y124579D02*
D03*
Y134421D02*
D03*
Y139342D02*
D03*
Y129500D02*
D03*
D18*
X8232Y149382D02*
D03*
Y109618D02*
D03*
D19*
X103291Y159339D02*
D03*
Y156780D02*
D03*
Y154220D02*
D03*
Y151661D02*
D03*
X120709D02*
D03*
Y154220D02*
D03*
Y156780D02*
D03*
Y159339D02*
D03*
D20*
X111500Y102748D02*
D03*
Y96252D02*
D03*
D21*
X111500Y57952D02*
D03*
Y52047D02*
D03*
D22*
X140142Y156000D02*
D03*
X132858D02*
D03*
D23*
X115000Y205500D02*
D03*
Y185000D02*
D03*
D24*
X132500Y148000D02*
D03*
X117500Y115500D02*
D03*
X29000Y124500D02*
D03*
X44000Y158500D02*
D03*
X93500Y115500D02*
D03*
M02*
