G04*
G04 #@! TF.GenerationSoftware,Altium Limited,Altium Designer,21.7.2 (23)*
G04*
G04 Layer_Color=32896*
%FSLAX25Y25*%
%MOIN*%
G70*
G04*
G04 #@! TF.SameCoordinates,3B60FD94-7D09-417F-B4C1-333D49710502*
G04*
G04*
G04 #@! TF.FilePolarity,Positive*
G04*
G01*
G75*
%ADD11C,0.01000*%
%ADD38C,0.01500*%
G36*
X114612Y274527D02*
X114833D01*
Y274454D01*
X114981D01*
Y274380D01*
X115055D01*
Y274306D01*
X115129D01*
Y274232D01*
X115202D01*
Y274158D01*
X115276D01*
Y274084D01*
X115350D01*
Y273937D01*
X115424D01*
Y273789D01*
X115498D01*
Y273125D01*
X115424D01*
Y272977D01*
X115350D01*
Y272829D01*
X115276D01*
Y272755D01*
X115202D01*
Y272681D01*
X115129D01*
Y272608D01*
X115055D01*
Y272534D01*
X114981D01*
Y272460D01*
X114833D01*
Y272386D01*
X114760D01*
Y272312D01*
X114612D01*
Y272238D01*
X114538D01*
Y272165D01*
X114390D01*
Y272091D01*
X114243D01*
Y272017D01*
X114169D01*
Y271943D01*
X114021D01*
Y271869D01*
X113873D01*
Y271795D01*
X113652D01*
Y271722D01*
X113504D01*
Y271648D01*
X113283D01*
Y271574D01*
X113135D01*
Y271500D01*
X112840D01*
Y271426D01*
X112618D01*
Y271352D01*
X112249D01*
Y271279D01*
X111732D01*
Y271205D01*
X110108D01*
Y271279D01*
X109591D01*
Y271352D01*
X109295D01*
Y271426D01*
X109000D01*
Y271500D01*
X108779D01*
Y271574D01*
X108557D01*
Y271648D01*
X108335D01*
Y271722D01*
X108188D01*
Y271795D01*
X108040D01*
Y271869D01*
X107892D01*
Y271943D01*
X107745D01*
Y272017D01*
X107597D01*
Y272091D01*
X107449D01*
Y272165D01*
X107376D01*
Y272238D01*
X107228D01*
Y272312D01*
X107154D01*
Y272386D01*
X107006D01*
Y272460D01*
X106932D01*
Y272534D01*
X106859D01*
Y272608D01*
X106785D01*
Y272681D01*
X106711D01*
Y272755D01*
X106637D01*
Y272829D01*
X106563D01*
Y272977D01*
X106490D01*
Y273125D01*
X106416D01*
Y273863D01*
X106490D01*
Y274011D01*
X106563D01*
Y274084D01*
X106637D01*
Y274158D01*
X106711D01*
Y274232D01*
X106785D01*
Y274306D01*
X106859D01*
Y274380D01*
X106932D01*
Y274454D01*
X107080D01*
Y274527D01*
X107302D01*
Y274601D01*
X107819D01*
Y274527D01*
X107966D01*
Y274454D01*
X108114D01*
Y274380D01*
X108262D01*
Y274306D01*
X108409D01*
Y274232D01*
X108557D01*
Y274158D01*
X108631D01*
Y274084D01*
X108779D01*
Y274011D01*
X108926D01*
Y273937D01*
X109074D01*
Y273863D01*
X109221D01*
Y273789D01*
X109443D01*
Y273715D01*
X109665D01*
Y273641D01*
X109960D01*
Y273568D01*
X111954D01*
Y273641D01*
X112249D01*
Y273715D01*
X112544D01*
Y273789D01*
X112692D01*
Y273863D01*
X112840D01*
Y273937D01*
X112987D01*
Y274011D01*
X113135D01*
Y274084D01*
X113283D01*
Y274158D01*
X113356D01*
Y274232D01*
X113504D01*
Y274306D01*
X113652D01*
Y274380D01*
X113800D01*
Y274454D01*
X113947D01*
Y274527D01*
X114095D01*
Y274601D01*
X114612D01*
Y274527D01*
D02*
G37*
G36*
X116827Y270466D02*
X116975D01*
Y270392D01*
X117049D01*
Y270319D01*
X117196D01*
Y270245D01*
X117270D01*
Y270171D01*
X117344D01*
Y270023D01*
X117418D01*
Y269949D01*
X117492D01*
Y269802D01*
X117565D01*
Y268989D01*
X117492D01*
Y268842D01*
X117418D01*
Y268768D01*
X117344D01*
Y268620D01*
X117270D01*
Y268546D01*
X117122D01*
Y268473D01*
X117049D01*
Y268399D01*
X116975D01*
Y268325D01*
X116827D01*
Y268251D01*
X116753D01*
Y268177D01*
X116605D01*
Y268103D01*
X116458D01*
Y268029D01*
X116310D01*
Y267956D01*
X116162D01*
Y267882D01*
X116015D01*
Y267808D01*
X115867D01*
Y267734D01*
X115719D01*
Y267660D01*
X115572D01*
Y267586D01*
X115350D01*
Y267513D01*
X115202D01*
Y267439D01*
X114981D01*
Y267365D01*
X114760D01*
Y267291D01*
X114612D01*
Y267217D01*
X114316D01*
Y267144D01*
X114095D01*
Y267070D01*
X113800D01*
Y266996D01*
X113504D01*
Y266922D01*
X113135D01*
Y266848D01*
X112692D01*
Y266774D01*
X111954D01*
Y266700D01*
X109886D01*
Y266774D01*
X109148D01*
Y266848D01*
X108705D01*
Y266922D01*
X108335D01*
Y266996D01*
X108040D01*
Y267070D01*
X107745D01*
Y267144D01*
X107523D01*
Y267217D01*
X107302D01*
Y267291D01*
X107080D01*
Y267365D01*
X106932D01*
Y267439D01*
X106711D01*
Y267513D01*
X106563D01*
Y267586D01*
X106342D01*
Y267660D01*
X106194D01*
Y267734D01*
X106046D01*
Y267808D01*
X105899D01*
Y267882D01*
X105751D01*
Y267956D01*
X105603D01*
Y268029D01*
X105456D01*
Y268103D01*
X105308D01*
Y268177D01*
X105160D01*
Y268251D01*
X105087D01*
Y268325D01*
X104939D01*
Y268399D01*
X104791D01*
Y268473D01*
X104717D01*
Y268546D01*
X104643D01*
Y268620D01*
X104570D01*
Y268694D01*
X104496D01*
Y268768D01*
X104422D01*
Y268916D01*
X104348D01*
Y269137D01*
X104274D01*
Y269580D01*
X104348D01*
Y269876D01*
X104422D01*
Y269949D01*
X104496D01*
Y270023D01*
X104570D01*
Y270171D01*
X104643D01*
Y270245D01*
X104717D01*
Y270319D01*
X104865D01*
Y270392D01*
X105013D01*
Y270466D01*
X105160D01*
Y270540D01*
X105603D01*
Y270466D01*
X105825D01*
Y270392D01*
X105973D01*
Y270319D01*
X106120D01*
Y270245D01*
X106268D01*
Y270171D01*
X106416D01*
Y270097D01*
X106563D01*
Y270023D01*
X106785D01*
Y269949D01*
X106932D01*
Y269876D01*
X107080D01*
Y269802D01*
X107228D01*
Y269728D01*
X107449D01*
Y269654D01*
X107597D01*
Y269580D01*
X107819D01*
Y269506D01*
X108040D01*
Y269432D01*
X108262D01*
Y269359D01*
X108557D01*
Y269285D01*
X108779D01*
Y269211D01*
X109148D01*
Y269137D01*
X109517D01*
Y269063D01*
X110034D01*
Y268989D01*
X111880D01*
Y269063D01*
X112397D01*
Y269137D01*
X112766D01*
Y269211D01*
X113135D01*
Y269285D01*
X113356D01*
Y269359D01*
X113652D01*
Y269432D01*
X113873D01*
Y269506D01*
X114095D01*
Y269580D01*
X114316D01*
Y269654D01*
X114464D01*
Y269728D01*
X114612D01*
Y269802D01*
X114833D01*
Y269876D01*
X114981D01*
Y269949D01*
X115129D01*
Y270023D01*
X115276D01*
Y270097D01*
X115424D01*
Y270171D01*
X115572D01*
Y270245D01*
X115719D01*
Y270319D01*
X115941D01*
Y270392D01*
X116089D01*
Y270466D01*
X116384D01*
Y270540D01*
X116827D01*
Y270466D01*
D02*
G37*
G36*
X119042Y266184D02*
X119190D01*
Y266110D01*
X119338D01*
Y266036D01*
X119411D01*
Y265962D01*
X119485D01*
Y265888D01*
X119559D01*
Y265814D01*
X119633D01*
Y265667D01*
X119707D01*
Y265445D01*
X119781D01*
Y264781D01*
X119707D01*
Y264559D01*
X119633D01*
Y264485D01*
X119559D01*
Y264338D01*
X119485D01*
Y264264D01*
X119338D01*
Y264190D01*
X119264D01*
Y264116D01*
X119116D01*
Y264042D01*
X118968D01*
Y263968D01*
X118895D01*
Y263895D01*
X118747D01*
Y263821D01*
X118599D01*
Y263747D01*
X118451D01*
Y263673D01*
X118304D01*
Y263599D01*
X118156D01*
Y263525D01*
X118008D01*
Y263452D01*
X117787D01*
Y263378D01*
X117639D01*
Y263304D01*
X117492D01*
Y263230D01*
X117344D01*
Y263156D01*
X117122D01*
Y263082D01*
X116975D01*
Y263008D01*
X116827D01*
Y262935D01*
X116605D01*
Y262861D01*
X116458D01*
Y262787D01*
X116236D01*
Y262713D01*
X116015D01*
Y262639D01*
X115793D01*
Y262565D01*
X115498D01*
Y262492D01*
X115276D01*
Y262418D01*
X114981D01*
Y262344D01*
X114686D01*
Y262270D01*
X114316D01*
Y262196D01*
X113947D01*
Y262122D01*
X113578D01*
Y262049D01*
X112987D01*
Y261975D01*
X112323D01*
Y261901D01*
X109591D01*
Y261975D01*
X108926D01*
Y262049D01*
X108335D01*
Y262122D01*
X107966D01*
Y262196D01*
X107597D01*
Y262270D01*
X107228D01*
Y262344D01*
X106932D01*
Y262418D01*
X106637D01*
Y262492D01*
X106416D01*
Y262565D01*
X106120D01*
Y262639D01*
X105899D01*
Y262713D01*
X105677D01*
Y262787D01*
X105456D01*
Y262861D01*
X105234D01*
Y262935D01*
X105087D01*
Y263008D01*
X104865D01*
Y263082D01*
X104717D01*
Y263156D01*
X104496D01*
Y263230D01*
X104348D01*
Y263304D01*
X104127D01*
Y263378D01*
X103979D01*
Y263452D01*
X103831D01*
Y263525D01*
X103683D01*
Y263599D01*
X103536D01*
Y263673D01*
X103388D01*
Y263747D01*
X103241D01*
Y263821D01*
X103093D01*
Y263895D01*
X103019D01*
Y263968D01*
X102871D01*
Y264042D01*
X102797D01*
Y264116D01*
X102650D01*
Y264190D01*
X102576D01*
Y264264D01*
X102502D01*
Y264338D01*
X102428D01*
Y264411D01*
X102354D01*
Y264485D01*
X102281D01*
Y264633D01*
X102207D01*
Y264707D01*
X102133D01*
Y264928D01*
X102059D01*
Y265224D01*
X102133D01*
Y265519D01*
X102207D01*
Y265667D01*
X102281D01*
Y265814D01*
X102354D01*
Y265888D01*
X102428D01*
Y265962D01*
X102502D01*
Y266036D01*
X102650D01*
Y266110D01*
X102724D01*
Y266184D01*
X102945D01*
Y266257D01*
X103462D01*
Y266184D01*
X103683D01*
Y266110D01*
X103831D01*
Y266036D01*
X103979D01*
Y265962D01*
X104127D01*
Y265888D01*
X104274D01*
Y265814D01*
X104496D01*
Y265740D01*
X104643D01*
Y265667D01*
X104791D01*
Y265593D01*
X104939D01*
Y265519D01*
X105087D01*
Y265445D01*
X105234D01*
Y265371D01*
X105456D01*
Y265298D01*
X105603D01*
Y265224D01*
X105751D01*
Y265150D01*
X105973D01*
Y265076D01*
X106194D01*
Y265002D01*
X106342D01*
Y264928D01*
X106563D01*
Y264854D01*
X106785D01*
Y264781D01*
X107080D01*
Y264707D01*
X107302D01*
Y264633D01*
X107597D01*
Y264559D01*
X107892D01*
Y264485D01*
X108262D01*
Y264411D01*
X108705D01*
Y264338D01*
X109148D01*
Y264264D01*
X109812D01*
Y264190D01*
X111954D01*
Y264264D01*
X112692D01*
Y264338D01*
X113209D01*
Y264411D01*
X113652D01*
Y264485D01*
X114021D01*
Y264559D01*
X114316D01*
Y264633D01*
X114612D01*
Y264707D01*
X114907D01*
Y264781D01*
X115129D01*
Y264854D01*
X115350D01*
Y264928D01*
X115572D01*
Y265002D01*
X115793D01*
Y265076D01*
X115941D01*
Y265150D01*
X116162D01*
Y265224D01*
X116310D01*
Y265298D01*
X116532D01*
Y265371D01*
X116679D01*
Y265445D01*
X116827D01*
Y265519D01*
X116975D01*
Y265593D01*
X117122D01*
Y265667D01*
X117270D01*
Y265740D01*
X117492D01*
Y265814D01*
X117639D01*
Y265888D01*
X117787D01*
Y265962D01*
X117935D01*
Y266036D01*
X118082D01*
Y266110D01*
X118304D01*
Y266184D01*
X118525D01*
Y266257D01*
X119042D01*
Y266184D01*
D02*
G37*
G36*
X121110Y261975D02*
X121257D01*
Y261901D01*
X121405D01*
Y261827D01*
X121553D01*
Y261753D01*
X121627D01*
Y261679D01*
X121700D01*
Y261606D01*
X121774D01*
Y261532D01*
X121848D01*
Y261384D01*
X121922D01*
Y261236D01*
X121996D01*
Y260498D01*
X121922D01*
Y260276D01*
X121848D01*
Y260203D01*
X121774D01*
Y260129D01*
X121700D01*
Y260055D01*
X121627D01*
Y259981D01*
X121553D01*
Y259907D01*
X121405D01*
Y259833D01*
X121331D01*
Y259759D01*
X121184D01*
Y259686D01*
X121036D01*
Y259612D01*
X120888D01*
Y259538D01*
X120814D01*
Y259464D01*
X120667D01*
Y259390D01*
X120519D01*
Y259316D01*
X120371D01*
Y259243D01*
X120224D01*
Y259169D01*
X120002D01*
Y259095D01*
X119854D01*
Y259021D01*
X119707D01*
Y258947D01*
X119559D01*
Y258873D01*
X119411D01*
Y258800D01*
X119190D01*
Y258726D01*
X119042D01*
Y258652D01*
X118821D01*
Y258578D01*
X118673D01*
Y258504D01*
X118451D01*
Y258430D01*
X118230D01*
Y258356D01*
X118082D01*
Y258283D01*
X117861D01*
Y258209D01*
X117639D01*
Y258135D01*
X117418D01*
Y258061D01*
X117196D01*
Y257987D01*
X116901D01*
Y257913D01*
X116679D01*
Y257840D01*
X116384D01*
Y257766D01*
X116162D01*
Y257692D01*
X115793D01*
Y257618D01*
X115498D01*
Y257544D01*
X115129D01*
Y257470D01*
X114760D01*
Y257397D01*
X114316D01*
Y257323D01*
X113873D01*
Y257249D01*
X113209D01*
Y257175D01*
X112027D01*
Y257101D01*
X109369D01*
Y257175D01*
X108483D01*
Y257249D01*
X107966D01*
Y257323D01*
X107523D01*
Y257397D01*
X107080D01*
Y257470D01*
X106711D01*
Y257544D01*
X106416D01*
Y257618D01*
X106120D01*
Y257692D01*
X105751D01*
Y257766D01*
X105456D01*
Y257840D01*
X105234D01*
Y257913D01*
X104939D01*
Y257987D01*
X104717D01*
Y258061D01*
X104496D01*
Y258135D01*
X104274D01*
Y258209D01*
X104053D01*
Y258283D01*
X103831D01*
Y258356D01*
X103683D01*
Y258430D01*
X103462D01*
Y258504D01*
X103241D01*
Y258578D01*
X103093D01*
Y258652D01*
X102871D01*
Y258726D01*
X102724D01*
Y258800D01*
X102576D01*
Y258873D01*
X102354D01*
Y258947D01*
X102207D01*
Y259021D01*
X102059D01*
Y259095D01*
X101911D01*
Y259169D01*
X101764D01*
Y259243D01*
X101616D01*
Y259316D01*
X101468D01*
Y259390D01*
X101321D01*
Y259464D01*
X101173D01*
Y259538D01*
X101025D01*
Y259612D01*
X100878D01*
Y259686D01*
X100730D01*
Y259759D01*
X100656D01*
Y259833D01*
X100508D01*
Y259907D01*
X100435D01*
Y259981D01*
X100287D01*
Y260055D01*
X100213D01*
Y260129D01*
X100139D01*
Y260203D01*
X100065D01*
Y260276D01*
X99992D01*
Y260424D01*
X99918D01*
Y260793D01*
X99844D01*
Y261015D01*
X99918D01*
Y261310D01*
X99992D01*
Y261458D01*
X100065D01*
Y261532D01*
X100139D01*
Y261606D01*
X100213D01*
Y261679D01*
X100287D01*
Y261753D01*
X100361D01*
Y261827D01*
X100508D01*
Y261901D01*
X100656D01*
Y261975D01*
X100952D01*
Y262049D01*
X101025D01*
Y261975D01*
X101321D01*
Y261901D01*
X101542D01*
Y261827D01*
X101690D01*
Y261753D01*
X101838D01*
Y261679D01*
X101985D01*
Y261606D01*
X102133D01*
Y261532D01*
X102281D01*
Y261458D01*
X102428D01*
Y261384D01*
X102576D01*
Y261310D01*
X102724D01*
Y261236D01*
X102871D01*
Y261162D01*
X103019D01*
Y261089D01*
X103167D01*
Y261015D01*
X103388D01*
Y260941D01*
X103536D01*
Y260867D01*
X103683D01*
Y260793D01*
X103905D01*
Y260719D01*
X104053D01*
Y260646D01*
X104274D01*
Y260572D01*
X104422D01*
Y260498D01*
X104643D01*
Y260424D01*
X104865D01*
Y260350D01*
X105087D01*
Y260276D01*
X105308D01*
Y260203D01*
X105529D01*
Y260129D01*
X105825D01*
Y260055D01*
X106120D01*
Y259981D01*
X106342D01*
Y259907D01*
X106711D01*
Y259833D01*
X107080D01*
Y259759D01*
X107449D01*
Y259686D01*
X107819D01*
Y259612D01*
X108409D01*
Y259538D01*
X109148D01*
Y259464D01*
X112840D01*
Y259538D01*
X113504D01*
Y259612D01*
X114095D01*
Y259686D01*
X114464D01*
Y259759D01*
X114833D01*
Y259833D01*
X115202D01*
Y259907D01*
X115498D01*
Y259981D01*
X115793D01*
Y260055D01*
X116089D01*
Y260129D01*
X116310D01*
Y260203D01*
X116532D01*
Y260276D01*
X116827D01*
Y260350D01*
X116975D01*
Y260424D01*
X117196D01*
Y260498D01*
X117418D01*
Y260572D01*
X117639D01*
Y260646D01*
X117787D01*
Y260719D01*
X118008D01*
Y260793D01*
X118156D01*
Y260867D01*
X118304D01*
Y260941D01*
X118525D01*
Y261015D01*
X118673D01*
Y261089D01*
X118821D01*
Y261162D01*
X119042D01*
Y261236D01*
X119190D01*
Y261310D01*
X119338D01*
Y261384D01*
X119485D01*
Y261458D01*
X119633D01*
Y261532D01*
X119781D01*
Y261606D01*
X119928D01*
Y261679D01*
X120076D01*
Y261753D01*
X120224D01*
Y261827D01*
X120445D01*
Y261901D01*
X120593D01*
Y261975D01*
X120814D01*
Y262049D01*
X121110D01*
Y261975D01*
D02*
G37*
G36*
X120555Y172129D02*
X120588D01*
Y171963D01*
X120621D01*
Y171863D01*
X120654D01*
Y171797D01*
X120687D01*
Y171730D01*
X120721D01*
Y171664D01*
X120754D01*
Y171631D01*
X120787D01*
Y171598D01*
X120820D01*
Y171564D01*
X120853D01*
Y171531D01*
X120887D01*
Y171498D01*
X120920D01*
Y171465D01*
X120953D01*
Y171432D01*
X120986D01*
Y171398D01*
X121019D01*
Y171365D01*
X121086D01*
Y171332D01*
X121152D01*
Y171299D01*
X121219D01*
Y171266D01*
X121318D01*
Y171232D01*
X121484D01*
Y171199D01*
X121617D01*
Y170137D01*
X121285D01*
Y170170D01*
X121152D01*
Y170203D01*
X121019D01*
Y170236D01*
X120887D01*
Y170270D01*
X120820D01*
Y170303D01*
X120721D01*
Y170336D01*
X120687D01*
Y170369D01*
X120621D01*
Y170402D01*
X120555D01*
Y170436D01*
X120488D01*
Y170469D01*
X120455D01*
Y170502D01*
X120389D01*
Y170535D01*
X120355D01*
Y170568D01*
X120289D01*
Y170602D01*
X120256D01*
Y170635D01*
X120223D01*
Y170668D01*
X120189D01*
Y170701D01*
X120156D01*
Y170734D01*
X120123D01*
Y170768D01*
X120090D01*
Y170801D01*
X120057D01*
Y170834D01*
X120023D01*
Y170867D01*
X119990D01*
Y170900D01*
X119957D01*
Y170934D01*
X119924D01*
Y171000D01*
X119891D01*
Y171033D01*
X119857D01*
Y171100D01*
X119824D01*
Y171133D01*
X119791D01*
Y171199D01*
X119758D01*
Y171266D01*
X119725D01*
Y171332D01*
X119691D01*
Y171365D01*
X119658D01*
Y171465D01*
X119625D01*
Y171531D01*
Y171564D01*
X119592D01*
Y171664D01*
X119559D01*
Y171764D01*
X119525D01*
Y171963D01*
X119492D01*
Y172262D01*
X120555D01*
Y172129D01*
D02*
G37*
G36*
X117367Y171996D02*
X117400D01*
Y171631D01*
X117434D01*
Y171465D01*
X117467D01*
Y171299D01*
X117500D01*
Y171199D01*
X117533D01*
Y171066D01*
X117566D01*
Y170934D01*
X117600D01*
Y170834D01*
X117633D01*
Y170768D01*
X117666D01*
Y170668D01*
X117699D01*
Y170602D01*
X117732D01*
Y170535D01*
X117766D01*
Y170436D01*
X117799D01*
Y170402D01*
X117832D01*
Y170303D01*
X117865D01*
Y170236D01*
X117898D01*
Y170170D01*
X117932D01*
Y170137D01*
X117965D01*
Y170070D01*
X117998D01*
Y170037D01*
X118031D01*
Y169971D01*
X118064D01*
Y169938D01*
X118098D01*
Y169871D01*
X118131D01*
Y169805D01*
X118164D01*
Y169772D01*
X118197D01*
Y169738D01*
X118230D01*
Y169672D01*
X118264D01*
Y169639D01*
X118297D01*
Y169606D01*
X118330D01*
Y169572D01*
X118363D01*
Y169506D01*
X118396D01*
Y169473D01*
X118430D01*
Y169439D01*
X118463D01*
Y169406D01*
X118496D01*
Y169373D01*
X118529D01*
Y169340D01*
X118562D01*
Y169307D01*
X118596D01*
Y169273D01*
X118629D01*
Y169240D01*
X118662D01*
Y169207D01*
X118695D01*
Y169174D01*
X118728D01*
Y169141D01*
X118762D01*
Y169107D01*
X118795D01*
Y169074D01*
X118828D01*
Y169041D01*
X118861D01*
Y169008D01*
X118928D01*
Y168975D01*
X118961D01*
Y168941D01*
X118994D01*
Y168908D01*
X119027D01*
Y168875D01*
X119094D01*
Y168842D01*
X119127D01*
Y168809D01*
X119193D01*
Y168775D01*
X119227D01*
Y168742D01*
X119260D01*
Y168709D01*
X119326D01*
Y168676D01*
X119393D01*
Y168643D01*
X119426D01*
Y168609D01*
X119492D01*
Y168576D01*
X119525D01*
Y168543D01*
X119592D01*
Y168510D01*
X119691D01*
Y168477D01*
X119758D01*
Y168443D01*
X119824D01*
Y168410D01*
X119857D01*
Y168377D01*
X119957D01*
Y168344D01*
X120023D01*
Y168310D01*
X120123D01*
Y168277D01*
X120189D01*
Y168244D01*
X120289D01*
Y168211D01*
X120422D01*
Y168178D01*
X120555D01*
Y168145D01*
X120654D01*
Y168111D01*
X120820D01*
Y168078D01*
X120986D01*
Y168045D01*
X121352D01*
Y168012D01*
X121617D01*
Y166949D01*
X121152D01*
Y166982D01*
X120820D01*
Y167016D01*
X120654D01*
Y167049D01*
X120488D01*
Y167082D01*
X120355D01*
Y167115D01*
X120189D01*
Y167148D01*
X120090D01*
Y167182D01*
X119990D01*
Y167215D01*
X119891D01*
Y167248D01*
X119791D01*
Y167281D01*
X119691D01*
Y167315D01*
X119625D01*
Y167348D01*
X119559D01*
Y167381D01*
X119492D01*
Y167414D01*
X119393D01*
Y167447D01*
X119326D01*
Y167481D01*
X119260D01*
Y167514D01*
X119193D01*
Y167547D01*
X119127D01*
Y167580D01*
X119061D01*
Y167613D01*
X118994D01*
Y167647D01*
X118961D01*
Y167680D01*
X118895D01*
Y167713D01*
X118828D01*
Y167746D01*
X118762D01*
Y167779D01*
X118728D01*
Y167813D01*
X118695D01*
Y167846D01*
X118629D01*
Y167879D01*
X118562D01*
Y167912D01*
X118529D01*
Y167945D01*
X118496D01*
Y167979D01*
X118430D01*
Y168012D01*
X118396D01*
Y168045D01*
X118363D01*
Y168078D01*
X118297D01*
Y168111D01*
X118264D01*
Y168145D01*
X118230D01*
Y168178D01*
X118197D01*
Y168211D01*
X118164D01*
Y168244D01*
X118098D01*
Y168277D01*
X118064D01*
Y168310D01*
X118031D01*
Y168344D01*
X117998D01*
Y168377D01*
X117965D01*
Y168410D01*
X117932D01*
Y168443D01*
X117898D01*
Y168477D01*
X117865D01*
Y168510D01*
X117832D01*
Y168543D01*
X117799D01*
Y168576D01*
X117766D01*
Y168609D01*
X117732D01*
Y168643D01*
X117699D01*
Y168676D01*
X117666D01*
Y168709D01*
X117633D01*
Y168742D01*
X117600D01*
Y168809D01*
X117566D01*
Y168842D01*
X117533D01*
Y168875D01*
X117500D01*
Y168908D01*
X117467D01*
Y168975D01*
X117434D01*
Y169008D01*
X117400D01*
Y169041D01*
X117367D01*
Y169074D01*
X117334D01*
Y169141D01*
X117301D01*
Y169174D01*
X117268D01*
Y169207D01*
X117234D01*
Y169273D01*
X117201D01*
Y169340D01*
X117168D01*
Y169373D01*
X117135D01*
Y169406D01*
X117102D01*
Y169473D01*
X117068D01*
Y169539D01*
X117035D01*
Y169606D01*
X117002D01*
Y169639D01*
X116969D01*
Y169705D01*
X116936D01*
Y169772D01*
X116902D01*
Y169838D01*
X116869D01*
Y169904D01*
X116836D01*
Y169971D01*
X116803D01*
Y170037D01*
X116770D01*
Y170137D01*
X116736D01*
Y170203D01*
X116703D01*
Y170236D01*
X116670D01*
Y170336D01*
X116637D01*
Y170436D01*
X116604D01*
Y170535D01*
X116570D01*
Y170635D01*
X116537D01*
Y170734D01*
X116504D01*
Y170867D01*
X116471D01*
Y171000D01*
X116437D01*
Y171133D01*
X116404D01*
Y171299D01*
X116371D01*
Y171498D01*
X116338D01*
Y171730D01*
X116305D01*
Y172262D01*
X117367D01*
Y171996D01*
D02*
G37*
G36*
X117500Y180728D02*
X118031D01*
Y180695D01*
X118330D01*
Y180662D01*
X118596D01*
Y180629D01*
X118828D01*
Y180596D01*
X119027D01*
Y180562D01*
X119227D01*
Y180529D01*
X119393D01*
Y180496D01*
X119559D01*
Y180463D01*
X119725D01*
Y180430D01*
X119891D01*
Y180396D01*
X120023D01*
Y180363D01*
X120123D01*
Y180330D01*
X120256D01*
Y180297D01*
X120389D01*
Y180264D01*
X120488D01*
Y180230D01*
X120621D01*
Y180197D01*
X120721D01*
Y180164D01*
X120820D01*
Y180131D01*
X120920D01*
Y180098D01*
X121019D01*
Y180064D01*
X121119D01*
Y180031D01*
X121219D01*
Y179998D01*
X121318D01*
Y179965D01*
X121418D01*
Y179932D01*
X121518D01*
Y179898D01*
X121617D01*
Y179865D01*
X121684D01*
Y179832D01*
X121750D01*
Y179799D01*
X121816D01*
Y179766D01*
X121916D01*
Y179732D01*
X121982D01*
Y179699D01*
X122082D01*
Y179666D01*
X122148D01*
Y179633D01*
X122215D01*
Y179600D01*
X122281D01*
Y179566D01*
X122381D01*
Y179533D01*
X122447D01*
Y179500D01*
X122514D01*
Y179467D01*
X122580D01*
Y179434D01*
X122680D01*
Y179400D01*
X122746D01*
Y179367D01*
X122779D01*
Y179334D01*
X122846D01*
Y179301D01*
X122912D01*
Y179268D01*
X122978D01*
Y179234D01*
X123045D01*
Y179201D01*
X123111D01*
Y179168D01*
X123178D01*
Y179135D01*
X123244D01*
Y179102D01*
X123310D01*
Y179068D01*
X123344D01*
Y179035D01*
X123410D01*
Y179002D01*
X123477D01*
Y178969D01*
X123510D01*
Y178936D01*
X123576D01*
Y178902D01*
X123643D01*
Y178869D01*
X123676D01*
Y178836D01*
X123742D01*
Y178803D01*
X123809D01*
Y178770D01*
X123842D01*
Y178736D01*
X123908D01*
Y178703D01*
X123975D01*
Y178670D01*
X124008D01*
Y178637D01*
X124074D01*
Y178603D01*
X124107D01*
Y178570D01*
X124174D01*
Y178537D01*
X124207D01*
Y178504D01*
X124273D01*
Y178471D01*
X124307D01*
Y178437D01*
X124373D01*
Y178404D01*
X124406D01*
Y178371D01*
X124473D01*
Y178338D01*
X124506D01*
Y178305D01*
X124539D01*
Y178271D01*
X124606D01*
Y178238D01*
X124639D01*
Y178205D01*
X124705D01*
Y178172D01*
X124738D01*
Y178139D01*
X124771D01*
Y178105D01*
X124838D01*
Y178072D01*
X124871D01*
Y178039D01*
X124904D01*
Y178006D01*
X124937D01*
Y177973D01*
X125004D01*
Y177939D01*
X125037D01*
Y177906D01*
X125070D01*
Y177873D01*
X125137D01*
Y177840D01*
X125170D01*
Y177807D01*
X125203D01*
Y177773D01*
X125236D01*
Y177740D01*
X125303D01*
Y177707D01*
X125336D01*
Y177674D01*
X125369D01*
Y177641D01*
X125402D01*
Y177607D01*
X125435D01*
Y177574D01*
X125469D01*
Y177541D01*
X125535D01*
Y177508D01*
X125568D01*
Y177475D01*
X125602D01*
Y177441D01*
X125635D01*
Y177408D01*
X125668D01*
Y177375D01*
X125701D01*
Y177342D01*
X125734D01*
Y177309D01*
X125801D01*
Y177275D01*
X125834D01*
Y177242D01*
X125867D01*
Y177209D01*
X125900D01*
Y177176D01*
X125934D01*
Y177143D01*
X125967D01*
Y177109D01*
X126000D01*
Y177076D01*
X126033D01*
Y177043D01*
X126066D01*
Y177010D01*
X126100D01*
Y176977D01*
X126133D01*
Y176943D01*
X126166D01*
Y176910D01*
X126199D01*
Y176877D01*
X126232D01*
Y176844D01*
X126266D01*
Y176811D01*
X126299D01*
Y176777D01*
X126332D01*
Y176744D01*
X126365D01*
Y176711D01*
X126398D01*
Y176678D01*
X126432D01*
Y176645D01*
X126465D01*
Y176611D01*
X126498D01*
Y176578D01*
X126531D01*
Y176545D01*
X126565D01*
Y176512D01*
X126598D01*
Y176479D01*
X126631D01*
Y176445D01*
X126664D01*
Y176379D01*
X126697D01*
Y176346D01*
X126731D01*
Y176312D01*
X126764D01*
Y176279D01*
X126797D01*
Y176246D01*
X126830D01*
Y176213D01*
X126863D01*
Y176180D01*
X126897D01*
Y176113D01*
X126930D01*
Y176080D01*
X126963D01*
Y176047D01*
X126996D01*
Y176014D01*
X127029D01*
Y175980D01*
X127062D01*
Y175914D01*
X127096D01*
Y175881D01*
X127129D01*
Y175848D01*
X127162D01*
Y175814D01*
X127195D01*
Y175748D01*
X127228D01*
Y175715D01*
X127262D01*
Y175682D01*
X127295D01*
Y175648D01*
X127328D01*
Y175615D01*
X127361D01*
Y175549D01*
X127394D01*
Y175516D01*
X127428D01*
Y175482D01*
X127461D01*
Y175416D01*
X127494D01*
Y175383D01*
X127527D01*
Y175350D01*
X127560D01*
Y175283D01*
X127594D01*
Y175250D01*
X127627D01*
Y175184D01*
X127660D01*
Y175150D01*
X127693D01*
Y175117D01*
X127727D01*
Y175051D01*
X127760D01*
Y175018D01*
X127793D01*
Y174951D01*
X127826D01*
Y174918D01*
X127859D01*
Y174852D01*
X127893D01*
Y174818D01*
X127926D01*
Y174752D01*
X127959D01*
Y174719D01*
X127992D01*
Y174652D01*
X128025D01*
Y174586D01*
X128059D01*
Y174553D01*
X128092D01*
Y174486D01*
X128125D01*
Y174453D01*
X128158D01*
Y174387D01*
X128191D01*
Y174354D01*
X128225D01*
Y174287D01*
X128258D01*
Y174221D01*
X128291D01*
Y174154D01*
X128324D01*
Y174121D01*
X128357D01*
Y174055D01*
X128391D01*
Y173988D01*
X128424D01*
Y173955D01*
X128457D01*
Y173889D01*
X128490D01*
Y173822D01*
X128523D01*
Y173756D01*
X128557D01*
Y173689D01*
X128590D01*
Y173623D01*
X128623D01*
Y173557D01*
X128656D01*
Y173490D01*
X128690D01*
Y173424D01*
X128723D01*
Y173391D01*
X128756D01*
Y173324D01*
X128789D01*
Y173225D01*
X128822D01*
Y173158D01*
X128856D01*
Y173092D01*
X128889D01*
Y172992D01*
X128922D01*
Y172959D01*
X128955D01*
Y172859D01*
X128988D01*
Y172793D01*
X129022D01*
Y172727D01*
X129055D01*
Y172660D01*
X129088D01*
Y172561D01*
X129121D01*
Y172461D01*
X129154D01*
Y172395D01*
X129188D01*
Y172328D01*
X129221D01*
Y172229D01*
X129254D01*
Y172162D01*
X129287D01*
Y172063D01*
X129320D01*
Y171963D01*
X129353D01*
Y171863D01*
X129387D01*
Y171764D01*
X129420D01*
Y171664D01*
X129453D01*
Y171564D01*
X129486D01*
Y171465D01*
X129519D01*
Y171365D01*
X129553D01*
Y171266D01*
X129586D01*
Y171133D01*
X129619D01*
Y171000D01*
X129652D01*
Y170934D01*
X129685D01*
Y170768D01*
X129719D01*
Y170668D01*
X129752D01*
Y170502D01*
X129785D01*
Y170369D01*
X129818D01*
Y170203D01*
X129852D01*
Y170037D01*
X129885D01*
Y169871D01*
X129918D01*
Y169705D01*
X129951D01*
Y169473D01*
X129984D01*
Y169240D01*
X130018D01*
Y168975D01*
X130051D01*
Y168676D01*
X130084D01*
Y168145D01*
X130117D01*
Y167215D01*
X130084D01*
Y167115D01*
X130051D01*
Y167016D01*
X130018D01*
Y166916D01*
X129984D01*
Y166850D01*
X129951D01*
Y166750D01*
X129918D01*
Y166684D01*
X129885D01*
Y166617D01*
X129852D01*
Y166584D01*
X129818D01*
Y166551D01*
X129785D01*
Y166518D01*
X129752D01*
Y166484D01*
X129719D01*
Y166451D01*
X129685D01*
Y166418D01*
X129652D01*
Y166385D01*
X129619D01*
Y166352D01*
X129586D01*
Y166318D01*
X129553D01*
Y166285D01*
X129519D01*
Y166252D01*
X129486D01*
Y166219D01*
X129453D01*
Y166185D01*
X129420D01*
Y166152D01*
X129387D01*
Y166119D01*
X129353D01*
Y166086D01*
X129320D01*
Y166053D01*
X129287D01*
Y166019D01*
X129254D01*
Y165986D01*
X129221D01*
Y165953D01*
X129188D01*
Y165920D01*
X129154D01*
Y165887D01*
X129121D01*
Y165854D01*
X129088D01*
Y165820D01*
X129055D01*
Y165787D01*
X129022D01*
Y165754D01*
X128988D01*
Y165721D01*
X128955D01*
Y165688D01*
X128922D01*
Y165654D01*
X128889D01*
Y165621D01*
X128856D01*
Y165588D01*
X128822D01*
Y165555D01*
X128789D01*
Y165522D01*
X128756D01*
Y165488D01*
X128723D01*
Y165455D01*
X128690D01*
Y165422D01*
X128656D01*
Y165389D01*
X128623D01*
Y165356D01*
X128590D01*
Y165322D01*
X128557D01*
Y165289D01*
X128523D01*
Y165256D01*
X128457D01*
Y165223D01*
X128424D01*
Y165190D01*
X128357D01*
Y165156D01*
X128291D01*
Y165123D01*
X128225D01*
Y165090D01*
X128158D01*
Y165057D01*
X128059D01*
Y165023D01*
X127992D01*
Y164990D01*
X127859D01*
Y164957D01*
X127660D01*
Y164924D01*
X127096D01*
Y164957D01*
X126930D01*
Y164990D01*
X126830D01*
Y165023D01*
X126731D01*
Y165057D01*
X126631D01*
Y165090D01*
X126565D01*
Y165123D01*
X126465D01*
Y165156D01*
X126432D01*
Y165190D01*
X126365D01*
Y165223D01*
X126299D01*
Y165256D01*
X126266D01*
Y165289D01*
X126199D01*
Y165322D01*
X126166D01*
Y165356D01*
X126133D01*
Y165389D01*
X126066D01*
Y165422D01*
X126033D01*
Y165455D01*
X126000D01*
Y165488D01*
X125967D01*
Y165522D01*
X125934D01*
Y165555D01*
X125900D01*
Y165588D01*
X125867D01*
Y165621D01*
X125834D01*
Y165654D01*
X125801D01*
Y165688D01*
X125768D01*
Y165721D01*
X125734D01*
Y165787D01*
X125701D01*
Y165820D01*
X125668D01*
Y165854D01*
X125635D01*
Y165920D01*
X125602D01*
Y165953D01*
X125568D01*
Y166019D01*
X125535D01*
Y166086D01*
X125502D01*
Y166152D01*
X125469D01*
Y166219D01*
X125435D01*
Y166285D01*
X125402D01*
Y166352D01*
X125369D01*
Y166484D01*
X125336D01*
Y166617D01*
X125303D01*
Y166750D01*
X125269D01*
Y166850D01*
X125236D01*
Y166949D01*
X125203D01*
Y167115D01*
X125170D01*
Y167215D01*
X125137D01*
Y167348D01*
X125103D01*
Y167481D01*
X125070D01*
Y167580D01*
X125037D01*
Y167713D01*
X125004D01*
Y167846D01*
X124971D01*
Y167945D01*
X124937D01*
Y168078D01*
X124904D01*
Y168211D01*
X124871D01*
Y168310D01*
X124838D01*
Y168443D01*
X124805D01*
Y168543D01*
X124771D01*
Y169340D01*
X124805D01*
Y169473D01*
X124838D01*
Y169606D01*
X124871D01*
Y169672D01*
X124904D01*
Y169772D01*
X124937D01*
Y169838D01*
X124971D01*
Y169904D01*
X125004D01*
Y169971D01*
X125037D01*
Y170004D01*
X125070D01*
Y170070D01*
X125103D01*
Y170137D01*
X125137D01*
Y170170D01*
X125170D01*
Y170203D01*
X125203D01*
Y170236D01*
X125236D01*
Y170270D01*
X125269D01*
Y170303D01*
X125303D01*
Y170336D01*
X125336D01*
Y170369D01*
X125369D01*
Y170402D01*
X125402D01*
Y170436D01*
X125435D01*
Y170469D01*
X125469D01*
Y170502D01*
X125502D01*
Y170535D01*
X125535D01*
Y170568D01*
X125568D01*
Y170602D01*
X125602D01*
Y170635D01*
X125635D01*
Y170668D01*
X125668D01*
Y170701D01*
X125701D01*
Y170734D01*
X125734D01*
Y170768D01*
X125768D01*
Y170801D01*
X125801D01*
Y170834D01*
X125834D01*
Y170867D01*
X125867D01*
Y170900D01*
X125900D01*
Y170934D01*
X125934D01*
Y170967D01*
X125967D01*
Y171000D01*
X126000D01*
Y171199D01*
X125967D01*
Y171299D01*
X125934D01*
Y171398D01*
X125900D01*
Y171498D01*
X125867D01*
Y171598D01*
X125834D01*
Y171697D01*
X125801D01*
Y171797D01*
X125768D01*
Y171863D01*
X125734D01*
Y171963D01*
X125701D01*
Y172029D01*
X125668D01*
Y172096D01*
X125635D01*
Y172195D01*
X125602D01*
Y172262D01*
X125568D01*
Y172328D01*
X125535D01*
Y172395D01*
X125502D01*
Y172461D01*
X125469D01*
Y172527D01*
X125435D01*
Y172594D01*
X125402D01*
Y172660D01*
X125369D01*
Y172727D01*
X125336D01*
Y172793D01*
X125303D01*
Y172859D01*
X125269D01*
Y172926D01*
X125236D01*
Y172959D01*
X125203D01*
Y173025D01*
X125170D01*
Y173092D01*
X125137D01*
Y173125D01*
X125103D01*
Y173191D01*
X125070D01*
Y173225D01*
X125037D01*
Y173291D01*
X125004D01*
Y173324D01*
X124971D01*
Y173391D01*
X124937D01*
Y173457D01*
X124904D01*
Y173490D01*
X124871D01*
Y173523D01*
X124838D01*
Y173590D01*
X124805D01*
Y173623D01*
X124771D01*
Y173689D01*
X124738D01*
Y173723D01*
X124705D01*
Y173756D01*
X124672D01*
Y173822D01*
X124639D01*
Y173855D01*
X124606D01*
Y173889D01*
X124572D01*
Y173922D01*
X124539D01*
Y173988D01*
X124506D01*
Y174021D01*
X124473D01*
Y174055D01*
X124440D01*
Y174088D01*
X124406D01*
Y174154D01*
X124373D01*
Y174188D01*
X124340D01*
Y174221D01*
X124307D01*
Y174254D01*
X124273D01*
Y174287D01*
X124240D01*
Y174320D01*
X124207D01*
Y174354D01*
X124174D01*
Y174387D01*
X124141D01*
Y174453D01*
X124107D01*
Y174486D01*
X124074D01*
Y174520D01*
X124041D01*
Y174553D01*
X124008D01*
Y174586D01*
X123975D01*
Y174619D01*
X123941D01*
Y174652D01*
X123908D01*
Y174686D01*
X123875D01*
Y174719D01*
X123842D01*
Y174752D01*
X123809D01*
Y174785D01*
X123742D01*
Y174818D01*
X123709D01*
Y174852D01*
X123676D01*
Y174885D01*
X123643D01*
Y174918D01*
X123609D01*
Y174951D01*
X123576D01*
Y174984D01*
X123543D01*
Y175018D01*
X123510D01*
Y175051D01*
X123443D01*
Y175084D01*
X123410D01*
Y175117D01*
X123377D01*
Y175150D01*
X123344D01*
Y175184D01*
X123277D01*
Y175217D01*
X123244D01*
Y175250D01*
X123211D01*
Y175283D01*
X123178D01*
Y175316D01*
X123111D01*
Y175350D01*
X123078D01*
Y175383D01*
X123045D01*
Y175416D01*
X122978D01*
Y175449D01*
X122945D01*
Y175482D01*
X122879D01*
Y175516D01*
X122846D01*
Y175549D01*
X122812D01*
Y175582D01*
X122746D01*
Y175615D01*
X122713D01*
Y175648D01*
X122646D01*
Y175682D01*
X122613D01*
Y175715D01*
X122547D01*
Y175748D01*
X122480D01*
Y175781D01*
X122447D01*
Y175814D01*
X122381D01*
Y175848D01*
X122315D01*
Y175881D01*
X122281D01*
Y175914D01*
X122215D01*
Y175947D01*
X122148D01*
Y175980D01*
X122082D01*
Y176014D01*
X122016D01*
Y176047D01*
X121949D01*
Y176080D01*
X121883D01*
Y176113D01*
X121850D01*
Y176146D01*
X121783D01*
Y176180D01*
X121684D01*
Y176213D01*
X121617D01*
Y176246D01*
X121551D01*
Y176279D01*
X121484D01*
Y176312D01*
X121385D01*
Y176346D01*
X121318D01*
Y176379D01*
X121252D01*
Y176412D01*
X121152D01*
Y176445D01*
X121053D01*
Y176479D01*
X120953D01*
Y176512D01*
X120853D01*
Y176545D01*
X120754D01*
Y176578D01*
X120654D01*
Y176611D01*
X120555D01*
Y176645D01*
X120355D01*
Y176611D01*
X120322D01*
Y176578D01*
X120289D01*
Y176545D01*
X120256D01*
Y176512D01*
X120223D01*
Y176479D01*
X120189D01*
Y176445D01*
X120156D01*
Y176412D01*
X120123D01*
Y176346D01*
X120057D01*
Y176312D01*
X120023D01*
Y176246D01*
X119957D01*
Y176213D01*
X119924D01*
Y176180D01*
X119891D01*
Y176146D01*
X119857D01*
Y176113D01*
X119824D01*
Y176080D01*
X119791D01*
Y176047D01*
X119758D01*
Y176014D01*
X119725D01*
Y175980D01*
X119691D01*
Y175947D01*
X119658D01*
Y175914D01*
X119625D01*
Y175881D01*
X119592D01*
Y175848D01*
X119559D01*
Y175814D01*
X119525D01*
Y175781D01*
X119492D01*
Y175748D01*
X119426D01*
Y175715D01*
X119359D01*
Y175682D01*
X119293D01*
Y175648D01*
X119227D01*
Y175615D01*
X119160D01*
Y175582D01*
X119094D01*
Y175549D01*
X119027D01*
Y175516D01*
X118928D01*
Y175482D01*
X118795D01*
Y175449D01*
X118629D01*
Y175416D01*
X117932D01*
Y175449D01*
X117799D01*
Y175482D01*
X117699D01*
Y175516D01*
X117566D01*
Y175549D01*
X117434D01*
Y175582D01*
X117334D01*
Y175615D01*
X117201D01*
Y175648D01*
X117068D01*
Y175682D01*
X116969D01*
Y175715D01*
X116836D01*
Y175748D01*
X116703D01*
Y175781D01*
X116570D01*
Y175814D01*
X116471D01*
Y175848D01*
X116305D01*
Y175881D01*
X116238D01*
Y175914D01*
X116105D01*
Y175947D01*
X115973D01*
Y175980D01*
X115873D01*
Y176014D01*
X115773D01*
Y176047D01*
X115641D01*
Y176080D01*
X115574D01*
Y176113D01*
X115508D01*
Y176146D01*
X115441D01*
Y176180D01*
X115375D01*
Y176213D01*
X115309D01*
Y176246D01*
X115275D01*
Y176279D01*
X115209D01*
Y176312D01*
X115176D01*
Y176346D01*
X115143D01*
Y176379D01*
X115076D01*
Y176412D01*
X115043D01*
Y176445D01*
X115010D01*
Y176479D01*
X114977D01*
Y176512D01*
X114943D01*
Y176545D01*
X114910D01*
Y176578D01*
X114877D01*
Y176611D01*
X114844D01*
Y176645D01*
X114811D01*
Y176678D01*
X114777D01*
Y176711D01*
X114744D01*
Y176777D01*
X114711D01*
Y176811D01*
X114678D01*
Y176844D01*
X114645D01*
Y176910D01*
X114611D01*
Y176943D01*
X114578D01*
Y177010D01*
X114545D01*
Y177043D01*
X114512D01*
Y177109D01*
X114479D01*
Y177176D01*
X114445D01*
Y177275D01*
X114412D01*
Y177375D01*
X114379D01*
Y177475D01*
X114346D01*
Y177574D01*
X114313D01*
Y177607D01*
Y177641D01*
Y177707D01*
X114279D01*
Y178371D01*
X114313D01*
Y178504D01*
X114346D01*
Y178637D01*
X114379D01*
Y178736D01*
X114412D01*
Y178803D01*
X114445D01*
Y178902D01*
X114479D01*
Y178969D01*
X114512D01*
Y179002D01*
X114545D01*
Y179068D01*
X114578D01*
Y179102D01*
X114611D01*
Y179168D01*
X114645D01*
Y179201D01*
X114678D01*
Y179234D01*
X114711D01*
Y179268D01*
X114744D01*
Y179301D01*
X114777D01*
Y179334D01*
X114811D01*
Y179367D01*
X114844D01*
Y179400D01*
X114877D01*
Y179434D01*
X114910D01*
Y179467D01*
X114943D01*
Y179500D01*
X114977D01*
Y179533D01*
X115010D01*
Y179566D01*
X115043D01*
Y179600D01*
X115076D01*
Y179633D01*
X115109D01*
Y179666D01*
X115143D01*
Y179699D01*
X115176D01*
Y179732D01*
X115209D01*
Y179766D01*
X115242D01*
Y179799D01*
X115275D01*
Y179832D01*
X115309D01*
Y179865D01*
X115342D01*
Y179898D01*
X115375D01*
Y179932D01*
X115408D01*
Y179965D01*
X115441D01*
Y179998D01*
X115475D01*
Y180031D01*
X115508D01*
Y180064D01*
X115541D01*
Y180098D01*
X115574D01*
Y180131D01*
X115607D01*
Y180164D01*
X115641D01*
Y180197D01*
X115674D01*
Y180230D01*
X115707D01*
Y180264D01*
X115740D01*
Y180297D01*
X115773D01*
Y180330D01*
X115807D01*
Y180363D01*
X115840D01*
Y180396D01*
X115873D01*
Y180430D01*
X115906D01*
Y180463D01*
X115939D01*
Y180496D01*
X115973D01*
Y180529D01*
X116039D01*
Y180562D01*
X116105D01*
Y180596D01*
X116172D01*
Y180629D01*
X116271D01*
Y180662D01*
X116371D01*
Y180695D01*
X116471D01*
Y180728D01*
X116604D01*
Y180762D01*
X117500D01*
Y180728D01*
D02*
G37*
G36*
X114180Y171897D02*
X114213D01*
Y171465D01*
X114246D01*
Y171199D01*
X114279D01*
Y170967D01*
X114313D01*
Y170801D01*
X114346D01*
Y170668D01*
X114379D01*
Y170502D01*
X114412D01*
Y170369D01*
X114445D01*
Y170236D01*
X114479D01*
Y170137D01*
X114512D01*
Y170037D01*
X114545D01*
Y169938D01*
X114578D01*
Y169805D01*
X114611D01*
Y169738D01*
X114645D01*
Y169639D01*
X114678D01*
Y169572D01*
X114711D01*
Y169473D01*
X114744D01*
Y169406D01*
X114777D01*
Y169340D01*
X114811D01*
Y169240D01*
X114844D01*
Y169174D01*
X114877D01*
Y169074D01*
X114910D01*
Y169041D01*
X114943D01*
Y168975D01*
X114977D01*
Y168875D01*
X115010D01*
Y168842D01*
X115043D01*
Y168775D01*
X115076D01*
Y168709D01*
X115109D01*
Y168643D01*
X115143D01*
Y168576D01*
X115176D01*
Y168543D01*
X115209D01*
Y168477D01*
X115242D01*
Y168410D01*
X115275D01*
Y168377D01*
X115309D01*
Y168310D01*
X115342D01*
Y168277D01*
X115375D01*
Y168211D01*
X115408D01*
Y168145D01*
X115441D01*
Y168111D01*
X115475D01*
Y168078D01*
X115508D01*
Y168012D01*
X115541D01*
Y167979D01*
X115574D01*
Y167912D01*
X115607D01*
Y167879D01*
X115641D01*
Y167813D01*
X115674D01*
Y167779D01*
X115707D01*
Y167746D01*
X115740D01*
Y167713D01*
X115773D01*
Y167647D01*
X115807D01*
Y167613D01*
X115840D01*
Y167580D01*
X115873D01*
Y167547D01*
X115906D01*
Y167481D01*
X115939D01*
Y167447D01*
X115973D01*
Y167414D01*
X116006D01*
Y167381D01*
X116039D01*
Y167348D01*
X116072D01*
Y167315D01*
X116105D01*
Y167248D01*
X116139D01*
Y167215D01*
X116172D01*
Y167182D01*
X116205D01*
Y167148D01*
X116238D01*
Y167115D01*
X116271D01*
Y167082D01*
X116305D01*
Y167049D01*
X116338D01*
Y167016D01*
X116371D01*
Y166982D01*
X116404D01*
Y166949D01*
X116437D01*
Y166916D01*
X116471D01*
Y166883D01*
X116504D01*
Y166850D01*
X116537D01*
Y166816D01*
X116570D01*
Y166783D01*
X116637D01*
Y166750D01*
X116670D01*
Y166717D01*
X116703D01*
Y166684D01*
X116736D01*
Y166650D01*
X116770D01*
Y166617D01*
X116803D01*
Y166584D01*
X116836D01*
Y166551D01*
X116902D01*
Y166518D01*
X116936D01*
Y166484D01*
X116969D01*
Y166451D01*
X117002D01*
Y166418D01*
X117068D01*
Y166385D01*
X117102D01*
Y166352D01*
X117135D01*
Y166318D01*
X117168D01*
Y166285D01*
X117234D01*
Y166252D01*
X117268D01*
Y166219D01*
X117334D01*
Y166185D01*
X117367D01*
Y166152D01*
X117434D01*
Y166119D01*
X117467D01*
Y166086D01*
X117500D01*
Y166053D01*
X117566D01*
Y166019D01*
X117633D01*
Y165986D01*
X117666D01*
Y165953D01*
X117699D01*
Y165920D01*
X117766D01*
Y165887D01*
X117832D01*
Y165854D01*
X117898D01*
Y165820D01*
X117932D01*
Y165787D01*
X117998D01*
Y165754D01*
X118064D01*
Y165721D01*
X118131D01*
Y165688D01*
X118197D01*
Y165654D01*
X118230D01*
Y165621D01*
X118297D01*
Y165588D01*
X118363D01*
Y165555D01*
X118463D01*
Y165522D01*
X118529D01*
Y165488D01*
X118596D01*
Y165455D01*
X118662D01*
Y165422D01*
X118762D01*
Y165389D01*
X118828D01*
Y165356D01*
X118928D01*
Y165322D01*
X118994D01*
Y165289D01*
X119094D01*
Y165256D01*
X119193D01*
Y165223D01*
X119293D01*
Y165190D01*
X119393D01*
Y165156D01*
X119492D01*
Y165123D01*
X119625D01*
Y165090D01*
X119725D01*
Y165057D01*
X119857D01*
Y165023D01*
X120023D01*
Y164990D01*
X120156D01*
Y164957D01*
X120355D01*
Y164924D01*
X120555D01*
Y164891D01*
X120820D01*
Y164857D01*
X121252D01*
Y164824D01*
X121617D01*
Y163762D01*
X121086D01*
Y163795D01*
X120654D01*
Y163828D01*
X120389D01*
Y163861D01*
X120156D01*
Y163894D01*
X120023D01*
Y163928D01*
X119824D01*
Y163961D01*
X119691D01*
Y163994D01*
X119525D01*
Y164027D01*
X119426D01*
Y164060D01*
X119293D01*
Y164094D01*
X119193D01*
Y164127D01*
X119061D01*
Y164160D01*
X118961D01*
Y164193D01*
X118861D01*
Y164227D01*
X118762D01*
Y164260D01*
X118695D01*
Y164293D01*
X118596D01*
Y164326D01*
X118496D01*
Y164359D01*
X118430D01*
Y164393D01*
X118330D01*
Y164426D01*
X118264D01*
Y164459D01*
X118164D01*
Y164492D01*
X118098D01*
Y164525D01*
X118031D01*
Y164559D01*
X117965D01*
Y164592D01*
X117898D01*
Y164625D01*
X117832D01*
Y164658D01*
X117766D01*
Y164691D01*
X117699D01*
Y164725D01*
X117633D01*
Y164758D01*
X117566D01*
Y164791D01*
X117500D01*
Y164824D01*
X117467D01*
Y164857D01*
X117400D01*
Y164891D01*
X117334D01*
Y164924D01*
X117268D01*
Y164957D01*
X117234D01*
Y164990D01*
X117168D01*
Y165023D01*
X117135D01*
Y165057D01*
X117068D01*
Y165090D01*
X117035D01*
Y165123D01*
X116969D01*
Y165156D01*
X116936D01*
Y165190D01*
X116869D01*
Y165223D01*
X116803D01*
Y165256D01*
X116770D01*
Y165289D01*
X116703D01*
Y165322D01*
X116670D01*
Y165356D01*
X116637D01*
Y165389D01*
X116570D01*
Y165422D01*
X116537D01*
Y165455D01*
X116504D01*
Y165488D01*
X116437D01*
Y165522D01*
X116404D01*
Y165555D01*
X116371D01*
Y165588D01*
X116305D01*
Y165621D01*
X116271D01*
Y165654D01*
X116238D01*
Y165688D01*
X116205D01*
Y165721D01*
X116172D01*
Y165754D01*
X116105D01*
Y165787D01*
X116072D01*
Y165820D01*
X116039D01*
Y165854D01*
X116006D01*
Y165887D01*
X115973D01*
Y165920D01*
X115939D01*
Y165953D01*
X115906D01*
Y165986D01*
X115873D01*
Y166019D01*
X115807D01*
Y166053D01*
X115773D01*
Y166119D01*
X115740D01*
Y166152D01*
X115674D01*
Y166185D01*
X115641D01*
Y166219D01*
X115607D01*
Y166252D01*
X115574D01*
Y166285D01*
X115541D01*
Y166318D01*
X115508D01*
Y166385D01*
X115475D01*
Y166418D01*
X115408D01*
Y166451D01*
X115375D01*
Y166518D01*
X115342D01*
Y166551D01*
X115309D01*
Y166584D01*
X115275D01*
Y166617D01*
X115242D01*
Y166650D01*
X115209D01*
Y166684D01*
X115176D01*
Y166717D01*
X115143D01*
Y166750D01*
X115109D01*
Y166816D01*
X115076D01*
Y166850D01*
X115043D01*
Y166883D01*
X115010D01*
Y166916D01*
X114977D01*
Y166982D01*
X114943D01*
Y167016D01*
X114910D01*
Y167049D01*
X114877D01*
Y167082D01*
X114844D01*
Y167148D01*
X114811D01*
Y167182D01*
X114777D01*
Y167215D01*
X114744D01*
Y167281D01*
X114711D01*
Y167315D01*
X114678D01*
Y167381D01*
X114645D01*
Y167414D01*
X114611D01*
Y167447D01*
X114578D01*
Y167514D01*
X114545D01*
Y167547D01*
X114512D01*
Y167613D01*
X114479D01*
Y167647D01*
X114445D01*
Y167713D01*
X114412D01*
Y167746D01*
X114379D01*
Y167813D01*
X114346D01*
Y167879D01*
X114313D01*
Y167945D01*
X114279D01*
Y167979D01*
X114246D01*
Y168045D01*
X114213D01*
Y168111D01*
X114180D01*
Y168178D01*
X114146D01*
Y168244D01*
X114113D01*
Y168277D01*
X114080D01*
Y168344D01*
X114047D01*
Y168410D01*
X114014D01*
Y168477D01*
X113980D01*
Y168543D01*
X113947D01*
Y168609D01*
X113914D01*
Y168676D01*
X113881D01*
Y168775D01*
X113848D01*
Y168809D01*
X113814D01*
Y168908D01*
X113781D01*
Y168975D01*
X113748D01*
Y169074D01*
X113715D01*
Y169141D01*
X113682D01*
Y169240D01*
X113648D01*
Y169340D01*
X113615D01*
Y169406D01*
X113582D01*
Y169539D01*
X113549D01*
Y169606D01*
X113516D01*
Y169705D01*
X113482D01*
Y169805D01*
X113449D01*
Y169938D01*
X113416D01*
Y170070D01*
X113383D01*
Y170203D01*
X113350D01*
Y170336D01*
X113316D01*
Y170502D01*
X113283D01*
Y170668D01*
X113250D01*
Y170801D01*
X113217D01*
Y171033D01*
X113184D01*
Y171299D01*
X113150D01*
Y171730D01*
X113117D01*
Y172262D01*
X114180D01*
Y171897D01*
D02*
G37*
G36*
X100811Y162908D02*
X87603D01*
Y180408D01*
X100811D01*
Y162908D01*
D02*
G37*
G36*
X179935Y157410D02*
X180918D01*
Y157312D01*
X181902D01*
Y157213D01*
X182885D01*
Y157115D01*
X183868D01*
Y157017D01*
X184852D01*
Y156918D01*
X185835D01*
Y156820D01*
X186818D01*
Y156722D01*
X187802D01*
Y156623D01*
X188785D01*
Y156525D01*
X189768D01*
Y156427D01*
X190752D01*
Y156328D01*
X191735D01*
Y156230D01*
X192718D01*
Y156132D01*
X193702D01*
Y156033D01*
X194685D01*
Y155935D01*
X195668D01*
Y155837D01*
X196258D01*
Y155738D01*
X196160D01*
Y155640D01*
X195963D01*
Y155542D01*
X195865D01*
Y155443D01*
X195668D01*
Y155345D01*
X195570D01*
Y155247D01*
X195373D01*
Y155148D01*
X195275D01*
Y155050D01*
X195177D01*
Y154952D01*
X194980D01*
Y154853D01*
X194882D01*
Y154755D01*
X194685D01*
Y154657D01*
X194587D01*
Y154558D01*
X194390D01*
Y154460D01*
X194292D01*
Y154362D01*
X194095D01*
Y154263D01*
X193997D01*
Y154165D01*
X193898D01*
Y154067D01*
X193702D01*
Y153968D01*
X193603D01*
Y153870D01*
X193407D01*
Y153772D01*
X193308D01*
Y153673D01*
X193112D01*
Y153575D01*
X193013D01*
Y153477D01*
X192915D01*
Y153378D01*
X192718D01*
Y153280D01*
X192620D01*
Y153182D01*
X192423D01*
Y153083D01*
X192325D01*
Y152985D01*
X192128D01*
Y152887D01*
X192030D01*
Y152788D01*
X191932D01*
Y152690D01*
X191735D01*
Y152592D01*
X191637D01*
Y152493D01*
X191440D01*
Y152395D01*
X191342D01*
Y152297D01*
X191145D01*
Y152198D01*
X191047D01*
Y152100D01*
X190948D01*
Y152002D01*
X190752D01*
Y151903D01*
X190653D01*
Y151805D01*
X190457D01*
Y151707D01*
X190358D01*
Y151608D01*
X190162D01*
Y151510D01*
X190063D01*
Y151412D01*
X189965D01*
Y151313D01*
X189768D01*
Y151215D01*
X189670D01*
Y151117D01*
X189473D01*
Y151018D01*
X189375D01*
Y150920D01*
X189178D01*
Y150822D01*
X189080D01*
Y150723D01*
X188982D01*
Y150625D01*
X188785D01*
Y150527D01*
X188687D01*
Y150428D01*
X188490D01*
Y150330D01*
X188392D01*
Y150232D01*
X188293D01*
Y149838D01*
X186917D01*
Y151018D01*
X187015D01*
Y151117D01*
X187212D01*
Y151215D01*
X187310D01*
Y151313D01*
X187408D01*
Y151412D01*
X187605D01*
Y151510D01*
X187703D01*
Y151608D01*
X187900D01*
Y151707D01*
X187998D01*
Y151805D01*
X188097D01*
Y151903D01*
X188293D01*
Y152002D01*
X188392D01*
Y152100D01*
X188588D01*
Y152198D01*
X188687D01*
Y152297D01*
X188883D01*
Y152395D01*
X188982D01*
Y152493D01*
X189178D01*
Y152592D01*
X189277D01*
Y152690D01*
X189375D01*
Y152788D01*
X189572D01*
Y152887D01*
X189670D01*
Y152985D01*
X189867D01*
Y153083D01*
X189965D01*
Y153182D01*
X190162D01*
Y153280D01*
X190260D01*
Y153378D01*
X190358D01*
Y153477D01*
X190555D01*
Y153575D01*
X190653D01*
Y153673D01*
X190850D01*
Y153772D01*
X190948D01*
Y153870D01*
X191145D01*
Y153968D01*
X191243D01*
Y154067D01*
X191342D01*
Y154165D01*
X191538D01*
Y154263D01*
X191637D01*
Y154362D01*
X191833D01*
Y154460D01*
X191932D01*
Y154558D01*
X192030D01*
Y154657D01*
X192227D01*
Y154853D01*
X191243D01*
Y154952D01*
X190260D01*
Y155050D01*
X189277D01*
Y155148D01*
X188293D01*
Y155247D01*
X187310D01*
Y155345D01*
X186327D01*
Y155443D01*
X185343D01*
Y155542D01*
X184360D01*
Y155640D01*
X183377D01*
Y155738D01*
X182393D01*
Y155837D01*
X181410D01*
Y155935D01*
X180427D01*
Y156033D01*
X179640D01*
Y155935D01*
X179542D01*
Y155837D01*
X179443D01*
Y155738D01*
X179345D01*
Y155640D01*
X179148D01*
Y155542D01*
X179050D01*
Y155443D01*
X178952D01*
Y155345D01*
X178853D01*
Y155247D01*
X178657D01*
Y155148D01*
X178558D01*
Y155050D01*
X178460D01*
Y154952D01*
X178362D01*
Y154853D01*
X178165D01*
Y154755D01*
X178067D01*
Y154657D01*
X177968D01*
Y154558D01*
X177870D01*
Y154460D01*
X177673D01*
Y154362D01*
X177575D01*
Y154263D01*
X177477D01*
Y154165D01*
X177280D01*
Y154067D01*
X177182D01*
Y153968D01*
X177083D01*
Y153870D01*
X176985D01*
Y153772D01*
X176788D01*
Y153673D01*
X176690D01*
Y153575D01*
X176592D01*
Y153477D01*
X176493D01*
Y153378D01*
X176297D01*
Y153280D01*
X176198D01*
Y153182D01*
X176100D01*
Y153083D01*
X176002D01*
Y152985D01*
X175805D01*
Y152887D01*
X175707D01*
Y152788D01*
X175608D01*
Y152690D01*
X175510D01*
Y152592D01*
X175313D01*
Y152493D01*
X175215D01*
Y152395D01*
X175117D01*
Y152297D01*
X174920D01*
Y152198D01*
X173543D01*
Y152100D01*
X171380D01*
Y152002D01*
X169315D01*
Y151903D01*
X167152D01*
Y151805D01*
X165087D01*
Y151707D01*
X164497D01*
Y151805D01*
X164398D01*
Y151903D01*
X164300D01*
Y152002D01*
X164202D01*
Y152100D01*
X164103D01*
Y152198D01*
X164005D01*
Y152297D01*
X163907D01*
Y152395D01*
X163808D01*
Y152493D01*
X163710D01*
Y152592D01*
X163612D01*
Y152690D01*
X163513D01*
Y152788D01*
X163415D01*
Y152887D01*
X163317D01*
Y152985D01*
X163218D01*
Y153083D01*
X164103D01*
Y153182D01*
X166168D01*
Y153280D01*
X168332D01*
Y153378D01*
X170397D01*
Y153477D01*
X172560D01*
Y153575D01*
X174428D01*
Y153673D01*
X174527D01*
Y153772D01*
X174625D01*
Y153870D01*
X174822D01*
Y153968D01*
X174920D01*
Y154067D01*
X175018D01*
Y154165D01*
X175215D01*
Y154263D01*
X175313D01*
Y154362D01*
X175412D01*
Y154460D01*
X175510D01*
Y154558D01*
X175707D01*
Y154657D01*
X175805D01*
Y154755D01*
X175903D01*
Y154853D01*
X176002D01*
Y154952D01*
X176198D01*
Y155050D01*
X176297D01*
Y155148D01*
X176395D01*
Y155247D01*
X176493D01*
Y155345D01*
X176690D01*
Y155443D01*
X176788D01*
Y155542D01*
X176887D01*
Y155640D01*
X176985D01*
Y155738D01*
X177182D01*
Y155837D01*
X177280D01*
Y155935D01*
X177378D01*
Y156033D01*
X177477D01*
Y156132D01*
X177673D01*
Y156230D01*
X177772D01*
Y156328D01*
X177870D01*
Y156427D01*
X178067D01*
Y156525D01*
X178165D01*
Y156623D01*
X178263D01*
Y156722D01*
X178362D01*
Y156820D01*
X178558D01*
Y156918D01*
X178657D01*
Y157017D01*
X178755D01*
Y157115D01*
X178853D01*
Y157213D01*
X179050D01*
Y157312D01*
X179148D01*
Y157410D01*
X179247D01*
Y157508D01*
X179935D01*
Y157410D01*
D02*
G37*
G36*
X162038Y152690D02*
X162137D01*
Y152592D01*
X162333D01*
Y152493D01*
X162432D01*
Y152395D01*
X162530D01*
Y152297D01*
X162628D01*
Y152198D01*
X162727D01*
Y152002D01*
X162825D01*
Y151903D01*
X162923D01*
Y151805D01*
X163022D01*
Y151707D01*
X163120D01*
Y151608D01*
X163218D01*
Y151510D01*
X163317D01*
Y151412D01*
X163415D01*
Y151313D01*
X163513D01*
Y151215D01*
X163612D01*
Y151117D01*
X163710D01*
Y151018D01*
X163808D01*
Y150920D01*
X163907D01*
Y150822D01*
X164005D01*
Y150723D01*
X164103D01*
Y150527D01*
X164202D01*
Y150428D01*
X164300D01*
Y150330D01*
X164398D01*
Y150232D01*
X164497D01*
Y150133D01*
X164595D01*
Y150035D01*
X164693D01*
Y149937D01*
X164792D01*
Y149838D01*
X164890D01*
Y149740D01*
X164988D01*
Y149642D01*
X165087D01*
Y149543D01*
X165185D01*
Y149445D01*
X165283D01*
Y149347D01*
X165382D01*
Y149248D01*
X165480D01*
Y149150D01*
X165578D01*
Y149052D01*
X165677D01*
Y148953D01*
X165873D01*
Y148855D01*
X166168D01*
Y148757D01*
X167742D01*
Y148855D01*
X185442D01*
Y148757D01*
X190948D01*
Y148658D01*
X193898D01*
Y148560D01*
X195865D01*
Y148462D01*
X197340D01*
Y148363D01*
X198618D01*
Y148265D01*
X199602D01*
Y148167D01*
X200487D01*
Y148068D01*
X201372D01*
Y147970D01*
X202158D01*
Y147872D01*
X202257D01*
Y147773D01*
X201765D01*
Y147675D01*
X200978D01*
Y147577D01*
X200192D01*
Y147478D01*
X199208D01*
Y147380D01*
X198127D01*
Y147282D01*
X196750D01*
Y147183D01*
X195078D01*
Y147085D01*
X192718D01*
Y146987D01*
X189080D01*
Y146888D01*
X178460D01*
Y146790D01*
X175707D01*
Y146888D01*
X165972D01*
Y146790D01*
X165775D01*
Y146692D01*
X165578D01*
Y146593D01*
X165480D01*
Y146495D01*
X165382D01*
Y146397D01*
X165283D01*
Y146298D01*
X165185D01*
Y146200D01*
X165087D01*
Y146102D01*
X164988D01*
Y146003D01*
X164890D01*
Y145807D01*
X164792D01*
Y145708D01*
X164693D01*
Y145610D01*
X164595D01*
Y145512D01*
X164497D01*
Y145413D01*
X164398D01*
Y145315D01*
X164300D01*
Y145217D01*
X164202D01*
Y145118D01*
X164103D01*
Y145020D01*
X164005D01*
Y144922D01*
X163907D01*
Y144823D01*
X163808D01*
Y144725D01*
X163710D01*
Y144627D01*
X163612D01*
Y144528D01*
X163513D01*
Y144332D01*
X163415D01*
Y144233D01*
X163317D01*
Y144135D01*
X163218D01*
Y144037D01*
X163120D01*
Y143938D01*
X163022D01*
Y143840D01*
X162923D01*
Y143742D01*
X162825D01*
Y143643D01*
X162727D01*
Y143545D01*
X162628D01*
Y143447D01*
X162530D01*
Y143348D01*
X162432D01*
Y143250D01*
X162333D01*
Y143152D01*
X162235D01*
Y143053D01*
X162137D01*
Y142955D01*
X161842D01*
Y142857D01*
X161350D01*
Y142955D01*
X160760D01*
Y143053D01*
X160170D01*
Y143152D01*
X159678D01*
Y143250D01*
X159088D01*
Y143348D01*
X158498D01*
Y143447D01*
X158007D01*
Y143545D01*
X157417D01*
Y143643D01*
X156827D01*
Y143742D01*
X156237D01*
Y143840D01*
X155745D01*
Y143938D01*
X155155D01*
Y144037D01*
X154565D01*
Y144135D01*
X154073D01*
Y144233D01*
X153483D01*
Y144332D01*
X152893D01*
Y144430D01*
X152303D01*
Y144528D01*
X151812D01*
Y144627D01*
X151222D01*
Y144725D01*
X150632D01*
Y144823D01*
X150042D01*
Y144922D01*
X149550D01*
Y145020D01*
X148960D01*
Y145118D01*
X148370D01*
Y145217D01*
X147878D01*
Y145315D01*
X147288D01*
Y145413D01*
X146698D01*
Y145512D01*
X146600D01*
Y145610D01*
X147190D01*
Y145512D01*
X148468D01*
Y145413D01*
X149747D01*
Y145315D01*
X151025D01*
Y145217D01*
X152303D01*
Y145118D01*
X153582D01*
Y145020D01*
X154860D01*
Y144922D01*
X156138D01*
Y144823D01*
X157318D01*
Y144725D01*
X158597D01*
Y144627D01*
X159875D01*
Y144528D01*
X160760D01*
Y144627D01*
X161055D01*
Y144725D01*
X161153D01*
Y144823D01*
X161252D01*
Y144922D01*
X161350D01*
Y145020D01*
X161448D01*
Y145118D01*
X161547D01*
Y145217D01*
X161645D01*
Y145315D01*
X161743D01*
Y145512D01*
X161842D01*
Y145610D01*
X161940D01*
Y145708D01*
X162038D01*
Y145807D01*
X162137D01*
Y145905D01*
X162235D01*
Y146003D01*
X162333D01*
Y146102D01*
X162432D01*
Y146200D01*
X162530D01*
Y146593D01*
X162432D01*
Y146790D01*
X162333D01*
Y146888D01*
X162137D01*
Y146987D01*
X157908D01*
Y147085D01*
X154270D01*
Y147183D01*
X151320D01*
Y147282D01*
X148763D01*
Y147380D01*
X146502D01*
Y147478D01*
X144535D01*
Y147577D01*
X142568D01*
Y147675D01*
X140700D01*
Y147773D01*
X139520D01*
Y147872D01*
X139815D01*
Y147970D01*
X141683D01*
Y148068D01*
X143650D01*
Y148167D01*
X145617D01*
Y148265D01*
X147780D01*
Y148363D01*
X150238D01*
Y148462D01*
X152992D01*
Y148560D01*
X156237D01*
Y148658D01*
X160662D01*
Y148757D01*
X162235D01*
Y148855D01*
X162432D01*
Y149052D01*
X162530D01*
Y149445D01*
X162432D01*
Y149543D01*
X162333D01*
Y149740D01*
X162235D01*
Y149838D01*
X162137D01*
Y149937D01*
X162038D01*
Y150035D01*
X161940D01*
Y150133D01*
X161842D01*
Y150232D01*
X161743D01*
Y150330D01*
X161645D01*
Y150428D01*
X161547D01*
Y150527D01*
X161448D01*
Y150625D01*
X161350D01*
Y150723D01*
X161252D01*
Y150822D01*
X161153D01*
Y150920D01*
X161055D01*
Y151018D01*
X160858D01*
Y151117D01*
X159383D01*
Y151018D01*
X158105D01*
Y150920D01*
X156827D01*
Y150822D01*
X155548D01*
Y150723D01*
X154270D01*
Y150625D01*
X152992D01*
Y150527D01*
X151713D01*
Y150428D01*
X150435D01*
Y150330D01*
X149157D01*
Y150232D01*
X147977D01*
Y150133D01*
X146698D01*
Y150035D01*
X146600D01*
Y150232D01*
X146993D01*
Y150330D01*
X147583D01*
Y150428D01*
X148173D01*
Y150527D01*
X148665D01*
Y150625D01*
X149255D01*
Y150723D01*
X149845D01*
Y150822D01*
X150435D01*
Y150920D01*
X150927D01*
Y151018D01*
X151517D01*
Y151117D01*
X152107D01*
Y151215D01*
X152697D01*
Y151313D01*
X153188D01*
Y151412D01*
X153778D01*
Y151510D01*
X154368D01*
Y151608D01*
X154958D01*
Y151707D01*
X155450D01*
Y151805D01*
X156040D01*
Y151903D01*
X156630D01*
Y152002D01*
X157122D01*
Y152100D01*
X157712D01*
Y152198D01*
X158302D01*
Y152297D01*
X158892D01*
Y152395D01*
X159383D01*
Y152493D01*
X159973D01*
Y152592D01*
X160563D01*
Y152690D01*
X161055D01*
Y152788D01*
X162038D01*
Y152690D01*
D02*
G37*
G36*
X188293Y145413D02*
X188392D01*
Y145315D01*
X188588D01*
Y145217D01*
X188687D01*
Y145118D01*
X188785D01*
Y145020D01*
X188982D01*
Y144922D01*
X189080D01*
Y144823D01*
X189277D01*
Y144725D01*
X189375D01*
Y144627D01*
X189572D01*
Y144528D01*
X189670D01*
Y144430D01*
X189768D01*
Y144332D01*
X189965D01*
Y144233D01*
X190063D01*
Y144135D01*
X190260D01*
Y144037D01*
X190358D01*
Y143938D01*
X190555D01*
Y143840D01*
X190653D01*
Y143742D01*
X190752D01*
Y143643D01*
X190948D01*
Y143545D01*
X191047D01*
Y143447D01*
X191243D01*
Y143348D01*
X191342D01*
Y143250D01*
X191538D01*
Y143152D01*
X191637D01*
Y143053D01*
X191735D01*
Y142955D01*
X191932D01*
Y142857D01*
X192030D01*
Y142758D01*
X192227D01*
Y142660D01*
X192325D01*
Y142562D01*
X192522D01*
Y142463D01*
X192620D01*
Y142365D01*
X192718D01*
Y142267D01*
X192915D01*
Y142168D01*
X193013D01*
Y142070D01*
X193210D01*
Y141972D01*
X193308D01*
Y141873D01*
X193505D01*
Y141775D01*
X193603D01*
Y141677D01*
X193702D01*
Y141578D01*
X193898D01*
Y141480D01*
X193997D01*
Y141382D01*
X194193D01*
Y141283D01*
X194292D01*
Y141185D01*
X194488D01*
Y141087D01*
X194587D01*
Y140988D01*
X194783D01*
Y140890D01*
X194882D01*
Y140792D01*
X194980D01*
Y140693D01*
X195177D01*
Y140595D01*
X195275D01*
Y140497D01*
X195472D01*
Y140398D01*
X195570D01*
Y140300D01*
X195767D01*
Y140202D01*
X195865D01*
Y140103D01*
X195963D01*
Y140005D01*
X196160D01*
Y139907D01*
X196258D01*
Y139808D01*
X195570D01*
Y139710D01*
X194488D01*
Y139612D01*
X193603D01*
Y139513D01*
X192620D01*
Y139415D01*
X191637D01*
Y139317D01*
X190555D01*
Y139218D01*
X189572D01*
Y139120D01*
X188588D01*
Y139022D01*
X187703D01*
Y138923D01*
X186720D01*
Y138825D01*
X185638D01*
Y138727D01*
X184655D01*
Y138628D01*
X183770D01*
Y138530D01*
X182787D01*
Y138432D01*
X181705D01*
Y138333D01*
X180722D01*
Y138235D01*
X179738D01*
Y138137D01*
X179247D01*
Y138235D01*
X179148D01*
Y138333D01*
X179050D01*
Y138432D01*
X178952D01*
Y138530D01*
X178755D01*
Y138628D01*
X178657D01*
Y138727D01*
X178558D01*
Y138825D01*
X178460D01*
Y138923D01*
X178263D01*
Y139022D01*
X178165D01*
Y139120D01*
X178067D01*
Y139218D01*
X177870D01*
Y139317D01*
X177772D01*
Y139415D01*
X177673D01*
Y139513D01*
X177575D01*
Y139612D01*
X177378D01*
Y139710D01*
X177280D01*
Y139808D01*
X177182D01*
Y139907D01*
X177083D01*
Y140005D01*
X176887D01*
Y140103D01*
X176788D01*
Y140202D01*
X176690D01*
Y140300D01*
X176592D01*
Y140398D01*
X176395D01*
Y140497D01*
X176297D01*
Y140595D01*
X176198D01*
Y140693D01*
X176100D01*
Y140792D01*
X175903D01*
Y140890D01*
X175805D01*
Y140988D01*
X175707D01*
Y141087D01*
X175608D01*
Y141185D01*
X175412D01*
Y141283D01*
X175313D01*
Y141382D01*
X175215D01*
Y141480D01*
X175018D01*
Y141578D01*
X174920D01*
Y141677D01*
X174822D01*
Y141775D01*
X174723D01*
Y141873D01*
X174527D01*
Y141972D01*
X174428D01*
Y142070D01*
X172855D01*
Y142168D01*
X170790D01*
Y142267D01*
X168627D01*
Y142365D01*
X166562D01*
Y142463D01*
X164398D01*
Y142562D01*
X163218D01*
Y142660D01*
X163317D01*
Y142758D01*
X163415D01*
Y142857D01*
X163513D01*
Y142955D01*
X163612D01*
Y143053D01*
X163710D01*
Y143152D01*
X163808D01*
Y143250D01*
X163907D01*
Y143348D01*
X164005D01*
Y143447D01*
X164103D01*
Y143545D01*
X164202D01*
Y143643D01*
X164300D01*
Y143742D01*
X164398D01*
Y143840D01*
X164497D01*
Y143938D01*
X165382D01*
Y143840D01*
X167545D01*
Y143742D01*
X169610D01*
Y143643D01*
X171773D01*
Y143545D01*
X173838D01*
Y143447D01*
X175018D01*
Y143348D01*
X175117D01*
Y143250D01*
X175215D01*
Y143152D01*
X175412D01*
Y143053D01*
X175510D01*
Y142955D01*
X175608D01*
Y142857D01*
X175707D01*
Y142758D01*
X175903D01*
Y142660D01*
X176002D01*
Y142562D01*
X176100D01*
Y142463D01*
X176198D01*
Y142365D01*
X176395D01*
Y142267D01*
X176493D01*
Y142168D01*
X176592D01*
Y142070D01*
X176690D01*
Y141972D01*
X176887D01*
Y141873D01*
X176985D01*
Y141775D01*
X177083D01*
Y141677D01*
X177182D01*
Y141578D01*
X177378D01*
Y141480D01*
X177477D01*
Y141382D01*
X177575D01*
Y141283D01*
X177673D01*
Y141185D01*
X177870D01*
Y141087D01*
X177968D01*
Y140988D01*
X178067D01*
Y140890D01*
X178263D01*
Y140792D01*
X178362D01*
Y140693D01*
X178460D01*
Y140595D01*
X178558D01*
Y140497D01*
X178755D01*
Y140398D01*
X178853D01*
Y140300D01*
X178952D01*
Y140202D01*
X179050D01*
Y140103D01*
X179247D01*
Y140005D01*
X179345D01*
Y139907D01*
X179443D01*
Y139808D01*
X179542D01*
Y139710D01*
X179738D01*
Y139612D01*
X180230D01*
Y139710D01*
X181213D01*
Y139808D01*
X182197D01*
Y139907D01*
X183180D01*
Y140005D01*
X184163D01*
Y140103D01*
X185147D01*
Y140202D01*
X186130D01*
Y140300D01*
X187113D01*
Y140398D01*
X188097D01*
Y140497D01*
X189080D01*
Y140595D01*
X190063D01*
Y140693D01*
X191047D01*
Y140792D01*
X192030D01*
Y140890D01*
X192227D01*
Y140988D01*
X192128D01*
Y141087D01*
X191932D01*
Y141185D01*
X191833D01*
Y141283D01*
X191735D01*
Y141382D01*
X191538D01*
Y141480D01*
X191440D01*
Y141578D01*
X191243D01*
Y141677D01*
X191145D01*
Y141775D01*
X190948D01*
Y141873D01*
X190850D01*
Y141972D01*
X190653D01*
Y142070D01*
X190555D01*
Y142168D01*
X190457D01*
Y142267D01*
X190260D01*
Y142365D01*
X190162D01*
Y142463D01*
X189965D01*
Y142562D01*
X189867D01*
Y142660D01*
X189670D01*
Y142758D01*
X189572D01*
Y142857D01*
X189473D01*
Y142955D01*
X189277D01*
Y143053D01*
X189178D01*
Y143152D01*
X188982D01*
Y143250D01*
X188883D01*
Y143348D01*
X188785D01*
Y143447D01*
X188588D01*
Y143545D01*
X188490D01*
Y143643D01*
X188293D01*
Y143742D01*
X188195D01*
Y143840D01*
X187998D01*
Y143938D01*
X187900D01*
Y144037D01*
X187703D01*
Y144135D01*
X187605D01*
Y144233D01*
X187507D01*
Y144332D01*
X187310D01*
Y144430D01*
X187212D01*
Y144528D01*
X187015D01*
Y144627D01*
X186917D01*
Y145807D01*
X188293D01*
Y145413D01*
D02*
G37*
G36*
X189375Y130762D02*
X187212D01*
Y130663D01*
X187113D01*
Y129680D01*
X187212D01*
Y129483D01*
X187310D01*
Y129385D01*
X187408D01*
Y129287D01*
X187605D01*
Y129188D01*
X188883D01*
Y129090D01*
X189178D01*
Y128992D01*
X189277D01*
Y128893D01*
X189375D01*
Y128205D01*
X189277D01*
Y128107D01*
X189080D01*
Y128205D01*
X188883D01*
Y128303D01*
X187605D01*
Y128402D01*
X187310D01*
Y128500D01*
X187113D01*
Y128598D01*
X187015D01*
Y128697D01*
X186917D01*
Y128795D01*
X186818D01*
Y128992D01*
X186720D01*
Y128893D01*
X186622D01*
Y128697D01*
X186523D01*
Y128598D01*
X186327D01*
Y128500D01*
X186228D01*
Y128402D01*
X185835D01*
Y128303D01*
X185343D01*
Y128402D01*
X184950D01*
Y128500D01*
X184753D01*
Y128598D01*
X184557D01*
Y128697D01*
X184458D01*
Y128795D01*
X184360D01*
Y128992D01*
X184262D01*
Y129188D01*
X184163D01*
Y129582D01*
X184065D01*
Y131548D01*
X189375D01*
Y130762D01*
D02*
G37*
G36*
X188097Y127418D02*
X188392D01*
Y127320D01*
X188588D01*
Y127222D01*
X188687D01*
Y127123D01*
X188883D01*
Y127025D01*
X188982D01*
Y126927D01*
X189080D01*
Y126730D01*
X189178D01*
Y126632D01*
X189277D01*
Y126337D01*
X189375D01*
Y125157D01*
X189277D01*
Y124960D01*
X189178D01*
Y124763D01*
X189080D01*
Y124665D01*
X188982D01*
Y124468D01*
X188883D01*
Y124370D01*
X188687D01*
Y124272D01*
X188588D01*
Y124173D01*
X188392D01*
Y124075D01*
X187998D01*
Y123977D01*
X185343D01*
Y124075D01*
X185048D01*
Y124173D01*
X184852D01*
Y124272D01*
X184753D01*
Y124370D01*
X184557D01*
Y124468D01*
X184458D01*
Y124567D01*
X184360D01*
Y124763D01*
X184262D01*
Y124862D01*
X184163D01*
Y125157D01*
X184065D01*
Y126435D01*
X184163D01*
Y126632D01*
X184262D01*
Y126828D01*
X184360D01*
Y126927D01*
X184458D01*
Y127025D01*
X184557D01*
Y127123D01*
X184655D01*
Y127222D01*
X184852D01*
Y127320D01*
X185048D01*
Y127418D01*
X185343D01*
Y127517D01*
X188097D01*
Y127418D01*
D02*
G37*
G36*
Y123190D02*
X188392D01*
Y123092D01*
X188588D01*
Y122993D01*
X188785D01*
Y122895D01*
X188883D01*
Y122797D01*
X188982D01*
Y122698D01*
X189080D01*
Y122600D01*
X189178D01*
Y122403D01*
X189277D01*
Y122108D01*
X189375D01*
Y121027D01*
X189277D01*
Y120732D01*
X189178D01*
Y120633D01*
X189080D01*
Y120437D01*
X188982D01*
Y120338D01*
X188883D01*
Y120240D01*
X188687D01*
Y120142D01*
X188490D01*
Y120043D01*
X188097D01*
Y119945D01*
X187703D01*
Y120043D01*
X187605D01*
Y120732D01*
X187703D01*
Y120830D01*
X188293D01*
Y120928D01*
X188490D01*
Y121027D01*
X188588D01*
Y121223D01*
X188687D01*
Y122010D01*
X188588D01*
Y122108D01*
X188490D01*
Y122207D01*
X188392D01*
Y122305D01*
X188097D01*
Y122403D01*
X187605D01*
Y122502D01*
X185835D01*
Y122403D01*
X185245D01*
Y122305D01*
X185048D01*
Y122207D01*
X184950D01*
Y122108D01*
X184852D01*
Y122010D01*
X184753D01*
Y121715D01*
X184655D01*
Y121420D01*
X184753D01*
Y121125D01*
X184852D01*
Y121027D01*
X184950D01*
Y120928D01*
X185147D01*
Y120830D01*
X185737D01*
Y120732D01*
X185835D01*
Y120043D01*
X185737D01*
Y119945D01*
X185343D01*
Y120043D01*
X184950D01*
Y120142D01*
X184753D01*
Y120240D01*
X184557D01*
Y120338D01*
X184458D01*
Y120437D01*
X184360D01*
Y120535D01*
X184262D01*
Y120732D01*
X184163D01*
Y120928D01*
X184065D01*
Y122207D01*
X184163D01*
Y122403D01*
X184262D01*
Y122600D01*
X184360D01*
Y122698D01*
X184458D01*
Y122797D01*
X184557D01*
Y122895D01*
X184655D01*
Y122993D01*
X184852D01*
Y123092D01*
X185048D01*
Y123190D01*
X185343D01*
Y123288D01*
X188097D01*
Y123190D01*
D02*
G37*
G36*
X189375Y118372D02*
X187113D01*
Y118273D01*
X187015D01*
Y117978D01*
X187113D01*
Y117880D01*
X187212D01*
Y117782D01*
X187408D01*
Y117683D01*
X187605D01*
Y117585D01*
X187703D01*
Y117487D01*
X187900D01*
Y117388D01*
X188097D01*
Y117290D01*
X188195D01*
Y117192D01*
X188392D01*
Y117093D01*
X188588D01*
Y116995D01*
X188687D01*
Y116897D01*
X188883D01*
Y116798D01*
X189080D01*
Y116700D01*
X189178D01*
Y116602D01*
X189277D01*
Y116503D01*
X189375D01*
Y115618D01*
X189178D01*
Y115717D01*
X189080D01*
Y115815D01*
X188883D01*
Y115913D01*
X188687D01*
Y116012D01*
X188588D01*
Y116110D01*
X188392D01*
Y116208D01*
X188293D01*
Y116307D01*
X188097D01*
Y116405D01*
X187900D01*
Y116503D01*
X187802D01*
Y116602D01*
X187605D01*
Y116700D01*
X187507D01*
Y116798D01*
X187310D01*
Y116897D01*
X187212D01*
Y116995D01*
X187015D01*
Y117093D01*
X186818D01*
Y117192D01*
X186720D01*
Y117290D01*
X186425D01*
Y117192D01*
X186327D01*
Y117093D01*
X186130D01*
Y116995D01*
X186032D01*
Y116897D01*
X185835D01*
Y116798D01*
X185737D01*
Y116700D01*
X185540D01*
Y116602D01*
X185442D01*
Y116503D01*
X185245D01*
Y116405D01*
X185048D01*
Y116307D01*
X184950D01*
Y116208D01*
X184753D01*
Y116110D01*
X184655D01*
Y116012D01*
X184458D01*
Y115913D01*
X184360D01*
Y115815D01*
X184163D01*
Y115717D01*
X184065D01*
Y116700D01*
X184262D01*
Y116798D01*
X184360D01*
Y116897D01*
X184557D01*
Y116995D01*
X184753D01*
Y117093D01*
X184852D01*
Y117192D01*
X185048D01*
Y117290D01*
X185245D01*
Y117388D01*
X185343D01*
Y117487D01*
X185540D01*
Y117585D01*
X185638D01*
Y117683D01*
X185835D01*
Y117782D01*
X186032D01*
Y117880D01*
X186130D01*
Y117978D01*
X186327D01*
Y118372D01*
X184065D01*
Y119158D01*
X189375D01*
Y118372D01*
D02*
G37*
G36*
X189277Y115028D02*
X189375D01*
Y112078D01*
X189277D01*
Y111980D01*
X188687D01*
Y114143D01*
X188588D01*
Y114242D01*
X187015D01*
Y114143D01*
X186917D01*
Y112275D01*
X186327D01*
Y112373D01*
X186228D01*
Y114242D01*
X184753D01*
Y112078D01*
X184065D01*
Y115028D01*
X184163D01*
Y115127D01*
X184262D01*
Y115028D01*
X189178D01*
Y115127D01*
X189277D01*
Y115028D01*
D02*
G37*
G36*
X184753Y111292D02*
Y111193D01*
Y110407D01*
X184852D01*
Y110308D01*
X189375D01*
Y109522D01*
X184753D01*
Y108145D01*
X184163D01*
Y108243D01*
X184065D01*
Y111685D01*
X184753D01*
Y111292D01*
D02*
G37*
G36*
X189375Y104703D02*
X189277D01*
Y104605D01*
X189178D01*
Y104703D01*
X187408D01*
Y104605D01*
X187310D01*
Y103327D01*
X187212D01*
Y103032D01*
X187113D01*
Y102835D01*
X187015D01*
Y102737D01*
X186917D01*
Y102638D01*
X186818D01*
Y102540D01*
X186720D01*
Y102442D01*
X186622D01*
Y102343D01*
X186425D01*
Y102245D01*
X186130D01*
Y102147D01*
X185343D01*
Y102245D01*
X184950D01*
Y102343D01*
X184753D01*
Y102442D01*
X184655D01*
Y102540D01*
X184557D01*
Y102638D01*
X184458D01*
Y102737D01*
X184360D01*
Y102835D01*
X184262D01*
Y103032D01*
X184163D01*
Y103425D01*
X184065D01*
Y105490D01*
X189375D01*
Y104703D01*
D02*
G37*
G36*
X178558Y131548D02*
X178755D01*
Y131450D01*
X178853D01*
Y131253D01*
X178952D01*
Y123682D01*
X178853D01*
Y123485D01*
X178755D01*
Y123387D01*
X172167D01*
Y123288D01*
X172068D01*
Y123190D01*
X171970D01*
Y110898D01*
X172068D01*
Y110800D01*
X172167D01*
Y110702D01*
X172265D01*
Y110603D01*
X172363D01*
Y110505D01*
X172462D01*
Y110407D01*
X172560D01*
Y110308D01*
X172757D01*
Y110210D01*
X172855D01*
Y110112D01*
X172953D01*
Y110013D01*
X173052D01*
Y109915D01*
X173150D01*
Y109817D01*
X173347D01*
Y109718D01*
X173445D01*
Y109620D01*
X173543D01*
Y109522D01*
X173642D01*
Y109423D01*
X173740D01*
Y109325D01*
X173937D01*
Y109227D01*
X174035D01*
Y109128D01*
X174133D01*
Y109030D01*
X174232D01*
Y108932D01*
X174330D01*
Y108833D01*
X174428D01*
Y108735D01*
X174625D01*
Y108637D01*
X174723D01*
Y108538D01*
X174822D01*
Y108440D01*
X174920D01*
Y108342D01*
X175018D01*
Y108243D01*
X175215D01*
Y108145D01*
X175313D01*
Y108047D01*
X175412D01*
Y107948D01*
X175510D01*
Y107850D01*
X175608D01*
Y107752D01*
X175805D01*
Y107653D01*
X175903D01*
Y107555D01*
X176002D01*
Y107457D01*
X176100D01*
Y107358D01*
X176198D01*
Y107260D01*
X176297D01*
Y107162D01*
X176493D01*
Y107063D01*
X176592D01*
Y106965D01*
X176690D01*
Y106867D01*
X176788D01*
Y106768D01*
X176887D01*
Y106670D01*
X177083D01*
Y106572D01*
X177182D01*
Y106473D01*
X177280D01*
Y106375D01*
X177378D01*
Y106277D01*
X177477D01*
Y106178D01*
X177673D01*
Y106080D01*
X177772D01*
Y105982D01*
X177870D01*
Y105883D01*
X177968D01*
Y105785D01*
X178067D01*
Y105687D01*
X178165D01*
Y105588D01*
X178362D01*
Y105490D01*
X178460D01*
Y105392D01*
X178558D01*
Y105293D01*
X178657D01*
Y105195D01*
X178755D01*
Y105097D01*
X178853D01*
Y104802D01*
X178952D01*
Y94477D01*
X178853D01*
Y94280D01*
X178558D01*
Y94378D01*
X178460D01*
Y94477D01*
X178362D01*
Y94575D01*
X178263D01*
Y94673D01*
X178165D01*
Y94772D01*
X178067D01*
Y94870D01*
X177968D01*
Y94968D01*
X177870D01*
Y95067D01*
X177772D01*
Y95165D01*
X177673D01*
Y95263D01*
X177575D01*
Y95362D01*
X177378D01*
Y95460D01*
X177280D01*
Y95558D01*
X177182D01*
Y95657D01*
X177083D01*
Y95755D01*
X176985D01*
Y95853D01*
X176887D01*
Y95952D01*
X176788D01*
Y96050D01*
X176690D01*
Y96148D01*
X176592D01*
Y96247D01*
X176493D01*
Y96345D01*
X176395D01*
Y96443D01*
X176297D01*
Y96542D01*
X176198D01*
Y96640D01*
X176100D01*
Y96738D01*
X176002D01*
Y96837D01*
X175903D01*
Y96935D01*
X175805D01*
Y97033D01*
X175707D01*
Y97132D01*
X175608D01*
Y97230D01*
X175412D01*
Y97328D01*
X175313D01*
Y97427D01*
X175215D01*
Y97525D01*
X175117D01*
Y97623D01*
X175018D01*
Y97722D01*
X174920D01*
Y97820D01*
X174822D01*
Y97918D01*
X174723D01*
Y98017D01*
X174625D01*
Y98115D01*
X174527D01*
Y98213D01*
X174428D01*
Y98312D01*
X174330D01*
Y98410D01*
X174232D01*
Y98508D01*
X174133D01*
Y98607D01*
X174035D01*
Y98705D01*
X173937D01*
Y98803D01*
X173740D01*
Y98902D01*
X173642D01*
Y99000D01*
X173543D01*
Y99098D01*
X173445D01*
Y99197D01*
X173347D01*
Y99295D01*
X173248D01*
Y99393D01*
X173150D01*
Y99492D01*
X173052D01*
Y99590D01*
X172953D01*
Y99787D01*
X172855D01*
Y99885D01*
X172757D01*
Y99983D01*
X172658D01*
Y100082D01*
X172560D01*
Y100180D01*
X172462D01*
Y100278D01*
X172363D01*
Y100377D01*
X172265D01*
Y100475D01*
X172167D01*
Y100573D01*
X172068D01*
Y100672D01*
X171970D01*
Y100770D01*
X171872D01*
Y100868D01*
X171773D01*
Y100967D01*
X171675D01*
Y101065D01*
X171577D01*
Y101163D01*
X171478D01*
Y101262D01*
X171380D01*
Y101360D01*
X171282D01*
Y101458D01*
X171183D01*
Y101557D01*
X171085D01*
Y101655D01*
X170987D01*
Y101852D01*
X170888D01*
Y101950D01*
X170790D01*
Y102048D01*
X170692D01*
Y102147D01*
X170593D01*
Y102245D01*
X170298D01*
Y102147D01*
X170200D01*
Y101852D01*
X170102D01*
Y101557D01*
X170003D01*
Y101262D01*
X169905D01*
Y100967D01*
X169807D01*
Y100770D01*
X169708D01*
Y100475D01*
X169610D01*
Y100278D01*
X169512D01*
Y100082D01*
X169413D01*
Y99885D01*
X169315D01*
Y99787D01*
X169217D01*
Y99590D01*
X169118D01*
Y99393D01*
X169020D01*
Y99295D01*
X168922D01*
Y99098D01*
X168823D01*
Y99000D01*
X168725D01*
Y98902D01*
X168627D01*
Y98705D01*
X168528D01*
Y98607D01*
X168430D01*
Y98508D01*
X168332D01*
Y98410D01*
X168233D01*
Y98312D01*
X168135D01*
Y98213D01*
X168037D01*
Y98115D01*
X167938D01*
Y98017D01*
X167840D01*
Y97918D01*
X167742D01*
Y97820D01*
X167643D01*
Y97722D01*
X167545D01*
Y97623D01*
X167447D01*
Y97525D01*
X167250D01*
Y97427D01*
X167152D01*
Y97328D01*
X167053D01*
Y97230D01*
X166857D01*
Y97132D01*
X166758D01*
Y97033D01*
X166562D01*
Y96935D01*
X166463D01*
Y96837D01*
X166267D01*
Y96738D01*
X166070D01*
Y96640D01*
X165873D01*
Y96542D01*
X165677D01*
Y96443D01*
X165480D01*
Y96345D01*
X165185D01*
Y96247D01*
X164890D01*
Y96148D01*
X164595D01*
Y96050D01*
X164300D01*
Y95952D01*
X163907D01*
Y95853D01*
X163317D01*
Y95755D01*
X162235D01*
Y95657D01*
X162137D01*
Y95755D01*
X160465D01*
Y95853D01*
X159875D01*
Y95952D01*
X159482D01*
Y96050D01*
X159088D01*
Y96148D01*
X158793D01*
Y96247D01*
X158498D01*
Y96345D01*
X158302D01*
Y96443D01*
X158105D01*
Y96542D01*
X157908D01*
Y96640D01*
X157712D01*
Y96738D01*
X157613D01*
Y96837D01*
X157417D01*
Y96935D01*
X157220D01*
Y97033D01*
X157122D01*
Y97132D01*
X157023D01*
Y97230D01*
X156925D01*
Y97328D01*
X156728D01*
Y97427D01*
X156630D01*
Y97525D01*
X156532D01*
Y97623D01*
X156433D01*
Y97722D01*
X156335D01*
Y97820D01*
X156138D01*
Y97918D01*
X156040D01*
Y98017D01*
X155942D01*
Y98115D01*
X155843D01*
Y98213D01*
X155745D01*
Y98410D01*
X155647D01*
Y98508D01*
X155548D01*
Y98607D01*
X155450D01*
Y98705D01*
X155352D01*
Y98803D01*
X155253D01*
Y99000D01*
X155155D01*
Y99098D01*
X155057D01*
Y99197D01*
X154958D01*
Y99393D01*
X154860D01*
Y99492D01*
X154762D01*
Y99688D01*
X154663D01*
Y99885D01*
X154565D01*
Y99983D01*
X154467D01*
Y100180D01*
X154368D01*
Y100377D01*
X154270D01*
Y100573D01*
X154172D01*
Y100770D01*
X154073D01*
Y100967D01*
X153975D01*
Y101163D01*
X153877D01*
Y101360D01*
X153778D01*
Y101655D01*
X153680D01*
Y101950D01*
X153582D01*
Y102147D01*
X153483D01*
Y102442D01*
X153385D01*
Y102835D01*
X153287D01*
Y103130D01*
X153188D01*
Y103523D01*
X153090D01*
Y103917D01*
X152992D01*
Y104408D01*
X152893D01*
Y104998D01*
X152795D01*
Y105687D01*
X152697D01*
Y106473D01*
X152598D01*
Y107752D01*
X152500D01*
Y131450D01*
X152598D01*
Y131548D01*
X152893D01*
Y131647D01*
X158990D01*
Y131548D01*
X159285D01*
Y131450D01*
X159383D01*
Y108047D01*
X159482D01*
Y107063D01*
X159580D01*
Y106670D01*
X159678D01*
Y106277D01*
X159777D01*
Y106080D01*
X159875D01*
Y105785D01*
X159973D01*
Y105588D01*
X160072D01*
Y105490D01*
X160170D01*
Y105293D01*
X160268D01*
Y105195D01*
X160367D01*
Y105097D01*
X160465D01*
Y104998D01*
X160563D01*
Y104900D01*
X160662D01*
Y104802D01*
X160760D01*
Y104703D01*
X160858D01*
Y104605D01*
X160957D01*
Y104507D01*
X161153D01*
Y104408D01*
X161350D01*
Y104310D01*
X161743D01*
Y104212D01*
X163120D01*
Y104310D01*
X163415D01*
Y104408D01*
X163612D01*
Y104507D01*
X163710D01*
Y104605D01*
X163907D01*
Y104703D01*
X164005D01*
Y104802D01*
X164103D01*
Y104900D01*
X164202D01*
Y104998D01*
X164300D01*
Y105097D01*
X164398D01*
Y105293D01*
X164497D01*
Y105392D01*
X164595D01*
Y105588D01*
X164693D01*
Y105785D01*
X164792D01*
Y105982D01*
X164890D01*
Y106178D01*
X164988D01*
Y106375D01*
X165087D01*
Y106768D01*
X165185D01*
Y107162D01*
X165283D01*
Y107752D01*
X165382D01*
Y127418D01*
X165480D01*
Y128008D01*
X165578D01*
Y128303D01*
X165677D01*
Y128598D01*
X165775D01*
Y128795D01*
X165873D01*
Y128992D01*
X165972D01*
Y129188D01*
X166070D01*
Y129385D01*
X166168D01*
Y129483D01*
X166267D01*
Y129680D01*
X166365D01*
Y129778D01*
X166463D01*
Y129877D01*
X166562D01*
Y129975D01*
X166660D01*
Y130073D01*
X166758D01*
Y130270D01*
X166857D01*
Y130368D01*
X167053D01*
Y130467D01*
X167152D01*
Y130565D01*
X167250D01*
Y130663D01*
X167348D01*
Y130762D01*
X167545D01*
Y130860D01*
X167643D01*
Y130958D01*
X167840D01*
Y131057D01*
X168037D01*
Y131155D01*
X168233D01*
Y131253D01*
X168528D01*
Y131352D01*
X168823D01*
Y131450D01*
X169217D01*
Y131548D01*
X169708D01*
Y131647D01*
X178558D01*
Y131548D01*
D02*
G37*
G36*
X189375Y100573D02*
X187212D01*
Y100475D01*
X187113D01*
Y99393D01*
X187212D01*
Y99295D01*
X187310D01*
Y99197D01*
X187408D01*
Y99098D01*
X187605D01*
Y99000D01*
X188883D01*
Y98902D01*
X189178D01*
Y98803D01*
X189277D01*
Y98705D01*
X189375D01*
Y98017D01*
X189277D01*
Y97918D01*
X189080D01*
Y98017D01*
X188883D01*
Y98115D01*
X187605D01*
Y98213D01*
X187310D01*
Y98312D01*
X187113D01*
Y98410D01*
X187015D01*
Y98508D01*
X186917D01*
Y98607D01*
X186818D01*
Y98803D01*
X186720D01*
Y98705D01*
X186622D01*
Y98508D01*
X186523D01*
Y98410D01*
X186425D01*
Y98312D01*
X186228D01*
Y98213D01*
X185835D01*
Y98115D01*
X185245D01*
Y98213D01*
X184950D01*
Y98312D01*
X184753D01*
Y98410D01*
X184557D01*
Y98508D01*
X184458D01*
Y98607D01*
X184360D01*
Y98803D01*
X184262D01*
Y99000D01*
X184163D01*
Y99393D01*
X184065D01*
Y101360D01*
X189375D01*
Y100573D01*
D02*
G37*
G36*
X188097Y97230D02*
X188392D01*
Y97132D01*
X188588D01*
Y97033D01*
X188687D01*
Y96935D01*
X188883D01*
Y96837D01*
X188982D01*
Y96738D01*
X189080D01*
Y96542D01*
X189178D01*
Y96443D01*
X189277D01*
Y96148D01*
X189375D01*
Y94968D01*
X189277D01*
Y94772D01*
X189178D01*
Y94575D01*
X189080D01*
Y94477D01*
X188982D01*
Y94280D01*
X188883D01*
Y94182D01*
X188687D01*
Y94083D01*
X188588D01*
Y93985D01*
X188392D01*
Y93887D01*
X188097D01*
Y93788D01*
X185343D01*
Y93887D01*
X185048D01*
Y93985D01*
X184852D01*
Y94083D01*
X184753D01*
Y94182D01*
X184557D01*
Y94280D01*
X184458D01*
Y94378D01*
X184360D01*
Y94575D01*
X184262D01*
Y94673D01*
X184163D01*
Y94968D01*
X184065D01*
Y96247D01*
X184163D01*
Y96443D01*
X184262D01*
Y96640D01*
X184360D01*
Y96738D01*
X184458D01*
Y96837D01*
X184557D01*
Y96935D01*
X184655D01*
Y97033D01*
X184852D01*
Y97132D01*
X185048D01*
Y97230D01*
X185343D01*
Y97328D01*
X188097D01*
Y97230D01*
D02*
G37*
G36*
X189277Y92903D02*
X189375D01*
Y92117D01*
X187310D01*
Y90740D01*
X187212D01*
Y90445D01*
X187113D01*
Y90248D01*
X187015D01*
Y90150D01*
X186917D01*
Y90052D01*
X186818D01*
Y89953D01*
X186720D01*
Y89855D01*
X186523D01*
Y89757D01*
X186327D01*
Y89658D01*
X185933D01*
Y89560D01*
X185442D01*
Y89658D01*
X185048D01*
Y89757D01*
X184852D01*
Y89855D01*
X184655D01*
Y89953D01*
X184557D01*
Y90052D01*
X184458D01*
Y90150D01*
X184360D01*
Y90347D01*
X184262D01*
Y90543D01*
X184163D01*
Y90838D01*
X184065D01*
Y92903D01*
X184163D01*
Y93002D01*
X184262D01*
Y92903D01*
X184360D01*
Y93002D01*
X189080D01*
Y92903D01*
X189178D01*
Y93002D01*
X189277D01*
Y92903D01*
D02*
G37*
G36*
X188392Y88773D02*
X188588D01*
Y88675D01*
X188785D01*
Y88577D01*
X188883D01*
Y88478D01*
X188982D01*
Y88380D01*
X189080D01*
Y88282D01*
X189178D01*
Y88085D01*
X189277D01*
Y87987D01*
Y87888D01*
Y87790D01*
X189375D01*
Y86610D01*
X189277D01*
Y86413D01*
X189178D01*
Y86217D01*
X189080D01*
Y86118D01*
X188982D01*
Y85922D01*
X188883D01*
Y85823D01*
X188687D01*
Y85725D01*
X188490D01*
Y85627D01*
X188195D01*
Y85528D01*
X184065D01*
Y86315D01*
X184163D01*
Y86413D01*
X184262D01*
Y86315D01*
X184360D01*
Y86413D01*
X188293D01*
Y86512D01*
X188392D01*
Y86610D01*
X188490D01*
Y86708D01*
X188588D01*
Y86807D01*
X188687D01*
Y87593D01*
X188588D01*
Y87790D01*
X188490D01*
Y87888D01*
X188293D01*
Y87987D01*
X187998D01*
Y88085D01*
X184065D01*
Y88872D01*
X188392D01*
Y88773D01*
D02*
G37*
G36*
X189277Y84545D02*
X189375D01*
Y81792D01*
X188687D01*
Y83758D01*
X184065D01*
Y84643D01*
X189277D01*
Y84545D01*
D02*
G37*
G36*
X188392Y81202D02*
X188588D01*
Y81103D01*
X188785D01*
Y81005D01*
X188883D01*
Y80907D01*
X188982D01*
Y80710D01*
X189080D01*
Y80612D01*
X189178D01*
Y80415D01*
X189277D01*
Y80120D01*
X189375D01*
Y78940D01*
X189277D01*
Y78743D01*
X189178D01*
Y78547D01*
X189080D01*
Y78448D01*
X188982D01*
Y78252D01*
X188785D01*
Y78153D01*
X188687D01*
Y78055D01*
X188490D01*
Y77957D01*
X187507D01*
Y78055D01*
X187212D01*
Y78153D01*
X187113D01*
Y78252D01*
X187015D01*
Y78350D01*
X186917D01*
Y78448D01*
X186818D01*
Y78547D01*
X186720D01*
Y78645D01*
X186622D01*
Y78842D01*
X186523D01*
Y79038D01*
X186425D01*
Y79333D01*
X186327D01*
Y79628D01*
X186228D01*
Y79825D01*
X186130D01*
Y80022D01*
X186032D01*
Y80120D01*
X185933D01*
Y80218D01*
X185835D01*
Y80317D01*
X185048D01*
Y80218D01*
X184950D01*
Y80120D01*
X184852D01*
Y80022D01*
X184753D01*
Y79727D01*
X184655D01*
Y79432D01*
X184753D01*
Y79235D01*
X184852D01*
Y79038D01*
X184950D01*
Y78940D01*
X185147D01*
Y78842D01*
X185638D01*
Y78743D01*
X185737D01*
Y78055D01*
X185638D01*
Y77957D01*
X185245D01*
Y78055D01*
X184950D01*
Y78153D01*
X184753D01*
Y78252D01*
X184557D01*
Y78350D01*
X184458D01*
Y78448D01*
X184360D01*
Y78645D01*
X184262D01*
Y78743D01*
X184163D01*
Y78940D01*
X184065D01*
Y80218D01*
X184163D01*
Y80415D01*
X184262D01*
Y80612D01*
X184360D01*
Y80710D01*
X184458D01*
Y80808D01*
X184557D01*
Y80907D01*
X184655D01*
Y81005D01*
X184753D01*
Y81103D01*
X185048D01*
Y81202D01*
X185933D01*
Y81103D01*
X186130D01*
Y81005D01*
X186327D01*
Y80907D01*
X186425D01*
Y80808D01*
X186523D01*
Y80612D01*
X186622D01*
Y80513D01*
X186720D01*
Y80317D01*
X186818D01*
Y80120D01*
X186917D01*
Y79923D01*
X187015D01*
Y79628D01*
X187113D01*
Y79333D01*
X187212D01*
Y79137D01*
X187310D01*
Y79038D01*
X187408D01*
Y78940D01*
X187507D01*
Y78842D01*
X188392D01*
Y78940D01*
X188490D01*
Y79038D01*
X188588D01*
Y79137D01*
X188687D01*
Y80022D01*
X188588D01*
Y80218D01*
X188490D01*
Y80317D01*
X188293D01*
Y80415D01*
X188097D01*
Y80513D01*
X187703D01*
Y81300D01*
X188392D01*
Y81202D01*
D02*
G37*
G36*
X189375Y76285D02*
X184065D01*
Y77072D01*
X189375D01*
Y76285D01*
D02*
G37*
G36*
X187900Y75302D02*
X188293D01*
Y75203D01*
X188490D01*
Y75105D01*
X188687D01*
Y75007D01*
X188785D01*
Y74908D01*
X188982D01*
Y74712D01*
X189080D01*
Y74613D01*
X189178D01*
Y74417D01*
X189277D01*
Y74220D01*
X189375D01*
Y73040D01*
X189277D01*
Y72745D01*
X189178D01*
Y72647D01*
X189080D01*
Y72450D01*
X188982D01*
Y72352D01*
X188883D01*
Y72253D01*
X188785D01*
Y72155D01*
X188588D01*
Y72057D01*
X188392D01*
Y71958D01*
X188097D01*
Y71860D01*
X185343D01*
Y71958D01*
X185048D01*
Y72057D01*
X184852D01*
Y72155D01*
X184655D01*
Y72253D01*
X184557D01*
Y72352D01*
X184458D01*
Y72450D01*
X184360D01*
Y72548D01*
X184262D01*
Y72745D01*
X184163D01*
Y72942D01*
X184065D01*
Y74220D01*
X184163D01*
Y74515D01*
X184262D01*
Y74613D01*
X184360D01*
Y74810D01*
X184458D01*
Y74908D01*
X184557D01*
Y75007D01*
X184753D01*
Y75105D01*
X184852D01*
Y75203D01*
X185147D01*
Y75302D01*
X185540D01*
Y75400D01*
X187900D01*
Y75302D01*
D02*
G37*
G36*
X189375Y70188D02*
X185835D01*
Y70090D01*
X185933D01*
Y69992D01*
X186130D01*
Y69893D01*
X186327D01*
Y69795D01*
X186523D01*
Y69697D01*
X186720D01*
Y69598D01*
X186917D01*
Y69500D01*
X187113D01*
Y69402D01*
X187310D01*
Y69303D01*
X187507D01*
Y69205D01*
X187703D01*
Y69107D01*
X187900D01*
Y69008D01*
X188097D01*
Y68910D01*
X188195D01*
Y68812D01*
X188392D01*
Y68713D01*
X188588D01*
Y68615D01*
X188785D01*
Y68517D01*
X188982D01*
Y68418D01*
X189178D01*
Y68320D01*
X189277D01*
Y68222D01*
X189375D01*
Y67533D01*
X189277D01*
Y67435D01*
X184163D01*
Y67533D01*
X184065D01*
Y68320D01*
X187605D01*
Y68418D01*
X187408D01*
Y68517D01*
X187212D01*
Y68615D01*
X187015D01*
Y68713D01*
X186818D01*
Y68812D01*
X186622D01*
Y68910D01*
X186425D01*
Y69008D01*
X186228D01*
Y69107D01*
X186032D01*
Y69205D01*
X185933D01*
Y69303D01*
X185737D01*
Y69402D01*
X185540D01*
Y69500D01*
X185343D01*
Y69598D01*
X185147D01*
Y69697D01*
X184950D01*
Y69795D01*
X184753D01*
Y69893D01*
X184557D01*
Y69992D01*
X184360D01*
Y70090D01*
X184163D01*
Y70188D01*
X184065D01*
Y70975D01*
X189375D01*
Y70188D01*
D02*
G37*
G36*
X178558Y91232D02*
X178755D01*
Y91133D01*
X178853D01*
Y90937D01*
X178952D01*
Y83463D01*
X178853D01*
Y83267D01*
X178755D01*
Y83168D01*
X178558D01*
Y83070D01*
X172363D01*
Y82972D01*
X172265D01*
Y82873D01*
X172167D01*
Y67632D01*
X172068D01*
Y66550D01*
X171970D01*
Y65763D01*
X171872D01*
Y65272D01*
X171773D01*
Y64780D01*
X171675D01*
Y64387D01*
X171577D01*
Y63993D01*
X171478D01*
Y63698D01*
X171380D01*
Y63403D01*
X171282D01*
Y63108D01*
X171183D01*
Y62813D01*
X171085D01*
Y62518D01*
X170987D01*
Y62322D01*
X170888D01*
Y62027D01*
X170790D01*
Y61830D01*
X170692D01*
Y61633D01*
X170593D01*
Y61437D01*
X170495D01*
Y61240D01*
X170397D01*
Y61043D01*
X170298D01*
Y60847D01*
X170200D01*
Y60650D01*
X170102D01*
Y60552D01*
X170003D01*
Y60355D01*
X169905D01*
Y60257D01*
X169807D01*
Y60060D01*
X169708D01*
Y59962D01*
X169610D01*
Y59765D01*
X169512D01*
Y59667D01*
X169413D01*
Y59568D01*
X169315D01*
Y59372D01*
X169217D01*
Y59273D01*
X169118D01*
Y59175D01*
X169020D01*
Y59077D01*
X168922D01*
Y58978D01*
X168823D01*
Y58880D01*
X168725D01*
Y58782D01*
X168627D01*
Y58683D01*
X168528D01*
Y58585D01*
X168430D01*
Y58487D01*
X168332D01*
Y58388D01*
X168233D01*
Y58290D01*
X168135D01*
Y58192D01*
X167938D01*
Y58093D01*
X167840D01*
Y57995D01*
X167742D01*
Y57897D01*
X167545D01*
Y57798D01*
X167447D01*
Y57700D01*
X167250D01*
Y57602D01*
X167152D01*
Y57503D01*
X166955D01*
Y57405D01*
X166758D01*
Y57307D01*
X166660D01*
Y57208D01*
X166463D01*
Y57110D01*
X166168D01*
Y57012D01*
X165972D01*
Y56913D01*
X165677D01*
Y56815D01*
X165382D01*
Y56717D01*
X165087D01*
Y56618D01*
X164792D01*
Y56520D01*
X164300D01*
Y56422D01*
X163612D01*
Y56323D01*
X161252D01*
Y56422D01*
X160563D01*
Y56520D01*
X160072D01*
Y56618D01*
X159678D01*
Y56717D01*
X159383D01*
Y56815D01*
X159088D01*
Y56913D01*
X158793D01*
Y57012D01*
X158597D01*
Y57110D01*
X158400D01*
Y57208D01*
X158203D01*
Y57307D01*
X158007D01*
Y57405D01*
X157810D01*
Y57503D01*
X157613D01*
Y57602D01*
X157515D01*
Y57700D01*
X157318D01*
Y57798D01*
X157220D01*
Y57897D01*
X157023D01*
Y57995D01*
X156925D01*
Y58093D01*
X156827D01*
Y58192D01*
X156630D01*
Y58290D01*
X156532D01*
Y58388D01*
X156433D01*
Y58487D01*
X156335D01*
Y58585D01*
X156237D01*
Y58683D01*
X156138D01*
Y58782D01*
X156040D01*
Y58880D01*
X155942D01*
Y58978D01*
X155843D01*
Y59077D01*
X155745D01*
Y59175D01*
X155647D01*
Y59273D01*
X155548D01*
Y59372D01*
X155450D01*
Y59470D01*
X155352D01*
Y59667D01*
X155253D01*
Y59765D01*
X155155D01*
Y59863D01*
X155057D01*
Y60060D01*
X154958D01*
Y60158D01*
X154860D01*
Y60257D01*
X154762D01*
Y60453D01*
X154663D01*
Y60650D01*
X154565D01*
Y60748D01*
X154467D01*
Y60945D01*
X154368D01*
Y61142D01*
X154270D01*
Y61240D01*
X154172D01*
Y61437D01*
X154073D01*
Y61633D01*
X153975D01*
Y61928D01*
X153877D01*
Y62125D01*
X153778D01*
Y62322D01*
X153680D01*
Y62617D01*
X153582D01*
Y62813D01*
X153483D01*
Y63108D01*
X153385D01*
Y63403D01*
X153287D01*
Y63698D01*
X153188D01*
Y63993D01*
X153090D01*
Y64387D01*
X152992D01*
Y64780D01*
X152893D01*
Y65272D01*
X152795D01*
Y65862D01*
X152697D01*
Y66550D01*
X152598D01*
Y67730D01*
X152500D01*
Y69402D01*
Y69500D01*
Y91133D01*
X152598D01*
Y91232D01*
X152893D01*
Y91330D01*
X158990D01*
Y91232D01*
X159285D01*
Y91133D01*
X159383D01*
Y68025D01*
X159482D01*
Y67238D01*
X159580D01*
Y66845D01*
X159678D01*
Y66550D01*
X159777D01*
Y66255D01*
X159875D01*
Y66058D01*
X159973D01*
Y65862D01*
X160072D01*
Y65763D01*
X160170D01*
Y65665D01*
X160268D01*
Y65468D01*
X160367D01*
Y65370D01*
X160465D01*
Y65272D01*
X160563D01*
Y65173D01*
X160662D01*
Y65075D01*
X160858D01*
Y64977D01*
X160957D01*
Y64878D01*
X161153D01*
Y64780D01*
X161448D01*
Y64682D01*
X161743D01*
Y64583D01*
X163022D01*
Y64682D01*
X163317D01*
Y64780D01*
X163612D01*
Y64878D01*
X163808D01*
Y64977D01*
X163907D01*
Y65075D01*
X164103D01*
Y65173D01*
X164202D01*
Y65272D01*
X164300D01*
Y65370D01*
X164398D01*
Y65468D01*
X164497D01*
Y65567D01*
X164595D01*
Y65763D01*
X164693D01*
Y65862D01*
X164792D01*
Y66058D01*
X164890D01*
Y66255D01*
X164988D01*
Y66452D01*
X165087D01*
Y66747D01*
X165185D01*
Y67140D01*
X165283D01*
Y67632D01*
X165382D01*
Y87102D01*
X165480D01*
Y87593D01*
X165578D01*
Y87987D01*
X165677D01*
Y88183D01*
X165775D01*
Y88478D01*
X165873D01*
Y88675D01*
X165972D01*
Y88872D01*
X166070D01*
Y88970D01*
X166168D01*
Y89167D01*
X166267D01*
Y89265D01*
X166365D01*
Y89462D01*
X166463D01*
Y89560D01*
X166562D01*
Y89658D01*
X166660D01*
Y89757D01*
X166758D01*
Y89855D01*
X166857D01*
Y89953D01*
X166955D01*
Y90052D01*
X167053D01*
Y90150D01*
X167152D01*
Y90248D01*
X167348D01*
Y90347D01*
X167447D01*
Y90445D01*
X167545D01*
Y90543D01*
X167742D01*
Y90642D01*
X167938D01*
Y90740D01*
X168135D01*
Y90838D01*
X168332D01*
Y90937D01*
X168627D01*
Y91035D01*
X168922D01*
Y91133D01*
X169315D01*
Y91232D01*
X170200D01*
Y91330D01*
X178558D01*
Y91232D01*
D02*
G37*
G36*
X189375Y62027D02*
X189277D01*
Y61928D01*
X188687D01*
Y63895D01*
X184163D01*
Y63993D01*
X184065D01*
Y64780D01*
X189375D01*
Y62027D01*
D02*
G37*
G36*
Y60847D02*
X189277D01*
Y60748D01*
X188982D01*
Y60650D01*
X188687D01*
Y60552D01*
X188293D01*
Y60453D01*
X188097D01*
Y60355D01*
X187998D01*
Y58978D01*
X188097D01*
Y58880D01*
X188293D01*
Y58782D01*
X188687D01*
Y58683D01*
X188982D01*
Y58585D01*
X189277D01*
Y58487D01*
X189375D01*
Y57700D01*
X189080D01*
Y57798D01*
X188785D01*
Y57897D01*
X188490D01*
Y57995D01*
X188097D01*
Y58093D01*
X187802D01*
Y58192D01*
X187507D01*
Y58290D01*
X187113D01*
Y58388D01*
X186818D01*
Y58487D01*
X186523D01*
Y58585D01*
X186130D01*
Y58683D01*
X185835D01*
Y58782D01*
X185540D01*
Y58880D01*
X185147D01*
Y58978D01*
X184852D01*
Y59077D01*
X184557D01*
Y59175D01*
X184163D01*
Y59273D01*
X184065D01*
Y60060D01*
X184262D01*
Y60158D01*
X184557D01*
Y60257D01*
X184950D01*
Y60355D01*
X185245D01*
Y60453D01*
X185540D01*
Y60552D01*
X185835D01*
Y60650D01*
X186228D01*
Y60748D01*
X186523D01*
Y60847D01*
X186818D01*
Y60945D01*
X187212D01*
Y61043D01*
X187507D01*
Y61142D01*
X187802D01*
Y61240D01*
X188195D01*
Y61338D01*
X188490D01*
Y61437D01*
X188785D01*
Y61535D01*
X189080D01*
Y61633D01*
X189375D01*
Y60847D01*
D02*
G37*
G36*
X189277Y57012D02*
X189375D01*
Y55242D01*
X189277D01*
Y54750D01*
X189178D01*
Y54553D01*
X189080D01*
Y54357D01*
X188982D01*
Y54258D01*
X188883D01*
Y54160D01*
X188785D01*
Y54062D01*
X188588D01*
Y53963D01*
X188392D01*
Y53865D01*
X187310D01*
Y53963D01*
X187113D01*
Y54062D01*
X186917D01*
Y54160D01*
X186818D01*
Y54258D01*
X186720D01*
Y54357D01*
X186622D01*
Y54553D01*
X186523D01*
Y54455D01*
X186425D01*
Y54357D01*
X186327D01*
Y54258D01*
X186228D01*
Y54160D01*
X186032D01*
Y54062D01*
X185638D01*
Y53963D01*
X185343D01*
Y54062D01*
X184950D01*
Y54160D01*
X184753D01*
Y54258D01*
X184557D01*
Y54357D01*
X184458D01*
Y54455D01*
X184360D01*
Y54652D01*
X184262D01*
Y54848D01*
X184163D01*
Y55242D01*
X184065D01*
Y57110D01*
X189277D01*
Y57012D01*
D02*
G37*
G36*
X188097Y53078D02*
X188392D01*
Y52980D01*
X188588D01*
Y52882D01*
X188785D01*
Y52783D01*
X188883D01*
Y52685D01*
X188982D01*
Y52587D01*
X189080D01*
Y52390D01*
X189178D01*
Y52292D01*
X189277D01*
Y51997D01*
X189375D01*
Y50817D01*
X189277D01*
Y50620D01*
X189178D01*
Y50423D01*
X189080D01*
Y50325D01*
X188982D01*
Y50128D01*
X188785D01*
Y50030D01*
X188687D01*
Y49932D01*
X188588D01*
Y49833D01*
X188293D01*
Y49735D01*
X187998D01*
Y49637D01*
X185442D01*
Y49735D01*
X185048D01*
Y49833D01*
X184852D01*
Y49932D01*
X184753D01*
Y50030D01*
X184557D01*
Y50128D01*
X184458D01*
Y50227D01*
X184360D01*
Y50423D01*
X184262D01*
Y50522D01*
X184163D01*
Y50817D01*
X184065D01*
Y52095D01*
X184163D01*
Y52292D01*
X184262D01*
Y52488D01*
X184360D01*
Y52587D01*
X184458D01*
Y52685D01*
X184557D01*
Y52783D01*
X184655D01*
Y52882D01*
X184852D01*
Y52980D01*
X185048D01*
Y53078D01*
X185343D01*
Y53177D01*
X188097D01*
Y53078D01*
D02*
G37*
G36*
X189277Y48752D02*
X189375D01*
Y47965D01*
X187113D01*
Y46883D01*
X187212D01*
Y46687D01*
X187310D01*
Y46588D01*
X187408D01*
Y46490D01*
X187605D01*
Y46392D01*
X188982D01*
Y46293D01*
X189277D01*
Y46097D01*
X189375D01*
Y45408D01*
X189277D01*
Y45310D01*
X189178D01*
Y45408D01*
X188982D01*
Y45507D01*
X187703D01*
Y45605D01*
X187310D01*
Y45703D01*
X187113D01*
Y45802D01*
X187015D01*
Y45900D01*
X186917D01*
Y45998D01*
X186818D01*
Y46195D01*
X186720D01*
Y46097D01*
X186622D01*
Y45900D01*
X186523D01*
Y45802D01*
X186327D01*
Y45703D01*
X186130D01*
Y45605D01*
X185737D01*
Y45507D01*
X185442D01*
Y45605D01*
X184950D01*
Y45703D01*
X184753D01*
Y45802D01*
X184655D01*
Y45900D01*
X184557D01*
Y45998D01*
X184458D01*
Y46097D01*
X184360D01*
Y46195D01*
X184262D01*
Y46392D01*
X184163D01*
Y46785D01*
X184065D01*
Y48752D01*
X184163D01*
Y48850D01*
X189277D01*
Y48752D01*
D02*
G37*
G36*
X189375Y44130D02*
X189178D01*
Y44032D01*
X188785D01*
Y43933D01*
X188490D01*
Y43835D01*
X188097D01*
Y43737D01*
X187998D01*
Y42262D01*
X188097D01*
Y42163D01*
X188490D01*
Y42065D01*
X188785D01*
Y41967D01*
X189178D01*
Y41868D01*
X189375D01*
Y41082D01*
X188982D01*
Y41180D01*
X188588D01*
Y41278D01*
X188293D01*
Y41377D01*
X187998D01*
Y41475D01*
X187605D01*
Y41573D01*
X187310D01*
Y41672D01*
X187015D01*
Y41770D01*
X186622D01*
Y41868D01*
X186327D01*
Y41967D01*
X186032D01*
Y42065D01*
X185638D01*
Y42163D01*
X185343D01*
Y42262D01*
X185048D01*
Y42360D01*
X184655D01*
Y42458D01*
X184360D01*
Y42557D01*
X184065D01*
Y43343D01*
X184163D01*
Y43442D01*
X184458D01*
Y43540D01*
X184753D01*
Y43638D01*
X185048D01*
Y43737D01*
X185343D01*
Y43835D01*
X185737D01*
Y43933D01*
X186032D01*
Y44032D01*
X186327D01*
Y44130D01*
X186720D01*
Y44228D01*
X187015D01*
Y44327D01*
X187310D01*
Y44425D01*
X187703D01*
Y44523D01*
X187998D01*
Y44622D01*
X188293D01*
Y44720D01*
X188588D01*
Y44818D01*
X188982D01*
Y44917D01*
X189375D01*
Y44130D01*
D02*
G37*
G36*
X184753Y40000D02*
X189277D01*
Y39902D01*
X189375D01*
Y39115D01*
X184753D01*
Y37837D01*
X184065D01*
Y41278D01*
X184753D01*
Y40000D01*
D02*
G37*
G36*
X187998Y37345D02*
X188392D01*
Y37247D01*
X188588D01*
Y37148D01*
X188687D01*
Y37050D01*
X188883D01*
Y36952D01*
X188982D01*
Y36853D01*
X189080D01*
Y36657D01*
X189178D01*
Y36460D01*
X189277D01*
Y36263D01*
X189375D01*
Y35083D01*
X189277D01*
Y34887D01*
X189178D01*
Y34690D01*
X189080D01*
Y34493D01*
X188982D01*
Y34395D01*
X188883D01*
Y34297D01*
X188687D01*
Y34198D01*
X188588D01*
Y34100D01*
X188392D01*
Y34002D01*
X188097D01*
Y33903D01*
X185343D01*
Y34002D01*
X185048D01*
Y34100D01*
X184852D01*
Y34198D01*
X184655D01*
Y34297D01*
X184557D01*
Y34395D01*
X184458D01*
Y34493D01*
X184360D01*
Y34592D01*
X184262D01*
Y34788D01*
X184163D01*
Y34985D01*
X184065D01*
Y36362D01*
X184163D01*
Y36558D01*
X184262D01*
Y36657D01*
X184360D01*
Y36853D01*
X184458D01*
Y36952D01*
X184557D01*
Y37050D01*
X184753D01*
Y37148D01*
X184852D01*
Y37247D01*
X185048D01*
Y37345D01*
X185442D01*
Y37443D01*
X187998D01*
Y37345D01*
D02*
G37*
G36*
X189375Y32232D02*
X187113D01*
Y31150D01*
X187212D01*
Y30953D01*
X187310D01*
Y30855D01*
X187408D01*
Y30757D01*
X187605D01*
Y30658D01*
X188883D01*
Y30560D01*
X189178D01*
Y30462D01*
X189277D01*
Y30363D01*
X189375D01*
Y29675D01*
X189277D01*
Y29577D01*
X189080D01*
Y29675D01*
X188883D01*
Y29773D01*
X187605D01*
Y29872D01*
X187310D01*
Y29970D01*
X187113D01*
Y30068D01*
X187015D01*
Y30167D01*
X186917D01*
Y30265D01*
X186818D01*
Y30462D01*
X186720D01*
Y30363D01*
X186622D01*
Y30167D01*
X186523D01*
Y30068D01*
X186327D01*
Y29970D01*
X186228D01*
Y29872D01*
X185835D01*
Y29773D01*
X185343D01*
Y29872D01*
X184950D01*
Y29970D01*
X184753D01*
Y30068D01*
X184557D01*
Y30167D01*
X184458D01*
Y30265D01*
X184360D01*
Y30462D01*
X184262D01*
Y30658D01*
X184163D01*
Y31052D01*
X184065D01*
Y33018D01*
X189375D01*
Y32232D01*
D02*
G37*
G36*
X184262Y29282D02*
X184458D01*
Y29183D01*
X184753D01*
Y29085D01*
X184950D01*
Y28987D01*
X185147D01*
Y28888D01*
X185343D01*
Y28790D01*
X185638D01*
Y28692D01*
X185835D01*
Y28593D01*
X186032D01*
Y28495D01*
X186228D01*
Y28397D01*
X186425D01*
Y28298D01*
X186720D01*
Y28200D01*
X186917D01*
Y28102D01*
X187113D01*
Y28003D01*
X187310D01*
Y27905D01*
X189375D01*
Y27118D01*
X187408D01*
Y27020D01*
X187212D01*
Y26922D01*
X187015D01*
Y26823D01*
X186720D01*
Y26725D01*
X186523D01*
Y26627D01*
X186327D01*
Y26528D01*
X186130D01*
Y26430D01*
X185933D01*
Y26332D01*
X185638D01*
Y26233D01*
X185442D01*
Y26135D01*
X185245D01*
Y26037D01*
X185048D01*
Y25938D01*
X184753D01*
Y25840D01*
X184557D01*
Y25742D01*
X184360D01*
Y25643D01*
X184065D01*
Y26528D01*
X184262D01*
Y26627D01*
X184557D01*
Y26725D01*
X184753D01*
Y26823D01*
X185048D01*
Y26922D01*
X185245D01*
Y27020D01*
X185442D01*
Y27118D01*
X185737D01*
Y27217D01*
X185933D01*
Y27315D01*
X186130D01*
Y27413D01*
X186425D01*
Y27512D01*
X186327D01*
Y27610D01*
X186032D01*
Y27708D01*
X185835D01*
Y27807D01*
X185638D01*
Y27905D01*
X185343D01*
Y28003D01*
X185147D01*
Y28102D01*
X184950D01*
Y28200D01*
X184655D01*
Y28298D01*
X184458D01*
Y28397D01*
X184163D01*
Y28495D01*
X184065D01*
Y29380D01*
X184262D01*
Y29282D01*
D02*
G37*
G36*
X174822Y53865D02*
X175313D01*
Y53767D01*
X175608D01*
Y53668D01*
X175903D01*
Y53570D01*
X176198D01*
Y53472D01*
X176395D01*
Y53373D01*
X176493D01*
Y53275D01*
X176690D01*
Y53177D01*
X176887D01*
Y53078D01*
X176985D01*
Y52980D01*
X177083D01*
Y52882D01*
X177182D01*
Y52783D01*
X177378D01*
Y52685D01*
X177477D01*
Y52587D01*
X177575D01*
Y52488D01*
X177673D01*
Y52390D01*
X177772D01*
Y52193D01*
X177870D01*
Y52095D01*
X177968D01*
Y51997D01*
X178067D01*
Y51800D01*
X178165D01*
Y51702D01*
X178263D01*
Y51505D01*
X178362D01*
Y51308D01*
X178460D01*
Y51112D01*
X178558D01*
Y50915D01*
X178657D01*
Y50620D01*
X178755D01*
Y50227D01*
X178853D01*
Y49637D01*
X178952D01*
Y30855D01*
X178853D01*
Y30560D01*
X178755D01*
Y30462D01*
X178657D01*
Y30363D01*
X178558D01*
Y30265D01*
X178460D01*
Y30167D01*
X178263D01*
Y30068D01*
X178165D01*
Y29970D01*
X178067D01*
Y29872D01*
X177870D01*
Y29773D01*
X177772D01*
Y29675D01*
X177673D01*
Y29577D01*
X177575D01*
Y29478D01*
X177378D01*
Y29380D01*
X177280D01*
Y29282D01*
X177182D01*
Y29183D01*
X177083D01*
Y29085D01*
X176887D01*
Y28987D01*
X176788D01*
Y28888D01*
X176690D01*
Y28790D01*
X176493D01*
Y28692D01*
X176395D01*
Y28593D01*
X176297D01*
Y28495D01*
X176100D01*
Y28397D01*
X176002D01*
Y28298D01*
X175903D01*
Y28200D01*
X175805D01*
Y28102D01*
X175608D01*
Y28003D01*
X175510D01*
Y27905D01*
X175412D01*
Y27807D01*
X175313D01*
Y27708D01*
X175117D01*
Y27610D01*
X175018D01*
Y27512D01*
X174920D01*
Y27413D01*
X174723D01*
Y27315D01*
X174625D01*
Y27217D01*
X174527D01*
Y27118D01*
X174428D01*
Y27020D01*
X174232D01*
Y26922D01*
X174133D01*
Y26823D01*
X174035D01*
Y26725D01*
X173838D01*
Y26627D01*
X173740D01*
Y26528D01*
X173642D01*
Y26430D01*
X173543D01*
Y26332D01*
X173347D01*
Y26233D01*
X173248D01*
Y26135D01*
X173150D01*
Y26037D01*
X172953D01*
Y25938D01*
X172855D01*
Y25840D01*
X172757D01*
Y25742D01*
X172658D01*
Y25643D01*
X172462D01*
Y25545D01*
X172167D01*
Y25643D01*
X172068D01*
Y45605D01*
X171970D01*
Y45703D01*
X171773D01*
Y45802D01*
X152598D01*
Y45900D01*
X152500D01*
Y53767D01*
X152598D01*
Y53865D01*
X152697D01*
Y53963D01*
X174822D01*
Y53865D01*
D02*
G37*
%LPC*%
G36*
X98705Y179191D02*
X89805D01*
Y179178D01*
X89818D01*
Y179164D01*
X89832D01*
Y179150D01*
X89846D01*
Y179137D01*
X89859D01*
Y179123D01*
X89873D01*
Y179109D01*
X89887D01*
Y179096D01*
X89900D01*
Y179082D01*
X89914D01*
Y179068D01*
X89928D01*
Y179055D01*
X89941D01*
Y179041D01*
X89955D01*
Y179027D01*
X89969D01*
Y179014D01*
X89982D01*
Y179000D01*
X90010D01*
Y178986D01*
X90023D01*
Y178973D01*
X90037D01*
Y178959D01*
X90051D01*
Y178945D01*
X90064D01*
Y178932D01*
X90078D01*
Y178918D01*
X90092D01*
Y178904D01*
X90105D01*
Y178891D01*
X90119D01*
Y178877D01*
X90133D01*
Y178863D01*
X90146D01*
Y178850D01*
X90160D01*
Y178836D01*
X90174D01*
Y178822D01*
X90188D01*
Y178809D01*
X90201D01*
Y178795D01*
X90215D01*
Y178781D01*
X90228D01*
Y178768D01*
X90242D01*
Y178754D01*
X90256D01*
Y178740D01*
X90270D01*
Y178727D01*
X90283D01*
Y178713D01*
X90297D01*
Y178699D01*
X90311D01*
Y178685D01*
X90324D01*
Y178672D01*
X90338D01*
Y178658D01*
X90352D01*
Y178645D01*
X90365D01*
Y178631D01*
X90379D01*
Y178617D01*
X90393D01*
Y178603D01*
X90406D01*
Y178590D01*
X90420D01*
Y178576D01*
X90434D01*
Y178562D01*
X90447D01*
Y178549D01*
X90461D01*
Y178535D01*
X90475D01*
Y178522D01*
X90488D01*
Y178508D01*
X90502D01*
Y178494D01*
X90516D01*
Y178481D01*
X90529D01*
Y178467D01*
X90543D01*
Y178453D01*
X90557D01*
Y178439D01*
X90570D01*
Y178426D01*
X90584D01*
Y178412D01*
X90598D01*
Y178398D01*
X90611D01*
Y178385D01*
X90625D01*
Y178371D01*
X90639D01*
Y178357D01*
X90652D01*
Y178344D01*
X90666D01*
Y178330D01*
X90680D01*
Y178316D01*
X90693D01*
Y178303D01*
X90707D01*
Y178289D01*
X90721D01*
Y178275D01*
X90734D01*
Y178262D01*
X90748D01*
Y178248D01*
X90762D01*
Y178234D01*
X90775D01*
Y178221D01*
X90789D01*
Y178207D01*
X90803D01*
Y178193D01*
X90816D01*
Y178180D01*
X90830D01*
Y178166D01*
X90844D01*
Y178152D01*
X90857D01*
Y178139D01*
X90871D01*
Y178125D01*
X90885D01*
Y178111D01*
X90898D01*
Y178098D01*
X90912D01*
Y178084D01*
X90926D01*
Y178070D01*
X90939D01*
Y178057D01*
X90953D01*
Y178043D01*
X90967D01*
Y178029D01*
X90980D01*
Y178016D01*
X90994D01*
Y178002D01*
X91008D01*
Y177988D01*
X91022D01*
Y177975D01*
X91035D01*
Y177961D01*
X91049D01*
Y177947D01*
X91062D01*
Y177934D01*
X91076D01*
Y177920D01*
X91090D01*
Y177906D01*
X91104D01*
Y177893D01*
X91117D01*
Y177879D01*
X91131D01*
Y177865D01*
X91145D01*
Y177852D01*
X91158D01*
Y177838D01*
X91172D01*
Y177824D01*
X91186D01*
Y177811D01*
X91199D01*
Y177797D01*
X91213D01*
Y177783D01*
X91227D01*
Y177769D01*
X91240D01*
Y177756D01*
X91254D01*
Y177742D01*
X91268D01*
Y177728D01*
X91281D01*
Y177715D01*
X91295D01*
Y177701D01*
X91309D01*
Y177688D01*
X91322D01*
Y177674D01*
X91336D01*
Y177660D01*
X91350D01*
Y177647D01*
X91363D01*
Y177633D01*
X91377D01*
Y177619D01*
X91391D01*
Y177605D01*
X91404D01*
Y177592D01*
X91418D01*
Y177578D01*
X91432D01*
Y177565D01*
X91445D01*
Y177551D01*
X91459D01*
Y177537D01*
X91473D01*
Y177523D01*
X91486D01*
Y177510D01*
X91500D01*
Y177496D01*
X91514D01*
Y177482D01*
X91527D01*
Y177469D01*
X91541D01*
Y177455D01*
X91555D01*
Y177441D01*
X91568D01*
Y177428D01*
X91582D01*
Y177414D01*
X91596D01*
Y177400D01*
X91609D01*
Y177387D01*
X91623D01*
Y177373D01*
X91637D01*
Y177359D01*
X91650D01*
Y177346D01*
X91664D01*
Y177332D01*
X91678D01*
Y177318D01*
X91691D01*
Y177305D01*
X91705D01*
Y177291D01*
X91719D01*
Y177277D01*
X91732D01*
Y177264D01*
X91746D01*
Y177250D01*
X91760D01*
Y177236D01*
X91773D01*
Y177223D01*
X91787D01*
Y177209D01*
X91801D01*
Y177195D01*
X91814D01*
Y177182D01*
X91828D01*
Y177168D01*
X91842D01*
Y177154D01*
X91856D01*
Y177141D01*
X91869D01*
Y177127D01*
X91883D01*
Y177113D01*
X91896D01*
Y177100D01*
X91910D01*
Y177086D01*
X91924D01*
Y177072D01*
X91938D01*
Y177059D01*
X91951D01*
Y177045D01*
X91965D01*
Y177031D01*
X91979D01*
Y177018D01*
X92006D01*
Y177004D01*
X92019D01*
Y176990D01*
X92033D01*
Y176977D01*
X92047D01*
Y176963D01*
X92061D01*
Y176949D01*
X92074D01*
Y176936D01*
X92088D01*
Y176922D01*
X92102D01*
Y176908D01*
X92115D01*
Y176894D01*
X92129D01*
Y176881D01*
X92143D01*
Y176867D01*
X92156D01*
Y176854D01*
X92170D01*
Y176840D01*
X92184D01*
Y176826D01*
X92197D01*
Y176813D01*
X92211D01*
Y176799D01*
X92225D01*
Y176785D01*
X92238D01*
Y176771D01*
X92252D01*
Y176758D01*
X92266D01*
Y176744D01*
X92279D01*
Y176731D01*
X92293D01*
Y176717D01*
X92307D01*
Y176703D01*
X92320D01*
Y176690D01*
X92334D01*
Y176676D01*
X92348D01*
Y176662D01*
X92361D01*
Y176648D01*
X92375D01*
Y176635D01*
X92389D01*
Y176621D01*
X92402D01*
Y176607D01*
X92416D01*
Y176594D01*
X92430D01*
Y176580D01*
X92443D01*
Y176566D01*
X92457D01*
Y176553D01*
X92471D01*
Y176539D01*
X92484D01*
Y176525D01*
X92498D01*
Y176512D01*
X92512D01*
Y176498D01*
X92525D01*
Y176484D01*
X92539D01*
Y176471D01*
X92553D01*
Y176457D01*
X92566D01*
Y176443D01*
X92580D01*
Y176430D01*
X92594D01*
Y176416D01*
X92607D01*
Y176402D01*
X92621D01*
Y176389D01*
X92635D01*
Y176375D01*
X92648D01*
Y176361D01*
X92662D01*
Y176348D01*
X92676D01*
Y176334D01*
X92689D01*
Y176320D01*
X92703D01*
Y176307D01*
X92717D01*
Y176293D01*
X92730D01*
Y176279D01*
X92744D01*
Y176266D01*
X92758D01*
Y176252D01*
X92772D01*
Y176238D01*
X92785D01*
Y176225D01*
X92799D01*
Y176211D01*
X92813D01*
Y176197D01*
X92826D01*
Y176184D01*
X92840D01*
Y176170D01*
X92853D01*
Y176156D01*
X92867D01*
Y176143D01*
X92881D01*
Y176129D01*
X92895D01*
Y176115D01*
X92908D01*
Y176102D01*
X92922D01*
Y176088D01*
X92936D01*
Y176074D01*
X92949D01*
Y176060D01*
X92963D01*
Y176047D01*
X92977D01*
Y176033D01*
X92990D01*
Y176020D01*
X93004D01*
Y176006D01*
X93018D01*
Y175992D01*
X93031D01*
Y175979D01*
X93045D01*
Y175965D01*
X93059D01*
Y175951D01*
X93072D01*
Y175937D01*
X93086D01*
Y175924D01*
X93100D01*
Y175910D01*
X93113D01*
Y175897D01*
X93127D01*
Y175883D01*
X93141D01*
Y175869D01*
X93154D01*
Y175856D01*
X93168D01*
Y175842D01*
X93182D01*
Y175828D01*
X93195D01*
Y175814D01*
X93209D01*
Y175801D01*
X93223D01*
Y175787D01*
X93236D01*
Y175773D01*
X93250D01*
Y175760D01*
X93264D01*
Y175746D01*
X93277D01*
Y175732D01*
X93291D01*
Y175719D01*
X93305D01*
Y175705D01*
X93318D01*
Y175691D01*
X93332D01*
Y175678D01*
X93346D01*
Y175664D01*
X93359D01*
Y175650D01*
X93373D01*
Y175637D01*
X93387D01*
Y175623D01*
X93400D01*
Y175609D01*
X93414D01*
Y175596D01*
X93428D01*
Y175582D01*
X93441D01*
Y175568D01*
X93455D01*
Y175555D01*
X93469D01*
Y175541D01*
X93482D01*
Y175527D01*
X93496D01*
Y175514D01*
X93510D01*
Y175500D01*
X93523D01*
Y175486D01*
X93537D01*
Y175473D01*
X93551D01*
Y175459D01*
X93564D01*
Y175445D01*
X93578D01*
Y175432D01*
X93592D01*
Y175418D01*
X93606D01*
Y175404D01*
X93619D01*
Y175391D01*
X93633D01*
Y175377D01*
X93647D01*
Y175363D01*
X93660D01*
Y175350D01*
X93674D01*
Y175336D01*
X93687D01*
Y175322D01*
X93701D01*
Y175309D01*
X93715D01*
Y175295D01*
X93729D01*
Y175281D01*
X93742D01*
Y175268D01*
X93756D01*
Y175254D01*
X93770D01*
Y175240D01*
X93783D01*
Y175227D01*
X93797D01*
Y175213D01*
X93811D01*
Y175199D01*
X93824D01*
Y175186D01*
X93838D01*
Y175172D01*
X93852D01*
Y175158D01*
X93865D01*
Y175145D01*
X93879D01*
Y175131D01*
X93893D01*
Y175117D01*
X93906D01*
Y175103D01*
X93920D01*
Y175090D01*
X93934D01*
Y175076D01*
X93947D01*
Y175063D01*
X93961D01*
Y175049D01*
X93988D01*
Y175035D01*
X94002D01*
Y175022D01*
X94016D01*
Y175008D01*
X94029D01*
Y174994D01*
X94043D01*
Y174980D01*
X94057D01*
Y174967D01*
X94070D01*
Y174953D01*
X94084D01*
Y174940D01*
X94098D01*
Y174926D01*
X94111D01*
Y174912D01*
X94125D01*
Y174898D01*
X94139D01*
Y174885D01*
X94152D01*
Y174871D01*
X94166D01*
Y174857D01*
X94180D01*
Y174844D01*
X94193D01*
Y174830D01*
X94207D01*
Y174816D01*
X94234D01*
Y174830D01*
X94248D01*
Y174844D01*
X94262D01*
Y174857D01*
X94275D01*
Y174871D01*
X94289D01*
Y174885D01*
X94303D01*
Y174898D01*
X94316D01*
Y174912D01*
X94330D01*
Y174926D01*
X94344D01*
Y174940D01*
X94357D01*
Y174953D01*
X94371D01*
Y174967D01*
X94385D01*
Y174980D01*
X94412D01*
Y174994D01*
X94426D01*
Y175008D01*
X94439D01*
Y175022D01*
X94453D01*
Y175035D01*
X94467D01*
Y175049D01*
X94481D01*
Y175063D01*
X94494D01*
Y175076D01*
X94508D01*
Y175090D01*
X94521D01*
Y175103D01*
X94535D01*
Y175117D01*
X94549D01*
Y175131D01*
X94563D01*
Y175145D01*
X94576D01*
Y175158D01*
X94590D01*
Y175172D01*
X94604D01*
Y175186D01*
X94617D01*
Y175199D01*
X94631D01*
Y175213D01*
X94644D01*
Y175227D01*
X94658D01*
Y175240D01*
X94672D01*
Y175254D01*
X94686D01*
Y175268D01*
X94699D01*
Y175281D01*
X94713D01*
Y175295D01*
X94727D01*
Y175309D01*
X94740D01*
Y175322D01*
X94754D01*
Y175336D01*
X94768D01*
Y175350D01*
X94781D01*
Y175363D01*
X94795D01*
Y175377D01*
X94809D01*
Y175391D01*
X94822D01*
Y175404D01*
X94836D01*
Y175418D01*
X94850D01*
Y175432D01*
X94863D01*
Y175445D01*
X94877D01*
Y175459D01*
X94891D01*
Y175473D01*
X94904D01*
Y175486D01*
X94918D01*
Y175500D01*
X94932D01*
Y175514D01*
X94945D01*
Y175527D01*
X94959D01*
Y175541D01*
X94973D01*
Y175555D01*
X95000D01*
Y175568D01*
X95014D01*
Y175582D01*
X95027D01*
Y175596D01*
X95041D01*
Y175609D01*
X95055D01*
Y175623D01*
X95068D01*
Y175637D01*
X95082D01*
Y175650D01*
X95096D01*
Y175664D01*
X95109D01*
Y175678D01*
X95123D01*
Y175691D01*
X95137D01*
Y175705D01*
X95150D01*
Y175719D01*
X95164D01*
Y175732D01*
X95178D01*
Y175746D01*
X95191D01*
Y175760D01*
X95205D01*
Y175773D01*
X95219D01*
Y175787D01*
X95232D01*
Y175801D01*
X95246D01*
Y175814D01*
X95260D01*
Y175828D01*
X95273D01*
Y175842D01*
X95287D01*
Y175856D01*
X95301D01*
Y175869D01*
X95314D01*
Y175883D01*
X95328D01*
Y175897D01*
X95342D01*
Y175910D01*
X95355D01*
Y175924D01*
X95369D01*
Y175937D01*
X95383D01*
Y175951D01*
X95397D01*
Y175965D01*
X95410D01*
Y175979D01*
X95424D01*
Y175992D01*
X95438D01*
Y176006D01*
X95451D01*
Y176020D01*
X95465D01*
Y176033D01*
X95478D01*
Y176047D01*
X95492D01*
Y176060D01*
X95506D01*
Y176074D01*
X95520D01*
Y176088D01*
X95533D01*
Y176102D01*
X95547D01*
Y176115D01*
X95561D01*
Y176129D01*
X95588D01*
Y176143D01*
X95602D01*
Y176156D01*
X95615D01*
Y176170D01*
X95629D01*
Y176184D01*
X95643D01*
Y176197D01*
X95656D01*
Y176211D01*
X95670D01*
Y176225D01*
X95684D01*
Y176238D01*
X95697D01*
Y176252D01*
X95711D01*
Y176266D01*
X95725D01*
Y176279D01*
X95738D01*
Y176293D01*
X95752D01*
Y176307D01*
X95766D01*
Y176320D01*
X95779D01*
Y176334D01*
X95793D01*
Y176348D01*
X95807D01*
Y176361D01*
X95820D01*
Y176375D01*
X95834D01*
Y176389D01*
X95848D01*
Y176402D01*
X95861D01*
Y176416D01*
X95875D01*
Y176430D01*
X95889D01*
Y176443D01*
X95902D01*
Y176457D01*
X95916D01*
Y176471D01*
X95930D01*
Y176484D01*
X95943D01*
Y176498D01*
X95957D01*
Y176512D01*
X95971D01*
Y176525D01*
X95984D01*
Y176539D01*
X95998D01*
Y176553D01*
X96012D01*
Y176566D01*
X96025D01*
Y176580D01*
X96039D01*
Y176594D01*
X96053D01*
Y176607D01*
X96066D01*
Y176621D01*
X96080D01*
Y176635D01*
X96094D01*
Y176648D01*
X96107D01*
Y176662D01*
X96121D01*
Y176676D01*
X96135D01*
Y176690D01*
X96148D01*
Y176703D01*
X96176D01*
Y176717D01*
X96189D01*
Y176731D01*
X96203D01*
Y176744D01*
X96217D01*
Y176758D01*
X96231D01*
Y176771D01*
X96244D01*
Y176785D01*
X96258D01*
Y176799D01*
X96272D01*
Y176813D01*
X96285D01*
Y176826D01*
X96299D01*
Y176840D01*
X96312D01*
Y176854D01*
X96326D01*
Y176867D01*
X96340D01*
Y176881D01*
X96354D01*
Y176894D01*
X96367D01*
Y176908D01*
X96381D01*
Y176922D01*
X96394D01*
Y176936D01*
X96408D01*
Y176949D01*
X96422D01*
Y176963D01*
X96436D01*
Y176977D01*
X96449D01*
Y176990D01*
X96463D01*
Y177004D01*
X96477D01*
Y177018D01*
X96490D01*
Y177031D01*
X96504D01*
Y177045D01*
X96518D01*
Y177059D01*
X96531D01*
Y177072D01*
X96545D01*
Y177086D01*
X96559D01*
Y177100D01*
X96572D01*
Y177113D01*
X96586D01*
Y177127D01*
X96600D01*
Y177141D01*
X96613D01*
Y177154D01*
X96627D01*
Y177168D01*
X96641D01*
Y177182D01*
X96654D01*
Y177195D01*
X96668D01*
Y177209D01*
X96682D01*
Y177223D01*
X96695D01*
Y177236D01*
X96709D01*
Y177250D01*
X96723D01*
Y177264D01*
X96736D01*
Y177277D01*
X96764D01*
Y177291D01*
X96777D01*
Y177305D01*
X96791D01*
Y177318D01*
X96805D01*
Y177332D01*
X96818D01*
Y177346D01*
X96832D01*
Y177359D01*
X96846D01*
Y177373D01*
X96859D01*
Y177387D01*
X96873D01*
Y177400D01*
X96887D01*
Y177414D01*
X96900D01*
Y177428D01*
X96914D01*
Y177441D01*
X96928D01*
Y177455D01*
X96941D01*
Y177469D01*
X96955D01*
Y177482D01*
X96969D01*
Y177496D01*
X96982D01*
Y177510D01*
X96996D01*
Y177523D01*
X97010D01*
Y177537D01*
X97023D01*
Y177551D01*
X97037D01*
Y177565D01*
X97051D01*
Y177578D01*
X97064D01*
Y177592D01*
X97078D01*
Y177605D01*
X97092D01*
Y177619D01*
X97105D01*
Y177633D01*
X97119D01*
Y177647D01*
X97133D01*
Y177660D01*
X97146D01*
Y177674D01*
X97160D01*
Y177688D01*
X97174D01*
Y177701D01*
X97188D01*
Y177715D01*
X97201D01*
Y177728D01*
X97215D01*
Y177742D01*
X97228D01*
Y177756D01*
X97242D01*
Y177769D01*
X97256D01*
Y177783D01*
X97269D01*
Y177797D01*
X97283D01*
Y177811D01*
X97297D01*
Y177824D01*
X97311D01*
Y177838D01*
X97324D01*
Y177852D01*
X97352D01*
Y177865D01*
X97365D01*
Y177879D01*
X97379D01*
Y177893D01*
X97393D01*
Y177906D01*
X97406D01*
Y177920D01*
X97420D01*
Y177934D01*
X97434D01*
Y177947D01*
X97447D01*
Y177961D01*
X97461D01*
Y177975D01*
X97475D01*
Y177988D01*
X97488D01*
Y178002D01*
X97502D01*
Y178016D01*
X97516D01*
Y178029D01*
X97529D01*
Y178043D01*
X97543D01*
Y178057D01*
X97557D01*
Y178070D01*
X97570D01*
Y178084D01*
X97584D01*
Y178098D01*
X97598D01*
Y178111D01*
X97611D01*
Y178125D01*
X97625D01*
Y178139D01*
X97639D01*
Y178152D01*
X97652D01*
Y178166D01*
X97666D01*
Y178180D01*
X97680D01*
Y178193D01*
X97693D01*
Y178207D01*
X97707D01*
Y178221D01*
X97721D01*
Y178234D01*
X97734D01*
Y178248D01*
X97748D01*
Y178262D01*
X97762D01*
Y178275D01*
X97775D01*
Y178289D01*
X97789D01*
Y178303D01*
X97803D01*
Y178316D01*
X97816D01*
Y178330D01*
X97830D01*
Y178344D01*
X97844D01*
Y178357D01*
X97857D01*
Y178371D01*
X97871D01*
Y178385D01*
X97885D01*
Y178398D01*
X97898D01*
Y178412D01*
X97912D01*
Y178426D01*
X97939D01*
Y178439D01*
X97953D01*
Y178453D01*
X97967D01*
Y178467D01*
X97980D01*
Y178481D01*
X97994D01*
Y178494D01*
X98008D01*
Y178508D01*
X98022D01*
Y178522D01*
X98035D01*
Y178535D01*
X98049D01*
Y178549D01*
X98062D01*
Y178562D01*
X98076D01*
Y178576D01*
X98090D01*
Y178590D01*
X98103D01*
Y178603D01*
X98117D01*
Y178617D01*
X98131D01*
Y178631D01*
X98145D01*
Y178645D01*
X98158D01*
Y178658D01*
X98172D01*
Y178672D01*
X98186D01*
Y178685D01*
X98199D01*
Y178699D01*
X98213D01*
Y178713D01*
X98227D01*
Y178727D01*
X98240D01*
Y178740D01*
X98254D01*
Y178754D01*
X98268D01*
Y178768D01*
X98281D01*
Y178781D01*
X98295D01*
Y178795D01*
X98309D01*
Y178809D01*
X98322D01*
Y178822D01*
X98336D01*
Y178836D01*
X98350D01*
Y178850D01*
X98363D01*
Y178863D01*
X98377D01*
Y178877D01*
X98391D01*
Y178891D01*
X98404D01*
Y178904D01*
X98418D01*
Y178918D01*
X98432D01*
Y178932D01*
X98445D01*
Y178945D01*
X98459D01*
Y178959D01*
X98473D01*
Y178973D01*
X98486D01*
Y178986D01*
X98500D01*
Y179000D01*
X98527D01*
Y179014D01*
X98541D01*
Y179027D01*
X98555D01*
Y179041D01*
X98568D01*
Y179055D01*
X98582D01*
Y179068D01*
X98596D01*
Y179082D01*
X98609D01*
Y179096D01*
X98623D01*
Y179109D01*
X98637D01*
Y179123D01*
X98650D01*
Y179137D01*
X98664D01*
Y179150D01*
X98678D01*
Y179164D01*
X98691D01*
Y179178D01*
X98705D01*
Y179191D01*
D02*
G37*
G36*
X88848Y178426D02*
X88834D01*
Y165000D01*
X88848D01*
Y165014D01*
X88861D01*
Y165027D01*
X88875D01*
Y165041D01*
X88889D01*
Y165055D01*
X88902D01*
Y165068D01*
X88916D01*
Y165082D01*
X88930D01*
Y165096D01*
X88943D01*
Y165109D01*
X88957D01*
Y165123D01*
X88971D01*
Y165137D01*
X88984D01*
Y165150D01*
X88998D01*
Y165164D01*
X89012D01*
Y165178D01*
X89025D01*
Y165191D01*
X89039D01*
Y165205D01*
X89053D01*
Y165219D01*
X89066D01*
Y165232D01*
X89080D01*
Y165246D01*
X89094D01*
Y165260D01*
X89107D01*
Y165273D01*
X89121D01*
Y165287D01*
X89135D01*
Y165301D01*
X89148D01*
Y165314D01*
X89162D01*
Y165328D01*
X89176D01*
Y165342D01*
X89189D01*
Y165356D01*
X89217D01*
Y165369D01*
X89231D01*
Y165383D01*
X89244D01*
Y165396D01*
X89258D01*
Y165410D01*
X89271D01*
Y165424D01*
X89285D01*
Y165437D01*
X89299D01*
Y165451D01*
X89312D01*
Y165465D01*
X89326D01*
Y165479D01*
X89340D01*
Y165492D01*
X89354D01*
Y165506D01*
X89367D01*
Y165519D01*
X89381D01*
Y165533D01*
X89394D01*
Y165547D01*
X89408D01*
Y165560D01*
X89422D01*
Y165574D01*
X89436D01*
Y165588D01*
X89449D01*
Y165602D01*
X89463D01*
Y165615D01*
X89477D01*
Y165629D01*
X89490D01*
Y165643D01*
X89504D01*
Y165656D01*
X89518D01*
Y165670D01*
X89531D01*
Y165684D01*
X89545D01*
Y165697D01*
X89559D01*
Y165711D01*
X89572D01*
Y165725D01*
X89586D01*
Y165738D01*
X89600D01*
Y165752D01*
X89613D01*
Y165766D01*
X89627D01*
Y165779D01*
X89641D01*
Y165793D01*
X89654D01*
Y165807D01*
X89668D01*
Y165820D01*
X89682D01*
Y165834D01*
X89695D01*
Y165848D01*
X89709D01*
Y165861D01*
X89723D01*
Y165875D01*
X89736D01*
Y165889D01*
X89750D01*
Y165902D01*
X89764D01*
Y165916D01*
X89777D01*
Y165930D01*
X89791D01*
Y165943D01*
X89805D01*
Y165957D01*
X89818D01*
Y165971D01*
X89832D01*
Y165984D01*
X89846D01*
Y165998D01*
X89859D01*
Y166012D01*
X89873D01*
Y166025D01*
X89887D01*
Y166039D01*
X89900D01*
Y166053D01*
X89914D01*
Y166066D01*
X89928D01*
Y166080D01*
X89941D01*
Y166094D01*
X89955D01*
Y166107D01*
X89969D01*
Y166121D01*
X89982D01*
Y166135D01*
X89996D01*
Y166148D01*
X90010D01*
Y166162D01*
X90023D01*
Y166176D01*
X90037D01*
Y166190D01*
X90051D01*
Y166203D01*
X90064D01*
Y166217D01*
X90078D01*
Y166230D01*
X90092D01*
Y166244D01*
X90105D01*
Y166258D01*
X90119D01*
Y166271D01*
X90133D01*
Y166285D01*
X90146D01*
Y166299D01*
X90160D01*
Y166313D01*
X90174D01*
Y166326D01*
X90188D01*
Y166340D01*
X90201D01*
Y166353D01*
X90215D01*
Y166367D01*
X90228D01*
Y166381D01*
X90242D01*
Y166394D01*
X90256D01*
Y166408D01*
X90270D01*
Y166422D01*
X90283D01*
Y166436D01*
X90297D01*
Y166449D01*
X90311D01*
Y166463D01*
X90338D01*
Y166477D01*
X90352D01*
Y166490D01*
X90365D01*
Y166504D01*
X90379D01*
Y166518D01*
X90393D01*
Y166531D01*
X90406D01*
Y166545D01*
X90420D01*
Y166559D01*
X90434D01*
Y166572D01*
X90447D01*
Y166586D01*
X90461D01*
Y166600D01*
X90475D01*
Y166613D01*
X90488D01*
Y166627D01*
X90502D01*
Y166641D01*
X90516D01*
Y166654D01*
X90529D01*
Y166668D01*
X90543D01*
Y166682D01*
X90557D01*
Y166695D01*
X90570D01*
Y166709D01*
X90584D01*
Y166723D01*
X90598D01*
Y166736D01*
X90611D01*
Y166750D01*
X90625D01*
Y166764D01*
X90639D01*
Y166777D01*
X90652D01*
Y166791D01*
X90666D01*
Y166805D01*
X90680D01*
Y166818D01*
X90693D01*
Y166832D01*
X90707D01*
Y166846D01*
X90721D01*
Y166859D01*
X90734D01*
Y166873D01*
X90748D01*
Y166887D01*
X90762D01*
Y166900D01*
X90775D01*
Y166914D01*
X90789D01*
Y166928D01*
X90803D01*
Y166941D01*
X90816D01*
Y166955D01*
X90830D01*
Y166969D01*
X90844D01*
Y166982D01*
X90857D01*
Y166996D01*
X90871D01*
Y167010D01*
X90885D01*
Y167023D01*
X90898D01*
Y167037D01*
X90912D01*
Y167051D01*
X90926D01*
Y167064D01*
X90939D01*
Y167078D01*
X90953D01*
Y167092D01*
X90967D01*
Y167105D01*
X90980D01*
Y167119D01*
X90994D01*
Y167133D01*
X91008D01*
Y167147D01*
X91022D01*
Y167160D01*
X91035D01*
Y167174D01*
X91049D01*
Y167188D01*
X91062D01*
Y167201D01*
X91076D01*
Y167215D01*
X91090D01*
Y167228D01*
X91104D01*
Y167242D01*
X91117D01*
Y167256D01*
X91131D01*
Y167270D01*
X91145D01*
Y167283D01*
X91158D01*
Y167297D01*
X91172D01*
Y167311D01*
X91186D01*
Y167324D01*
X91199D01*
Y167338D01*
X91213D01*
Y167352D01*
X91227D01*
Y167365D01*
X91240D01*
Y167379D01*
X91254D01*
Y167393D01*
X91268D01*
Y167406D01*
X91281D01*
Y167420D01*
X91295D01*
Y167434D01*
X91309D01*
Y167447D01*
X91322D01*
Y167461D01*
X91336D01*
Y167475D01*
X91350D01*
Y167488D01*
X91363D01*
Y167502D01*
X91377D01*
Y167516D01*
X91391D01*
Y167529D01*
X91404D01*
Y167543D01*
X91418D01*
Y167557D01*
X91432D01*
Y167570D01*
X91459D01*
Y167584D01*
X91473D01*
Y167598D01*
X91486D01*
Y167611D01*
X91500D01*
Y167625D01*
X91514D01*
Y167639D01*
X91527D01*
Y167652D01*
X91541D01*
Y167666D01*
X91555D01*
Y167680D01*
X91568D01*
Y167693D01*
X91582D01*
Y167707D01*
X91596D01*
Y167721D01*
X91609D01*
Y167734D01*
X91623D01*
Y167748D01*
X91637D01*
Y167762D01*
X91650D01*
Y167775D01*
X91664D01*
Y167789D01*
X91678D01*
Y167803D01*
X91691D01*
Y167816D01*
X91705D01*
Y167830D01*
X91719D01*
Y167844D01*
X91732D01*
Y167857D01*
X91746D01*
Y167871D01*
X91760D01*
Y167885D01*
X91773D01*
Y167898D01*
X91787D01*
Y167912D01*
X91801D01*
Y167926D01*
X91814D01*
Y167939D01*
X91828D01*
Y167953D01*
X91842D01*
Y167967D01*
X91856D01*
Y167981D01*
X91869D01*
Y167994D01*
X91883D01*
Y168008D01*
X91896D01*
Y168022D01*
X91910D01*
Y168035D01*
X91924D01*
Y168049D01*
X91938D01*
Y168062D01*
X91951D01*
Y168076D01*
X91965D01*
Y168090D01*
X91979D01*
Y168104D01*
X91992D01*
Y168117D01*
X92006D01*
Y168131D01*
X92019D01*
Y168145D01*
X92033D01*
Y168158D01*
X92047D01*
Y168172D01*
X92061D01*
Y168185D01*
X92074D01*
Y168199D01*
X92088D01*
Y168213D01*
X92102D01*
Y168227D01*
X92115D01*
Y168240D01*
X92129D01*
Y168254D01*
X92143D01*
Y168268D01*
X92156D01*
Y168281D01*
X92170D01*
Y168295D01*
X92184D01*
Y168309D01*
X92197D01*
Y168322D01*
X92211D01*
Y168336D01*
X92225D01*
Y168350D01*
X92238D01*
Y168363D01*
X92252D01*
Y168377D01*
X92266D01*
Y168391D01*
X92279D01*
Y168404D01*
X92293D01*
Y168418D01*
X92307D01*
Y168432D01*
X92320D01*
Y168445D01*
X92334D01*
Y168459D01*
X92348D01*
Y168473D01*
X92361D01*
Y168486D01*
X92375D01*
Y168500D01*
X92389D01*
Y168514D01*
X92402D01*
Y168527D01*
X92416D01*
Y168541D01*
X92430D01*
Y168555D01*
X92443D01*
Y168568D01*
X92457D01*
Y168582D01*
X92471D01*
Y168596D01*
X92484D01*
Y168609D01*
X92498D01*
Y168623D01*
X92512D01*
Y168637D01*
X92525D01*
Y168650D01*
X92539D01*
Y168664D01*
X92553D01*
Y168678D01*
X92580D01*
Y168691D01*
X92594D01*
Y168705D01*
X92607D01*
Y168719D01*
X92621D01*
Y168732D01*
X92635D01*
Y168746D01*
X92648D01*
Y168760D01*
X92662D01*
Y168773D01*
X92676D01*
Y168787D01*
X92689D01*
Y168801D01*
X92703D01*
Y168815D01*
X92717D01*
Y168828D01*
X92730D01*
Y168842D01*
X92744D01*
Y168856D01*
X92758D01*
Y168869D01*
X92772D01*
Y168883D01*
X92785D01*
Y168896D01*
X92799D01*
Y168910D01*
X92813D01*
Y168924D01*
X92826D01*
Y168938D01*
X92840D01*
Y168951D01*
X92853D01*
Y168965D01*
X92867D01*
Y168979D01*
X92881D01*
Y168992D01*
X92895D01*
Y169006D01*
X92908D01*
Y169019D01*
X92922D01*
Y169033D01*
X92936D01*
Y169047D01*
X92949D01*
Y169061D01*
X92963D01*
Y169074D01*
X92977D01*
Y169088D01*
X92990D01*
Y169102D01*
X93004D01*
Y169115D01*
X93018D01*
Y169129D01*
X93031D01*
Y169143D01*
X93045D01*
Y169156D01*
X93059D01*
Y169170D01*
X93072D01*
Y169184D01*
X93086D01*
Y169197D01*
X93100D01*
Y169211D01*
X93113D01*
Y169225D01*
X93127D01*
Y169238D01*
X93141D01*
Y169252D01*
X93154D01*
Y169266D01*
X93168D01*
Y169279D01*
X93182D01*
Y169293D01*
X93195D01*
Y169307D01*
X93209D01*
Y169320D01*
X93223D01*
Y169334D01*
X93236D01*
Y169348D01*
X93250D01*
Y169361D01*
X93264D01*
Y169375D01*
X93277D01*
Y169389D01*
X93291D01*
Y169402D01*
X93305D01*
Y169416D01*
X93318D01*
Y169430D01*
X93332D01*
Y169443D01*
X93346D01*
Y169457D01*
X93359D01*
Y169471D01*
X93373D01*
Y169484D01*
X93387D01*
Y169498D01*
X93400D01*
Y169512D01*
X93414D01*
Y169525D01*
X93428D01*
Y169539D01*
X93441D01*
Y169553D01*
X93455D01*
Y169566D01*
X93469D01*
Y169580D01*
X93482D01*
Y169594D01*
X93496D01*
Y169607D01*
X93510D01*
Y169621D01*
X93523D01*
Y169635D01*
X93537D01*
Y169648D01*
X93551D01*
Y169662D01*
X93564D01*
Y169676D01*
X93578D01*
Y169690D01*
X93592D01*
Y169703D01*
X93606D01*
Y169717D01*
X93619D01*
Y169730D01*
X93633D01*
Y169744D01*
X93647D01*
Y169758D01*
X93660D01*
Y169772D01*
X93687D01*
Y169785D01*
X93701D01*
Y169799D01*
X93715D01*
Y169813D01*
X93729D01*
Y169826D01*
X93742D01*
Y169840D01*
X93756D01*
Y169853D01*
X93770D01*
Y169867D01*
X93783D01*
Y169881D01*
X93797D01*
Y169895D01*
X93811D01*
Y169908D01*
X93824D01*
Y169922D01*
X93838D01*
Y169936D01*
X93852D01*
Y169949D01*
X93865D01*
Y169963D01*
X93879D01*
Y169977D01*
X93893D01*
Y169990D01*
X93906D01*
Y170004D01*
X93920D01*
Y170018D01*
X93934D01*
Y170031D01*
X93947D01*
Y170045D01*
X93961D01*
Y170059D01*
X93975D01*
Y170072D01*
X93988D01*
Y170086D01*
X94002D01*
Y170100D01*
X94016D01*
Y170113D01*
X94029D01*
Y170127D01*
X94043D01*
Y170141D01*
X94057D01*
Y170154D01*
X94070D01*
Y170168D01*
X94084D01*
Y170182D01*
X94098D01*
Y170195D01*
X94111D01*
Y170209D01*
X94125D01*
Y170223D01*
X94139D01*
Y170236D01*
X94152D01*
Y170250D01*
X94166D01*
Y170264D01*
X94180D01*
Y170277D01*
X94193D01*
Y170291D01*
X94207D01*
Y170305D01*
X94221D01*
Y170318D01*
X94234D01*
Y170332D01*
X94248D01*
Y170346D01*
X94262D01*
Y170359D01*
X94275D01*
Y170373D01*
X94289D01*
Y170387D01*
X94303D01*
Y170400D01*
X94316D01*
Y170414D01*
X94330D01*
Y170428D01*
X94344D01*
Y170441D01*
X94357D01*
Y170455D01*
X94371D01*
Y170469D01*
X94385D01*
Y170482D01*
X94398D01*
Y170496D01*
X94412D01*
Y170510D01*
X94426D01*
Y170523D01*
X94439D01*
Y170537D01*
X94453D01*
Y170551D01*
X94467D01*
Y170564D01*
X94481D01*
Y170578D01*
X94494D01*
Y170592D01*
X94508D01*
Y170606D01*
X94521D01*
Y170619D01*
X94535D01*
Y170633D01*
X94549D01*
Y170647D01*
X94563D01*
Y170660D01*
X94576D01*
Y170674D01*
X94590D01*
Y170687D01*
X94604D01*
Y170701D01*
X94617D01*
Y170715D01*
X94631D01*
Y170729D01*
X94644D01*
Y170742D01*
X94658D01*
Y170756D01*
X94672D01*
Y170770D01*
X94686D01*
Y170783D01*
X94699D01*
Y170797D01*
X94713D01*
Y170810D01*
X94727D01*
Y170824D01*
X94740D01*
Y170838D01*
X94754D01*
Y170852D01*
X94768D01*
Y170865D01*
X94781D01*
Y170879D01*
X94809D01*
Y170893D01*
X94822D01*
Y170906D01*
X94836D01*
Y170920D01*
X94850D01*
Y170934D01*
X94863D01*
Y170947D01*
X94877D01*
Y170961D01*
X94891D01*
Y170975D01*
X94904D01*
Y170988D01*
X94918D01*
Y171002D01*
X94932D01*
Y171016D01*
X94945D01*
Y171029D01*
X94959D01*
Y171043D01*
X94973D01*
Y171057D01*
X94986D01*
Y171070D01*
X95000D01*
Y171084D01*
X95014D01*
Y171098D01*
X95027D01*
Y171111D01*
X95041D01*
Y171125D01*
X95055D01*
Y171139D01*
X95068D01*
Y171152D01*
X95082D01*
Y171166D01*
X95096D01*
Y171193D01*
X95109D01*
Y171207D01*
X95123D01*
Y171221D01*
X95137D01*
Y171248D01*
X95150D01*
Y171262D01*
X95164D01*
Y171289D01*
X95178D01*
Y171316D01*
X95191D01*
Y171344D01*
X95205D01*
Y171385D01*
X95219D01*
Y171426D01*
X95232D01*
Y171467D01*
X95246D01*
Y171521D01*
X95260D01*
Y171631D01*
X95273D01*
Y171754D01*
X95260D01*
Y171863D01*
X95246D01*
Y171918D01*
X95232D01*
Y171973D01*
X95219D01*
Y172014D01*
X95205D01*
Y172041D01*
X95191D01*
Y172068D01*
X95178D01*
Y172096D01*
X95164D01*
Y172123D01*
X95150D01*
Y172150D01*
X95137D01*
Y172164D01*
X95123D01*
Y172178D01*
X95109D01*
Y172205D01*
X95096D01*
Y172219D01*
X95082D01*
Y172232D01*
X95068D01*
Y172246D01*
X95055D01*
Y172260D01*
X95041D01*
Y172273D01*
X95027D01*
Y172287D01*
X95014D01*
Y172301D01*
X95000D01*
Y172315D01*
X94986D01*
Y172328D01*
X94973D01*
Y172342D01*
X94959D01*
Y172355D01*
X94945D01*
Y172369D01*
X94932D01*
Y172383D01*
X94918D01*
Y172397D01*
X94904D01*
Y172410D01*
X94891D01*
Y172424D01*
X94877D01*
Y172438D01*
X94863D01*
Y172451D01*
X94850D01*
Y172465D01*
X94836D01*
Y172478D01*
X94822D01*
Y172492D01*
X94809D01*
Y172506D01*
X94795D01*
Y172520D01*
X94781D01*
Y172533D01*
X94768D01*
Y172547D01*
X94754D01*
Y172561D01*
X94740D01*
Y172574D01*
X94727D01*
Y172588D01*
X94713D01*
Y172602D01*
X94699D01*
Y172615D01*
X94686D01*
Y172629D01*
X94672D01*
Y172643D01*
X94658D01*
Y172656D01*
X94644D01*
Y172670D01*
X94631D01*
Y172684D01*
X94617D01*
Y172697D01*
X94604D01*
Y172711D01*
X94590D01*
Y172725D01*
X94576D01*
Y172738D01*
X94563D01*
Y172752D01*
X94549D01*
Y172766D01*
X94535D01*
Y172779D01*
X94521D01*
Y172793D01*
X94508D01*
Y172807D01*
X94494D01*
Y172820D01*
X94481D01*
Y172834D01*
X94467D01*
Y172848D01*
X94453D01*
Y172861D01*
X94439D01*
Y172875D01*
X94426D01*
Y172889D01*
X94412D01*
Y172902D01*
X94398D01*
Y172916D01*
X94385D01*
Y172930D01*
X94371D01*
Y172943D01*
X94357D01*
Y172957D01*
X94344D01*
Y172971D01*
X94330D01*
Y172984D01*
X94316D01*
Y172998D01*
X94303D01*
Y173012D01*
X94289D01*
Y173025D01*
X94275D01*
Y173039D01*
X94262D01*
Y173053D01*
X94248D01*
Y173066D01*
X94234D01*
Y173080D01*
X94221D01*
Y173094D01*
X94207D01*
Y173107D01*
X94193D01*
Y173121D01*
X94180D01*
Y173135D01*
X94166D01*
Y173148D01*
X94152D01*
Y173162D01*
X94139D01*
Y173176D01*
X94125D01*
Y173189D01*
X94111D01*
Y173203D01*
X94098D01*
Y173217D01*
X94084D01*
Y173231D01*
X94070D01*
Y173244D01*
X94057D01*
Y173258D01*
X94043D01*
Y173272D01*
X94029D01*
Y173285D01*
X94016D01*
Y173299D01*
X94002D01*
Y173312D01*
X93988D01*
Y173326D01*
X93975D01*
Y173340D01*
X93961D01*
Y173354D01*
X93947D01*
Y173367D01*
X93934D01*
Y173381D01*
X93920D01*
Y173395D01*
X93906D01*
Y173408D01*
X93893D01*
Y173422D01*
X93879D01*
Y173435D01*
X93852D01*
Y173449D01*
X93838D01*
Y173463D01*
X93824D01*
Y173477D01*
X93811D01*
Y173490D01*
X93797D01*
Y173504D01*
X93783D01*
Y173518D01*
X93770D01*
Y173531D01*
X93756D01*
Y173545D01*
X93742D01*
Y173559D01*
X93729D01*
Y173572D01*
X93715D01*
Y173586D01*
X93701D01*
Y173600D01*
X93687D01*
Y173613D01*
X93674D01*
Y173627D01*
X93660D01*
Y173641D01*
X93647D01*
Y173654D01*
X93633D01*
Y173668D01*
X93619D01*
Y173682D01*
X93606D01*
Y173695D01*
X93592D01*
Y173709D01*
X93578D01*
Y173723D01*
X93564D01*
Y173736D01*
X93551D01*
Y173750D01*
X93537D01*
Y173764D01*
X93523D01*
Y173777D01*
X93510D01*
Y173791D01*
X93496D01*
Y173805D01*
X93482D01*
Y173818D01*
X93469D01*
Y173832D01*
X93455D01*
Y173846D01*
X93441D01*
Y173859D01*
X93428D01*
Y173873D01*
X93414D01*
Y173887D01*
X93400D01*
Y173900D01*
X93387D01*
Y173914D01*
X93373D01*
Y173928D01*
X93359D01*
Y173941D01*
X93346D01*
Y173955D01*
X93332D01*
Y173969D01*
X93318D01*
Y173982D01*
X93305D01*
Y173996D01*
X93291D01*
Y174010D01*
X93277D01*
Y174023D01*
X93264D01*
Y174037D01*
X93250D01*
Y174051D01*
X93236D01*
Y174065D01*
X93223D01*
Y174078D01*
X93209D01*
Y174092D01*
X93195D01*
Y174106D01*
X93182D01*
Y174119D01*
X93168D01*
Y174133D01*
X93154D01*
Y174146D01*
X93141D01*
Y174160D01*
X93127D01*
Y174174D01*
X93113D01*
Y174188D01*
X93100D01*
Y174201D01*
X93086D01*
Y174215D01*
X93072D01*
Y174229D01*
X93059D01*
Y174242D01*
X93045D01*
Y174256D01*
X93031D01*
Y174269D01*
X93018D01*
Y174283D01*
X93004D01*
Y174297D01*
X92990D01*
Y174311D01*
X92977D01*
Y174324D01*
X92963D01*
Y174338D01*
X92949D01*
Y174352D01*
X92936D01*
Y174365D01*
X92922D01*
Y174379D01*
X92908D01*
Y174393D01*
X92895D01*
Y174406D01*
X92881D01*
Y174420D01*
X92867D01*
Y174434D01*
X92853D01*
Y174447D01*
X92840D01*
Y174461D01*
X92826D01*
Y174475D01*
X92813D01*
Y174488D01*
X92799D01*
Y174502D01*
X92785D01*
Y174516D01*
X92772D01*
Y174529D01*
X92758D01*
Y174543D01*
X92744D01*
Y174557D01*
X92730D01*
Y174570D01*
X92717D01*
Y174584D01*
X92703D01*
Y174598D01*
X92689D01*
Y174611D01*
X92676D01*
Y174625D01*
X92662D01*
Y174639D01*
X92648D01*
Y174652D01*
X92635D01*
Y174666D01*
X92621D01*
Y174680D01*
X92607D01*
Y174693D01*
X92594D01*
Y174707D01*
X92580D01*
Y174721D01*
X92566D01*
Y174734D01*
X92553D01*
Y174748D01*
X92539D01*
Y174762D01*
X92525D01*
Y174775D01*
X92512D01*
Y174789D01*
X92498D01*
Y174803D01*
X92484D01*
Y174816D01*
X92471D01*
Y174830D01*
X92457D01*
Y174844D01*
X92443D01*
Y174857D01*
X92430D01*
Y174871D01*
X92416D01*
Y174885D01*
X92402D01*
Y174898D01*
X92389D01*
Y174912D01*
X92375D01*
Y174926D01*
X92361D01*
Y174940D01*
X92348D01*
Y174953D01*
X92334D01*
Y174967D01*
X92320D01*
Y174980D01*
X92307D01*
Y174994D01*
X92293D01*
Y175008D01*
X92279D01*
Y175022D01*
X92266D01*
Y175035D01*
X92252D01*
Y175049D01*
X92238D01*
Y175063D01*
X92225D01*
Y175076D01*
X92211D01*
Y175090D01*
X92197D01*
Y175103D01*
X92184D01*
Y175117D01*
X92170D01*
Y175131D01*
X92156D01*
Y175145D01*
X92143D01*
Y175158D01*
X92129D01*
Y175172D01*
X92115D01*
Y175186D01*
X92102D01*
Y175199D01*
X92088D01*
Y175213D01*
X92074D01*
Y175227D01*
X92061D01*
Y175240D01*
X92047D01*
Y175254D01*
X92033D01*
Y175268D01*
X92019D01*
Y175281D01*
X92006D01*
Y175295D01*
X91992D01*
Y175309D01*
X91979D01*
Y175322D01*
X91965D01*
Y175336D01*
X91951D01*
Y175350D01*
X91938D01*
Y175363D01*
X91924D01*
Y175377D01*
X91910D01*
Y175391D01*
X91896D01*
Y175404D01*
X91883D01*
Y175418D01*
X91869D01*
Y175432D01*
X91856D01*
Y175445D01*
X91828D01*
Y175459D01*
X91814D01*
Y175473D01*
X91801D01*
Y175486D01*
X91787D01*
Y175500D01*
X91773D01*
Y175514D01*
X91760D01*
Y175527D01*
X91746D01*
Y175541D01*
X91732D01*
Y175555D01*
X91719D01*
Y175568D01*
X91705D01*
Y175582D01*
X91691D01*
Y175596D01*
X91678D01*
Y175609D01*
X91664D01*
Y175623D01*
X91650D01*
Y175637D01*
X91637D01*
Y175650D01*
X91623D01*
Y175664D01*
X91609D01*
Y175678D01*
X91596D01*
Y175691D01*
X91582D01*
Y175705D01*
X91568D01*
Y175719D01*
X91555D01*
Y175732D01*
X91541D01*
Y175746D01*
X91527D01*
Y175760D01*
X91514D01*
Y175773D01*
X91500D01*
Y175787D01*
X91486D01*
Y175801D01*
X91473D01*
Y175814D01*
X91459D01*
Y175828D01*
X91445D01*
Y175842D01*
X91432D01*
Y175856D01*
X91418D01*
Y175869D01*
X91404D01*
Y175883D01*
X91391D01*
Y175897D01*
X91377D01*
Y175910D01*
X91363D01*
Y175924D01*
X91350D01*
Y175937D01*
X91336D01*
Y175951D01*
X91322D01*
Y175965D01*
X91309D01*
Y175979D01*
X91295D01*
Y175992D01*
X91281D01*
Y176006D01*
X91268D01*
Y176020D01*
X91254D01*
Y176033D01*
X91240D01*
Y176047D01*
X91227D01*
Y176060D01*
X91213D01*
Y176074D01*
X91199D01*
Y176088D01*
X91186D01*
Y176102D01*
X91172D01*
Y176115D01*
X91158D01*
Y176129D01*
X91145D01*
Y176143D01*
X91131D01*
Y176156D01*
X91117D01*
Y176170D01*
X91104D01*
Y176184D01*
X91090D01*
Y176197D01*
X91076D01*
Y176211D01*
X91062D01*
Y176225D01*
X91049D01*
Y176238D01*
X91035D01*
Y176252D01*
X91022D01*
Y176266D01*
X91008D01*
Y176279D01*
X90994D01*
Y176293D01*
X90980D01*
Y176307D01*
X90967D01*
Y176320D01*
X90953D01*
Y176334D01*
X90939D01*
Y176348D01*
X90926D01*
Y176361D01*
X90912D01*
Y176375D01*
X90898D01*
Y176389D01*
X90885D01*
Y176402D01*
X90871D01*
Y176416D01*
X90857D01*
Y176430D01*
X90844D01*
Y176443D01*
X90830D01*
Y176457D01*
X90816D01*
Y176471D01*
X90803D01*
Y176484D01*
X90789D01*
Y176498D01*
X90775D01*
Y176512D01*
X90762D01*
Y176525D01*
X90748D01*
Y176539D01*
X90734D01*
Y176553D01*
X90721D01*
Y176566D01*
X90707D01*
Y176580D01*
X90693D01*
Y176594D01*
X90680D01*
Y176607D01*
X90666D01*
Y176621D01*
X90652D01*
Y176635D01*
X90639D01*
Y176648D01*
X90625D01*
Y176662D01*
X90611D01*
Y176676D01*
X90598D01*
Y176690D01*
X90584D01*
Y176703D01*
X90570D01*
Y176717D01*
X90557D01*
Y176731D01*
X90543D01*
Y176744D01*
X90529D01*
Y176758D01*
X90516D01*
Y176771D01*
X90502D01*
Y176785D01*
X90488D01*
Y176799D01*
X90475D01*
Y176813D01*
X90461D01*
Y176826D01*
X90447D01*
Y176840D01*
X90434D01*
Y176854D01*
X90420D01*
Y176867D01*
X90406D01*
Y176881D01*
X90393D01*
Y176894D01*
X90379D01*
Y176908D01*
X90365D01*
Y176922D01*
X90352D01*
Y176936D01*
X90338D01*
Y176949D01*
X90324D01*
Y176963D01*
X90311D01*
Y176977D01*
X90297D01*
Y176990D01*
X90283D01*
Y177004D01*
X90270D01*
Y177018D01*
X90256D01*
Y177031D01*
X90242D01*
Y177045D01*
X90228D01*
Y177059D01*
X90215D01*
Y177072D01*
X90201D01*
Y177086D01*
X90188D01*
Y177100D01*
X90174D01*
Y177113D01*
X90160D01*
Y177127D01*
X90146D01*
Y177141D01*
X90133D01*
Y177154D01*
X90119D01*
Y177168D01*
X90105D01*
Y177182D01*
X90092D01*
Y177195D01*
X90078D01*
Y177209D01*
X90064D01*
Y177223D01*
X90051D01*
Y177236D01*
X90037D01*
Y177250D01*
X90023D01*
Y177264D01*
X90010D01*
Y177277D01*
X89996D01*
Y177291D01*
X89982D01*
Y177305D01*
X89969D01*
Y177318D01*
X89955D01*
Y177332D01*
X89941D01*
Y177346D01*
X89928D01*
Y177359D01*
X89914D01*
Y177373D01*
X89900D01*
Y177387D01*
X89887D01*
Y177400D01*
X89873D01*
Y177414D01*
X89859D01*
Y177428D01*
X89846D01*
Y177441D01*
X89818D01*
Y177455D01*
X89805D01*
Y177469D01*
X89791D01*
Y177482D01*
X89777D01*
Y177496D01*
X89764D01*
Y177510D01*
X89750D01*
Y177523D01*
X89736D01*
Y177537D01*
X89723D01*
Y177551D01*
X89709D01*
Y177565D01*
X89695D01*
Y177578D01*
X89682D01*
Y177592D01*
X89668D01*
Y177605D01*
X89654D01*
Y177619D01*
X89641D01*
Y177633D01*
X89627D01*
Y177647D01*
X89613D01*
Y177660D01*
X89600D01*
Y177674D01*
X89586D01*
Y177688D01*
X89572D01*
Y177701D01*
X89559D01*
Y177715D01*
X89545D01*
Y177728D01*
X89531D01*
Y177742D01*
X89518D01*
Y177756D01*
X89504D01*
Y177769D01*
X89490D01*
Y177783D01*
X89477D01*
Y177797D01*
X89463D01*
Y177811D01*
X89449D01*
Y177824D01*
X89436D01*
Y177838D01*
X89422D01*
Y177852D01*
X89408D01*
Y177865D01*
X89394D01*
Y177879D01*
X89381D01*
Y177893D01*
X89367D01*
Y177906D01*
X89354D01*
Y177920D01*
X89340D01*
Y177934D01*
X89326D01*
Y177947D01*
X89312D01*
Y177961D01*
X89299D01*
Y177975D01*
X89285D01*
Y177988D01*
X89271D01*
Y178002D01*
X89258D01*
Y178016D01*
X89244D01*
Y178029D01*
X89231D01*
Y178043D01*
X89217D01*
Y178057D01*
X89203D01*
Y178070D01*
X89189D01*
Y178084D01*
X89176D01*
Y178098D01*
X89162D01*
Y178111D01*
X89148D01*
Y178125D01*
X89135D01*
Y178139D01*
X89121D01*
Y178152D01*
X89107D01*
Y178166D01*
X89094D01*
Y178180D01*
X89080D01*
Y178193D01*
X89066D01*
Y178207D01*
X89053D01*
Y178221D01*
X89039D01*
Y178234D01*
X89025D01*
Y178248D01*
X89012D01*
Y178262D01*
X88998D01*
Y178275D01*
X88984D01*
Y178289D01*
X88971D01*
Y178303D01*
X88957D01*
Y178316D01*
X88943D01*
Y178330D01*
X88930D01*
Y178344D01*
X88916D01*
Y178357D01*
X88902D01*
Y178371D01*
X88889D01*
Y178385D01*
X88875D01*
Y178398D01*
X88861D01*
Y178412D01*
X88848D01*
Y178426D01*
D02*
G37*
G36*
X99594Y178330D02*
X99566D01*
Y178316D01*
X99553D01*
Y178303D01*
X99539D01*
Y178289D01*
X99525D01*
Y178275D01*
X99512D01*
Y178262D01*
X99498D01*
Y178248D01*
X99484D01*
Y178234D01*
X99471D01*
Y178221D01*
X99457D01*
Y178207D01*
X99443D01*
Y178193D01*
X99430D01*
Y178180D01*
X99416D01*
Y178166D01*
X99402D01*
Y178152D01*
X99389D01*
Y178139D01*
X99375D01*
Y178125D01*
X99361D01*
Y178111D01*
X99348D01*
Y178098D01*
X99334D01*
Y178084D01*
X99320D01*
Y178070D01*
X99307D01*
Y178057D01*
X99293D01*
Y178043D01*
X99279D01*
Y178029D01*
X99266D01*
Y178016D01*
X99252D01*
Y178002D01*
X99238D01*
Y177988D01*
X99225D01*
Y177975D01*
X99211D01*
Y177961D01*
X99197D01*
Y177947D01*
X99184D01*
Y177934D01*
X99156D01*
Y177920D01*
X99143D01*
Y177906D01*
X99129D01*
Y177893D01*
X99115D01*
Y177879D01*
X99102D01*
Y177865D01*
X99088D01*
Y177852D01*
X99074D01*
Y177838D01*
X99061D01*
Y177824D01*
X99047D01*
Y177811D01*
X99033D01*
Y177797D01*
X99019D01*
Y177783D01*
X99006D01*
Y177769D01*
X98992D01*
Y177756D01*
X98979D01*
Y177742D01*
X98965D01*
Y177728D01*
X98951D01*
Y177715D01*
X98937D01*
Y177701D01*
X98924D01*
Y177688D01*
X98910D01*
Y177674D01*
X98896D01*
Y177660D01*
X98883D01*
Y177647D01*
X98869D01*
Y177633D01*
X98856D01*
Y177619D01*
X98842D01*
Y177605D01*
X98828D01*
Y177592D01*
X98814D01*
Y177578D01*
X98801D01*
Y177565D01*
X98787D01*
Y177551D01*
X98773D01*
Y177537D01*
X98760D01*
Y177523D01*
X98746D01*
Y177510D01*
X98732D01*
Y177496D01*
X98719D01*
Y177482D01*
X98705D01*
Y177469D01*
X98691D01*
Y177455D01*
X98678D01*
Y177441D01*
X98664D01*
Y177428D01*
X98650D01*
Y177414D01*
X98637D01*
Y177400D01*
X98623D01*
Y177387D01*
X98609D01*
Y177373D01*
X98596D01*
Y177359D01*
X98568D01*
Y177346D01*
X98555D01*
Y177332D01*
X98541D01*
Y177318D01*
X98527D01*
Y177305D01*
X98514D01*
Y177291D01*
X98500D01*
Y177277D01*
X98486D01*
Y177264D01*
X98473D01*
Y177250D01*
X98459D01*
Y177236D01*
X98445D01*
Y177223D01*
X98432D01*
Y177209D01*
X98418D01*
Y177195D01*
X98404D01*
Y177182D01*
X98391D01*
Y177168D01*
X98377D01*
Y177154D01*
X98363D01*
Y177141D01*
X98350D01*
Y177127D01*
X98336D01*
Y177113D01*
X98322D01*
Y177100D01*
X98309D01*
Y177086D01*
X98295D01*
Y177072D01*
X98281D01*
Y177059D01*
X98268D01*
Y177045D01*
X98254D01*
Y177031D01*
X98240D01*
Y177018D01*
X98227D01*
Y177004D01*
X98213D01*
Y176990D01*
X98199D01*
Y176977D01*
X98186D01*
Y176963D01*
X98172D01*
Y176949D01*
X98158D01*
Y176936D01*
X98145D01*
Y176922D01*
X98131D01*
Y176908D01*
X98117D01*
Y176894D01*
X98103D01*
Y176881D01*
X98090D01*
Y176867D01*
X98076D01*
Y176854D01*
X98062D01*
Y176840D01*
X98049D01*
Y176826D01*
X98035D01*
Y176813D01*
X98022D01*
Y176799D01*
X98008D01*
Y176785D01*
X97980D01*
Y176771D01*
X97967D01*
Y176758D01*
X97953D01*
Y176744D01*
X97939D01*
Y176731D01*
X97926D01*
Y176717D01*
X97912D01*
Y176703D01*
X97898D01*
Y176690D01*
X97885D01*
Y176676D01*
X97871D01*
Y176662D01*
X97857D01*
Y176648D01*
X97844D01*
Y176635D01*
X97830D01*
Y176621D01*
X97816D01*
Y176607D01*
X97803D01*
Y176594D01*
X97789D01*
Y176580D01*
X97775D01*
Y176566D01*
X97762D01*
Y176553D01*
X97748D01*
Y176539D01*
X97734D01*
Y176525D01*
X97721D01*
Y176512D01*
X97707D01*
Y176498D01*
X97693D01*
Y176484D01*
X97680D01*
Y176471D01*
X97666D01*
Y176457D01*
X97652D01*
Y176443D01*
X97639D01*
Y176430D01*
X97625D01*
Y176416D01*
X97611D01*
Y176402D01*
X97598D01*
Y176389D01*
X97584D01*
Y176375D01*
X97570D01*
Y176361D01*
X97557D01*
Y176348D01*
X97543D01*
Y176334D01*
X97529D01*
Y176320D01*
X97516D01*
Y176307D01*
X97502D01*
Y176293D01*
X97488D01*
Y176279D01*
X97475D01*
Y176266D01*
X97461D01*
Y176252D01*
X97447D01*
Y176238D01*
X97434D01*
Y176225D01*
X97406D01*
Y176211D01*
X97393D01*
Y176197D01*
X97379D01*
Y176184D01*
X97365D01*
Y176170D01*
X97352D01*
Y176156D01*
X97338D01*
Y176143D01*
X97324D01*
Y176129D01*
X97311D01*
Y176115D01*
X97297D01*
Y176102D01*
X97283D01*
Y176088D01*
X97269D01*
Y176074D01*
X97256D01*
Y176060D01*
X97242D01*
Y176047D01*
X97228D01*
Y176033D01*
X97215D01*
Y176020D01*
X97201D01*
Y176006D01*
X97188D01*
Y175992D01*
X97174D01*
Y175979D01*
X97160D01*
Y175965D01*
X97146D01*
Y175951D01*
X97133D01*
Y175937D01*
X97119D01*
Y175924D01*
X97105D01*
Y175910D01*
X97092D01*
Y175897D01*
X97078D01*
Y175883D01*
X97064D01*
Y175869D01*
X97051D01*
Y175856D01*
X97037D01*
Y175842D01*
X97023D01*
Y175828D01*
X97010D01*
Y175814D01*
X96996D01*
Y175801D01*
X96982D01*
Y175787D01*
X96969D01*
Y175773D01*
X96955D01*
Y175760D01*
X96941D01*
Y175746D01*
X96928D01*
Y175732D01*
X96914D01*
Y175719D01*
X96900D01*
Y175705D01*
X96887D01*
Y175691D01*
X96873D01*
Y175678D01*
X96859D01*
Y175664D01*
X96846D01*
Y175650D01*
X96818D01*
Y175637D01*
X96805D01*
Y175623D01*
X96791D01*
Y175609D01*
X96777D01*
Y175596D01*
X96764D01*
Y175582D01*
X96750D01*
Y175568D01*
X96736D01*
Y175555D01*
X96723D01*
Y175541D01*
X96709D01*
Y175527D01*
X96695D01*
Y175514D01*
X96682D01*
Y175500D01*
X96668D01*
Y175486D01*
X96654D01*
Y175473D01*
X96641D01*
Y175459D01*
X96627D01*
Y175445D01*
X96613D01*
Y175432D01*
X96600D01*
Y175418D01*
X96586D01*
Y175404D01*
X96572D01*
Y175391D01*
X96559D01*
Y175377D01*
X96545D01*
Y175363D01*
X96531D01*
Y175350D01*
X96518D01*
Y175336D01*
X96504D01*
Y175322D01*
X96490D01*
Y175309D01*
X96477D01*
Y175295D01*
X96463D01*
Y175281D01*
X96449D01*
Y175268D01*
X96436D01*
Y175254D01*
X96422D01*
Y175240D01*
X96408D01*
Y175227D01*
X96394D01*
Y175213D01*
X96381D01*
Y175199D01*
X96367D01*
Y175186D01*
X96354D01*
Y175172D01*
X96340D01*
Y175158D01*
X96326D01*
Y175145D01*
X96312D01*
Y175131D01*
X96299D01*
Y175117D01*
X96285D01*
Y175103D01*
X96272D01*
Y175090D01*
X96258D01*
Y175076D01*
X96231D01*
Y175063D01*
X96217D01*
Y175049D01*
X96203D01*
Y175035D01*
X96189D01*
Y175022D01*
X96176D01*
Y175008D01*
X96162D01*
Y174994D01*
X96148D01*
Y174980D01*
X96135D01*
Y174967D01*
X96121D01*
Y174953D01*
X96107D01*
Y174940D01*
X96094D01*
Y174926D01*
X96080D01*
Y174912D01*
X96066D01*
Y174898D01*
X96053D01*
Y174885D01*
X96039D01*
Y174871D01*
X96025D01*
Y174857D01*
X96012D01*
Y174844D01*
X95998D01*
Y174830D01*
X95984D01*
Y174816D01*
X95971D01*
Y174803D01*
X95957D01*
Y174789D01*
X95943D01*
Y174775D01*
X95930D01*
Y174762D01*
X95916D01*
Y174748D01*
X95902D01*
Y174734D01*
X95889D01*
Y174721D01*
X95875D01*
Y174707D01*
X95861D01*
Y174693D01*
X95848D01*
Y174680D01*
X95834D01*
Y174666D01*
X95820D01*
Y174652D01*
X95807D01*
Y174639D01*
X95793D01*
Y174625D01*
X95779D01*
Y174611D01*
X95766D01*
Y174598D01*
X95752D01*
Y174584D01*
X95738D01*
Y174570D01*
X95725D01*
Y174557D01*
X95711D01*
Y174543D01*
X95697D01*
Y174529D01*
X95684D01*
Y174516D01*
X95670D01*
Y174502D01*
X95643D01*
Y174488D01*
X95629D01*
Y174475D01*
X95615D01*
Y174461D01*
X95602D01*
Y174447D01*
X95588D01*
Y174434D01*
X95574D01*
Y174420D01*
X95561D01*
Y174406D01*
X95547D01*
Y174393D01*
X95533D01*
Y174379D01*
X95520D01*
Y174365D01*
X95506D01*
Y174352D01*
X95492D01*
Y174338D01*
X95478D01*
Y174324D01*
X95465D01*
Y174311D01*
X95451D01*
Y174297D01*
X95438D01*
Y174283D01*
X95424D01*
Y174269D01*
X95410D01*
Y174256D01*
X95397D01*
Y174242D01*
X95383D01*
Y174229D01*
X95369D01*
Y174215D01*
X95355D01*
Y174201D01*
X95342D01*
Y174188D01*
X95328D01*
Y174174D01*
X95314D01*
Y174160D01*
X95301D01*
Y174146D01*
X95287D01*
Y174133D01*
X95273D01*
Y174119D01*
X95260D01*
Y174106D01*
X95246D01*
Y174092D01*
X95232D01*
Y174078D01*
X95219D01*
Y174065D01*
X95205D01*
Y174051D01*
X95191D01*
Y174037D01*
X95178D01*
Y174023D01*
X95164D01*
Y174010D01*
X95150D01*
Y173996D01*
X95137D01*
Y173982D01*
X95123D01*
Y173969D01*
X95109D01*
Y173955D01*
X95096D01*
Y173928D01*
X95109D01*
Y173914D01*
X95123D01*
Y173900D01*
X95137D01*
Y173887D01*
X95150D01*
Y173873D01*
X95164D01*
Y173859D01*
X95178D01*
Y173846D01*
X95191D01*
Y173832D01*
X95205D01*
Y173818D01*
X95219D01*
Y173805D01*
X95232D01*
Y173791D01*
X95246D01*
Y173777D01*
X95260D01*
Y173764D01*
X95273D01*
Y173750D01*
X95287D01*
Y173736D01*
X95301D01*
Y173723D01*
X95314D01*
Y173709D01*
X95328D01*
Y173695D01*
X95342D01*
Y173682D01*
X95355D01*
Y173668D01*
X95369D01*
Y173654D01*
X95383D01*
Y173641D01*
X95397D01*
Y173627D01*
X95410D01*
Y173613D01*
X95424D01*
Y173600D01*
X95438D01*
Y173586D01*
X95451D01*
Y173572D01*
X95465D01*
Y173559D01*
X95478D01*
Y173545D01*
X95492D01*
Y173531D01*
X95506D01*
Y173518D01*
X95520D01*
Y173504D01*
X95533D01*
Y173490D01*
X95547D01*
Y173477D01*
X95561D01*
Y173463D01*
X95574D01*
Y173449D01*
X95588D01*
Y173435D01*
X95602D01*
Y173422D01*
X95615D01*
Y173408D01*
X95629D01*
Y173395D01*
X95643D01*
Y173381D01*
X95656D01*
Y173367D01*
X95670D01*
Y173354D01*
X95684D01*
Y173340D01*
X95697D01*
Y173326D01*
X95711D01*
Y173312D01*
X95725D01*
Y173299D01*
X95738D01*
Y173285D01*
X95752D01*
Y173272D01*
X95766D01*
Y173258D01*
X95779D01*
Y173244D01*
X95793D01*
Y173231D01*
X95807D01*
Y173217D01*
X95820D01*
Y173203D01*
X95834D01*
Y173189D01*
X95848D01*
Y173176D01*
X95861D01*
Y173162D01*
X95875D01*
Y173148D01*
X95889D01*
Y173135D01*
X95902D01*
Y173121D01*
X95916D01*
Y173107D01*
X95930D01*
Y173094D01*
X95943D01*
Y173080D01*
X95957D01*
Y173066D01*
X95971D01*
Y173053D01*
X95984D01*
Y173039D01*
X95998D01*
Y173025D01*
X96012D01*
Y173012D01*
X96025D01*
Y172998D01*
X96039D01*
Y172984D01*
X96053D01*
Y172957D01*
X96066D01*
Y172943D01*
X96080D01*
Y172930D01*
X96094D01*
Y172902D01*
X96107D01*
Y172889D01*
X96121D01*
Y172875D01*
X96135D01*
Y172848D01*
X96148D01*
Y172834D01*
X96162D01*
Y172807D01*
X96176D01*
Y172793D01*
X96189D01*
Y172766D01*
X96203D01*
Y172738D01*
X96217D01*
Y172725D01*
X96231D01*
Y172697D01*
X96244D01*
Y172670D01*
X96258D01*
Y172643D01*
X96272D01*
Y172615D01*
X96285D01*
Y172588D01*
X96299D01*
Y172561D01*
X96312D01*
Y172533D01*
X96326D01*
Y172492D01*
X96340D01*
Y172465D01*
X96354D01*
Y172424D01*
X96367D01*
Y172383D01*
X96381D01*
Y172342D01*
X96394D01*
Y172301D01*
X96408D01*
Y172260D01*
X96422D01*
Y172205D01*
X96436D01*
Y172137D01*
X96449D01*
Y172068D01*
X96463D01*
Y171986D01*
X96477D01*
Y171863D01*
X96490D01*
Y171535D01*
X96477D01*
Y171398D01*
X96463D01*
Y171316D01*
X96449D01*
Y171248D01*
X96436D01*
Y171193D01*
X96422D01*
Y171139D01*
X96408D01*
Y171084D01*
X96394D01*
Y171043D01*
X96381D01*
Y171002D01*
X96367D01*
Y170961D01*
X96354D01*
Y170934D01*
X96340D01*
Y170893D01*
X96326D01*
Y170865D01*
X96312D01*
Y170838D01*
X96299D01*
Y170810D01*
X96285D01*
Y170770D01*
X96272D01*
Y170742D01*
X96258D01*
Y170729D01*
X96244D01*
Y170701D01*
X96231D01*
Y170674D01*
X96217D01*
Y170647D01*
X96203D01*
Y170619D01*
X96189D01*
Y170606D01*
X96176D01*
Y170578D01*
X96162D01*
Y170564D01*
X96148D01*
Y170537D01*
X96135D01*
Y170523D01*
X96121D01*
Y170496D01*
X96107D01*
Y170482D01*
X96094D01*
Y170469D01*
X96080D01*
Y170441D01*
X96066D01*
Y170428D01*
X96053D01*
Y170414D01*
X96039D01*
Y170400D01*
X96025D01*
Y170387D01*
X96012D01*
Y170359D01*
X95998D01*
Y170346D01*
X95984D01*
Y170332D01*
X95971D01*
Y170318D01*
X95957D01*
Y170305D01*
X95943D01*
Y170291D01*
X95930D01*
Y170277D01*
X95916D01*
Y170264D01*
X95902D01*
Y170250D01*
X95889D01*
Y170236D01*
X95875D01*
Y170223D01*
X95861D01*
Y170209D01*
X95848D01*
Y170195D01*
X95834D01*
Y170182D01*
X95820D01*
Y170168D01*
X95807D01*
Y170154D01*
X95793D01*
Y170141D01*
X95779D01*
Y170127D01*
X95766D01*
Y170113D01*
X95752D01*
Y170100D01*
X95738D01*
Y170086D01*
X95725D01*
Y170072D01*
X95711D01*
Y170059D01*
X95697D01*
Y170045D01*
X95684D01*
Y170031D01*
X95670D01*
Y170018D01*
X95656D01*
Y170004D01*
X95643D01*
Y169990D01*
X95629D01*
Y169977D01*
X95615D01*
Y169963D01*
X95602D01*
Y169949D01*
X95588D01*
Y169936D01*
X95574D01*
Y169922D01*
X95561D01*
Y169908D01*
X95547D01*
Y169895D01*
X95533D01*
Y169881D01*
X95520D01*
Y169867D01*
X95506D01*
Y169853D01*
X95492D01*
Y169840D01*
X95478D01*
Y169826D01*
X95465D01*
Y169813D01*
X95451D01*
Y169799D01*
X95438D01*
Y169785D01*
X95424D01*
Y169772D01*
X95410D01*
Y169758D01*
X95397D01*
Y169744D01*
X95383D01*
Y169730D01*
X95369D01*
Y169717D01*
X95355D01*
Y169703D01*
X95342D01*
Y169690D01*
X95328D01*
Y169676D01*
X95314D01*
Y169662D01*
X95287D01*
Y169648D01*
X95273D01*
Y169635D01*
X95260D01*
Y169621D01*
X95246D01*
Y169607D01*
X95232D01*
Y169594D01*
X95219D01*
Y169580D01*
X95205D01*
Y169566D01*
X95191D01*
Y169553D01*
X95178D01*
Y169539D01*
X95164D01*
Y169525D01*
X95150D01*
Y169512D01*
X95137D01*
Y169498D01*
X95123D01*
Y169484D01*
X95109D01*
Y169471D01*
X95096D01*
Y169457D01*
X95082D01*
Y169443D01*
X95068D01*
Y169430D01*
X95055D01*
Y169416D01*
X95068D01*
Y169402D01*
X95082D01*
Y169389D01*
X95096D01*
Y169375D01*
X95109D01*
Y169361D01*
X95123D01*
Y169348D01*
X95137D01*
Y169334D01*
X95150D01*
Y169320D01*
X95164D01*
Y169307D01*
X95178D01*
Y169293D01*
X95191D01*
Y169279D01*
X95205D01*
Y169266D01*
X95219D01*
Y169252D01*
X95232D01*
Y169238D01*
X95246D01*
Y169225D01*
X95260D01*
Y169211D01*
X95273D01*
Y169197D01*
X95287D01*
Y169184D01*
X95301D01*
Y169170D01*
X95314D01*
Y169156D01*
X95328D01*
Y169143D01*
X95342D01*
Y169129D01*
X95355D01*
Y169115D01*
X95369D01*
Y169102D01*
X95383D01*
Y169088D01*
X95397D01*
Y169074D01*
X95410D01*
Y169061D01*
X95424D01*
Y169047D01*
X95438D01*
Y169033D01*
X95451D01*
Y169019D01*
X95465D01*
Y169006D01*
X95478D01*
Y168992D01*
X95492D01*
Y168979D01*
X95506D01*
Y168965D01*
X95520D01*
Y168951D01*
X95533D01*
Y168938D01*
X95547D01*
Y168924D01*
X95574D01*
Y168910D01*
X95588D01*
Y168896D01*
X95602D01*
Y168883D01*
X95615D01*
Y168869D01*
X95629D01*
Y168856D01*
X95643D01*
Y168842D01*
X95656D01*
Y168828D01*
X95670D01*
Y168815D01*
X95684D01*
Y168801D01*
X95697D01*
Y168787D01*
X95711D01*
Y168773D01*
X95725D01*
Y168760D01*
X95738D01*
Y168746D01*
X95752D01*
Y168732D01*
X95766D01*
Y168719D01*
X95779D01*
Y168705D01*
X95793D01*
Y168691D01*
X95807D01*
Y168678D01*
X95820D01*
Y168664D01*
X95834D01*
Y168650D01*
X95848D01*
Y168637D01*
X95861D01*
Y168623D01*
X95875D01*
Y168609D01*
X95889D01*
Y168596D01*
X95902D01*
Y168582D01*
X95916D01*
Y168568D01*
X95930D01*
Y168555D01*
X95943D01*
Y168541D01*
X95957D01*
Y168527D01*
X95971D01*
Y168514D01*
X95984D01*
Y168500D01*
X95998D01*
Y168486D01*
X96012D01*
Y168473D01*
X96025D01*
Y168459D01*
X96039D01*
Y168445D01*
X96053D01*
Y168432D01*
X96066D01*
Y168418D01*
X96080D01*
Y168404D01*
X96094D01*
Y168391D01*
X96107D01*
Y168377D01*
X96121D01*
Y168363D01*
X96135D01*
Y168350D01*
X96148D01*
Y168336D01*
X96162D01*
Y168322D01*
X96176D01*
Y168309D01*
X96189D01*
Y168295D01*
X96217D01*
Y168281D01*
X96231D01*
Y168268D01*
X96244D01*
Y168254D01*
X96258D01*
Y168240D01*
X96272D01*
Y168227D01*
X96285D01*
Y168213D01*
X96299D01*
Y168199D01*
X96312D01*
Y168185D01*
X96326D01*
Y168172D01*
X96340D01*
Y168158D01*
X96354D01*
Y168145D01*
X96367D01*
Y168131D01*
X96381D01*
Y168117D01*
X96394D01*
Y168104D01*
X96408D01*
Y168090D01*
X96422D01*
Y168076D01*
X96436D01*
Y168062D01*
X96449D01*
Y168049D01*
X96463D01*
Y168035D01*
X96477D01*
Y168022D01*
X96490D01*
Y168008D01*
X96504D01*
Y167994D01*
X96518D01*
Y167981D01*
X96531D01*
Y167967D01*
X96545D01*
Y167953D01*
X96559D01*
Y167939D01*
X96572D01*
Y167926D01*
X96586D01*
Y167912D01*
X96600D01*
Y167898D01*
X96613D01*
Y167885D01*
X96627D01*
Y167871D01*
X96641D01*
Y167857D01*
X96654D01*
Y167844D01*
X96668D01*
Y167830D01*
X96682D01*
Y167816D01*
X96695D01*
Y167803D01*
X96709D01*
Y167789D01*
X96723D01*
Y167775D01*
X96736D01*
Y167762D01*
X96750D01*
Y167748D01*
X96764D01*
Y167734D01*
X96777D01*
Y167721D01*
X96791D01*
Y167707D01*
X96805D01*
Y167693D01*
X96818D01*
Y167680D01*
X96832D01*
Y167666D01*
X96846D01*
Y167652D01*
X96873D01*
Y167639D01*
X96887D01*
Y167625D01*
X96900D01*
Y167611D01*
X96914D01*
Y167598D01*
X96928D01*
Y167584D01*
X96941D01*
Y167570D01*
X96955D01*
Y167557D01*
X96969D01*
Y167543D01*
X96982D01*
Y167529D01*
X96996D01*
Y167516D01*
X97010D01*
Y167502D01*
X97023D01*
Y167488D01*
X97037D01*
Y167475D01*
X97051D01*
Y167461D01*
X97064D01*
Y167447D01*
X97078D01*
Y167434D01*
X97092D01*
Y167420D01*
X97105D01*
Y167406D01*
X97119D01*
Y167393D01*
X97133D01*
Y167379D01*
X97146D01*
Y167365D01*
X97160D01*
Y167352D01*
X97174D01*
Y167338D01*
X97188D01*
Y167324D01*
X97201D01*
Y167311D01*
X97215D01*
Y167297D01*
X97228D01*
Y167283D01*
X97242D01*
Y167270D01*
X97256D01*
Y167256D01*
X97269D01*
Y167242D01*
X97283D01*
Y167228D01*
X97297D01*
Y167215D01*
X97311D01*
Y167201D01*
X97324D01*
Y167188D01*
X97338D01*
Y167174D01*
X97352D01*
Y167160D01*
X97365D01*
Y167147D01*
X97379D01*
Y167133D01*
X97393D01*
Y167119D01*
X97406D01*
Y167105D01*
X97420D01*
Y167092D01*
X97434D01*
Y167078D01*
X97447D01*
Y167064D01*
X97461D01*
Y167051D01*
X97475D01*
Y167037D01*
X97488D01*
Y167023D01*
X97516D01*
Y167010D01*
X97529D01*
Y166996D01*
X97543D01*
Y166982D01*
X97557D01*
Y166969D01*
X97570D01*
Y166955D01*
X97584D01*
Y166941D01*
X97598D01*
Y166928D01*
X97611D01*
Y166914D01*
X97625D01*
Y166900D01*
X97639D01*
Y166887D01*
X97652D01*
Y166873D01*
X97666D01*
Y166859D01*
X97680D01*
Y166846D01*
X97693D01*
Y166832D01*
X97707D01*
Y166818D01*
X97721D01*
Y166805D01*
X97734D01*
Y166791D01*
X97748D01*
Y166777D01*
X97762D01*
Y166764D01*
X97775D01*
Y166750D01*
X97789D01*
Y166736D01*
X97803D01*
Y166723D01*
X97816D01*
Y166709D01*
X97830D01*
Y166695D01*
X97844D01*
Y166682D01*
X97857D01*
Y166668D01*
X97871D01*
Y166654D01*
X97885D01*
Y166641D01*
X97898D01*
Y166627D01*
X97912D01*
Y166613D01*
X97926D01*
Y166600D01*
X97939D01*
Y166586D01*
X97953D01*
Y166572D01*
X97967D01*
Y166559D01*
X97980D01*
Y166545D01*
X97994D01*
Y166531D01*
X98008D01*
Y166518D01*
X98022D01*
Y166504D01*
X98035D01*
Y166490D01*
X98049D01*
Y166477D01*
X98062D01*
Y166463D01*
X98076D01*
Y166449D01*
X98090D01*
Y166436D01*
X98103D01*
Y166422D01*
X98117D01*
Y166408D01*
X98131D01*
Y166394D01*
X98145D01*
Y166381D01*
X98172D01*
Y166367D01*
X98186D01*
Y166353D01*
X98199D01*
Y166340D01*
X98213D01*
Y166326D01*
X98227D01*
Y166313D01*
X98240D01*
Y166299D01*
X98254D01*
Y166285D01*
X98268D01*
Y166271D01*
X98281D01*
Y166258D01*
X98295D01*
Y166244D01*
X98309D01*
Y166230D01*
X98322D01*
Y166217D01*
X98336D01*
Y166203D01*
X98350D01*
Y166190D01*
X98363D01*
Y166176D01*
X98377D01*
Y166162D01*
X98391D01*
Y166148D01*
X98404D01*
Y166135D01*
X98418D01*
Y166121D01*
X98432D01*
Y166107D01*
X98445D01*
Y166094D01*
X98459D01*
Y166080D01*
X98473D01*
Y166066D01*
X98486D01*
Y166053D01*
X98500D01*
Y166039D01*
X98514D01*
Y166025D01*
X98527D01*
Y166012D01*
X98541D01*
Y165998D01*
X98555D01*
Y165984D01*
X98568D01*
Y165971D01*
X98582D01*
Y165957D01*
X98596D01*
Y165943D01*
X98609D01*
Y165930D01*
X98623D01*
Y165916D01*
X98637D01*
Y165902D01*
X98650D01*
Y165889D01*
X98664D01*
Y165875D01*
X98678D01*
Y165861D01*
X98691D01*
Y165848D01*
X98705D01*
Y165834D01*
X98719D01*
Y165820D01*
X98732D01*
Y165807D01*
X98746D01*
Y165793D01*
X98760D01*
Y165779D01*
X98773D01*
Y165766D01*
X98787D01*
Y165752D01*
X98814D01*
Y165738D01*
X98828D01*
Y165725D01*
X98842D01*
Y165711D01*
X98856D01*
Y165697D01*
X98869D01*
Y165684D01*
X98883D01*
Y165670D01*
X98896D01*
Y165656D01*
X98910D01*
Y165643D01*
X98924D01*
Y165629D01*
X98937D01*
Y165615D01*
X98951D01*
Y165602D01*
X98965D01*
Y165588D01*
X98979D01*
Y165574D01*
X98992D01*
Y165560D01*
X99006D01*
Y165547D01*
X99019D01*
Y165533D01*
X99033D01*
Y165519D01*
X99047D01*
Y165506D01*
X99061D01*
Y165492D01*
X99074D01*
Y165479D01*
X99088D01*
Y165465D01*
X99102D01*
Y165451D01*
X99115D01*
Y165437D01*
X99129D01*
Y165424D01*
X99143D01*
Y165410D01*
X99156D01*
Y165396D01*
X99170D01*
Y165383D01*
X99184D01*
Y165369D01*
X99197D01*
Y165356D01*
X99211D01*
Y165342D01*
X99225D01*
Y165328D01*
X99238D01*
Y165314D01*
X99252D01*
Y165301D01*
X99266D01*
Y165287D01*
X99279D01*
Y165273D01*
X99293D01*
Y165260D01*
X99307D01*
Y165246D01*
X99320D01*
Y165232D01*
X99334D01*
Y165219D01*
X99348D01*
Y165205D01*
X99361D01*
Y165191D01*
X99375D01*
Y165178D01*
X99389D01*
Y165164D01*
X99402D01*
Y165150D01*
X99416D01*
Y165137D01*
X99430D01*
Y165123D01*
X99457D01*
Y165109D01*
X99471D01*
Y165096D01*
X99484D01*
Y165082D01*
X99498D01*
Y165068D01*
X99512D01*
Y165055D01*
X99525D01*
Y165041D01*
X99539D01*
Y165027D01*
X99553D01*
Y165014D01*
X99566D01*
Y165000D01*
X99580D01*
Y164986D01*
X99594D01*
Y165000D01*
X99580D01*
Y178316D01*
X99594D01*
Y178330D01*
D02*
G37*
G36*
X94193Y168555D02*
X94166D01*
Y168541D01*
X94152D01*
Y168527D01*
X94139D01*
Y168514D01*
X94125D01*
Y168500D01*
X94111D01*
Y168486D01*
X94098D01*
Y168473D01*
X94084D01*
Y168459D01*
X94070D01*
Y168445D01*
X94057D01*
Y168432D01*
X94043D01*
Y168418D01*
X94029D01*
Y168404D01*
X94016D01*
Y168391D01*
X94002D01*
Y168377D01*
X93988D01*
Y168363D01*
X93975D01*
Y168350D01*
X93961D01*
Y168336D01*
X93947D01*
Y168322D01*
X93934D01*
Y168309D01*
X93920D01*
Y168295D01*
X93906D01*
Y168281D01*
X93893D01*
Y168268D01*
X93879D01*
Y168254D01*
X93865D01*
Y168240D01*
X93852D01*
Y168227D01*
X93838D01*
Y168213D01*
X93824D01*
Y168199D01*
X93811D01*
Y168185D01*
X93797D01*
Y168172D01*
X93783D01*
Y168158D01*
X93770D01*
Y168145D01*
X93756D01*
Y168131D01*
X93742D01*
Y168117D01*
X93729D01*
Y168104D01*
X93715D01*
Y168090D01*
X93701D01*
Y168076D01*
X93687D01*
Y168062D01*
X93674D01*
Y168049D01*
X93660D01*
Y168035D01*
X93647D01*
Y168022D01*
X93633D01*
Y168008D01*
X93619D01*
Y167994D01*
X93606D01*
Y167981D01*
X93592D01*
Y167967D01*
X93578D01*
Y167953D01*
X93564D01*
Y167939D01*
X93551D01*
Y167926D01*
X93537D01*
Y167912D01*
X93523D01*
Y167898D01*
X93510D01*
Y167885D01*
X93496D01*
Y167871D01*
X93482D01*
Y167857D01*
X93469D01*
Y167844D01*
X93455D01*
Y167830D01*
X93441D01*
Y167816D01*
X93428D01*
Y167803D01*
X93414D01*
Y167789D01*
X93400D01*
Y167775D01*
X93387D01*
Y167762D01*
X93373D01*
Y167748D01*
X93359D01*
Y167734D01*
X93346D01*
Y167721D01*
X93332D01*
Y167707D01*
X93318D01*
Y167693D01*
X93305D01*
Y167680D01*
X93291D01*
Y167666D01*
X93277D01*
Y167652D01*
X93264D01*
Y167639D01*
X93250D01*
Y167625D01*
X93236D01*
Y167611D01*
X93223D01*
Y167598D01*
X93209D01*
Y167584D01*
X93195D01*
Y167570D01*
X93182D01*
Y167557D01*
X93168D01*
Y167543D01*
X93154D01*
Y167529D01*
X93141D01*
Y167516D01*
X93127D01*
Y167502D01*
X93113D01*
Y167488D01*
X93100D01*
Y167475D01*
X93086D01*
Y167461D01*
X93072D01*
Y167447D01*
X93045D01*
Y167434D01*
X93031D01*
Y167420D01*
X93018D01*
Y167406D01*
X93004D01*
Y167393D01*
X92990D01*
Y167379D01*
X92977D01*
Y167365D01*
X92963D01*
Y167352D01*
X92949D01*
Y167338D01*
X92936D01*
Y167324D01*
X92922D01*
Y167311D01*
X92908D01*
Y167297D01*
X92895D01*
Y167283D01*
X92881D01*
Y167270D01*
X92867D01*
Y167256D01*
X92853D01*
Y167242D01*
X92840D01*
Y167228D01*
X92826D01*
Y167215D01*
X92813D01*
Y167201D01*
X92799D01*
Y167188D01*
X92785D01*
Y167174D01*
X92772D01*
Y167160D01*
X92758D01*
Y167147D01*
X92744D01*
Y167133D01*
X92730D01*
Y167119D01*
X92717D01*
Y167105D01*
X92703D01*
Y167092D01*
X92689D01*
Y167078D01*
X92676D01*
Y167064D01*
X92662D01*
Y167051D01*
X92648D01*
Y167037D01*
X92635D01*
Y167023D01*
X92621D01*
Y167010D01*
X92607D01*
Y166996D01*
X92594D01*
Y166982D01*
X92580D01*
Y166969D01*
X92566D01*
Y166955D01*
X92553D01*
Y166941D01*
X92539D01*
Y166928D01*
X92525D01*
Y166914D01*
X92512D01*
Y166900D01*
X92498D01*
Y166887D01*
X92484D01*
Y166873D01*
X92471D01*
Y166859D01*
X92457D01*
Y166846D01*
X92443D01*
Y166832D01*
X92430D01*
Y166818D01*
X92416D01*
Y166805D01*
X92402D01*
Y166791D01*
X92389D01*
Y166777D01*
X92375D01*
Y166764D01*
X92361D01*
Y166750D01*
X92348D01*
Y166736D01*
X92334D01*
Y166723D01*
X92320D01*
Y166709D01*
X92307D01*
Y166695D01*
X92293D01*
Y166682D01*
X92279D01*
Y166668D01*
X92266D01*
Y166654D01*
X92252D01*
Y166641D01*
X92238D01*
Y166627D01*
X92225D01*
Y166613D01*
X92211D01*
Y166600D01*
X92197D01*
Y166586D01*
X92184D01*
Y166572D01*
X92170D01*
Y166559D01*
X92156D01*
Y166545D01*
X92143D01*
Y166531D01*
X92129D01*
Y166518D01*
X92115D01*
Y166504D01*
X92102D01*
Y166490D01*
X92088D01*
Y166477D01*
X92074D01*
Y166463D01*
X92061D01*
Y166449D01*
X92047D01*
Y166436D01*
X92033D01*
Y166422D01*
X92019D01*
Y166408D01*
X92006D01*
Y166394D01*
X91992D01*
Y166381D01*
X91979D01*
Y166367D01*
X91965D01*
Y166353D01*
X91938D01*
Y166340D01*
X91924D01*
Y166326D01*
X91910D01*
Y166313D01*
X91896D01*
Y166299D01*
X91883D01*
Y166285D01*
X91869D01*
Y166271D01*
X91856D01*
Y166258D01*
X91842D01*
Y166244D01*
X91828D01*
Y166230D01*
X91814D01*
Y166217D01*
X91801D01*
Y166203D01*
X91787D01*
Y166190D01*
X91773D01*
Y166176D01*
X91760D01*
Y166162D01*
X91746D01*
Y166148D01*
X91732D01*
Y166135D01*
X91719D01*
Y166121D01*
X91705D01*
Y166107D01*
X91691D01*
Y166094D01*
X91678D01*
Y166080D01*
X91664D01*
Y166066D01*
X91650D01*
Y166053D01*
X91637D01*
Y166039D01*
X91623D01*
Y166025D01*
X91609D01*
Y166012D01*
X91596D01*
Y165998D01*
X91582D01*
Y165984D01*
X91568D01*
Y165971D01*
X91555D01*
Y165957D01*
X91541D01*
Y165943D01*
X91527D01*
Y165930D01*
X91514D01*
Y165916D01*
X91500D01*
Y165902D01*
X91486D01*
Y165889D01*
X91473D01*
Y165875D01*
X91459D01*
Y165861D01*
X91445D01*
Y165848D01*
X91432D01*
Y165834D01*
X91418D01*
Y165820D01*
X91404D01*
Y165807D01*
X91391D01*
Y165793D01*
X91377D01*
Y165779D01*
X91363D01*
Y165766D01*
X91350D01*
Y165752D01*
X91336D01*
Y165738D01*
X91322D01*
Y165725D01*
X91309D01*
Y165711D01*
X91295D01*
Y165697D01*
X91281D01*
Y165684D01*
X91268D01*
Y165670D01*
X91254D01*
Y165656D01*
X91240D01*
Y165643D01*
X91227D01*
Y165629D01*
X91213D01*
Y165615D01*
X91199D01*
Y165602D01*
X91186D01*
Y165588D01*
X91172D01*
Y165574D01*
X91158D01*
Y165560D01*
X91145D01*
Y165547D01*
X91131D01*
Y165533D01*
X91117D01*
Y165519D01*
X91104D01*
Y165506D01*
X91090D01*
Y165492D01*
X91076D01*
Y165479D01*
X91062D01*
Y165465D01*
X91049D01*
Y165451D01*
X91035D01*
Y165437D01*
X91022D01*
Y165424D01*
X91008D01*
Y165410D01*
X90994D01*
Y165396D01*
X90980D01*
Y165383D01*
X90967D01*
Y165369D01*
X90953D01*
Y165356D01*
X90939D01*
Y165342D01*
X90926D01*
Y165328D01*
X90912D01*
Y165314D01*
X90898D01*
Y165301D01*
X90885D01*
Y165287D01*
X90871D01*
Y165273D01*
X90857D01*
Y165260D01*
X90844D01*
Y165246D01*
X90816D01*
Y165232D01*
X90803D01*
Y165219D01*
X90789D01*
Y165205D01*
X90775D01*
Y165191D01*
X90762D01*
Y165178D01*
X90748D01*
Y165164D01*
X90734D01*
Y165150D01*
X90721D01*
Y165137D01*
X90707D01*
Y165123D01*
X90693D01*
Y165109D01*
X90680D01*
Y165096D01*
X90666D01*
Y165082D01*
X90652D01*
Y165068D01*
X90639D01*
Y165055D01*
X90625D01*
Y165041D01*
X90611D01*
Y165027D01*
X90598D01*
Y165014D01*
X90584D01*
Y165000D01*
X90570D01*
Y164986D01*
X90557D01*
Y164973D01*
X90543D01*
Y164959D01*
X90529D01*
Y164945D01*
X90516D01*
Y164932D01*
X90502D01*
Y164918D01*
X90488D01*
Y164904D01*
X90475D01*
Y164891D01*
X90461D01*
Y164877D01*
X90447D01*
Y164863D01*
X90434D01*
Y164850D01*
X90420D01*
Y164836D01*
X90406D01*
Y164822D01*
X90393D01*
Y164809D01*
X90379D01*
Y164795D01*
X90365D01*
Y164781D01*
X90352D01*
Y164768D01*
X90338D01*
Y164754D01*
X90324D01*
Y164740D01*
X90311D01*
Y164727D01*
X90297D01*
Y164713D01*
X90283D01*
Y164699D01*
X90270D01*
Y164685D01*
X90256D01*
Y164672D01*
X90242D01*
Y164658D01*
X90228D01*
Y164645D01*
X90215D01*
Y164631D01*
X90201D01*
Y164617D01*
X90188D01*
Y164603D01*
X90174D01*
Y164590D01*
X90160D01*
Y164576D01*
X90146D01*
Y164562D01*
X90133D01*
Y164549D01*
X90119D01*
Y164535D01*
X90105D01*
Y164522D01*
X90092D01*
Y164508D01*
X90078D01*
Y164494D01*
X90064D01*
Y164480D01*
X90051D01*
Y164467D01*
X90037D01*
Y164453D01*
X90023D01*
Y164439D01*
X90010D01*
Y164426D01*
X89996D01*
Y164412D01*
X89982D01*
Y164398D01*
X89969D01*
Y164385D01*
X89955D01*
Y164371D01*
X89941D01*
Y164357D01*
X89928D01*
Y164344D01*
X89914D01*
Y164330D01*
X89900D01*
Y164316D01*
X89887D01*
Y164303D01*
X89873D01*
Y164289D01*
X89859D01*
Y164275D01*
X89846D01*
Y164262D01*
X89832D01*
Y164248D01*
X89818D01*
Y164234D01*
X89805D01*
Y164221D01*
X89791D01*
Y164207D01*
X89777D01*
Y164193D01*
X89764D01*
Y164180D01*
X89750D01*
Y164166D01*
X89736D01*
Y164152D01*
X89709D01*
Y164125D01*
X89723D01*
Y164139D01*
X98691D01*
Y164152D01*
X98678D01*
Y164166D01*
X98664D01*
Y164180D01*
X98650D01*
Y164193D01*
X98637D01*
Y164207D01*
X98623D01*
Y164221D01*
X98609D01*
Y164234D01*
X98596D01*
Y164248D01*
X98582D01*
Y164262D01*
X98568D01*
Y164275D01*
X98555D01*
Y164289D01*
X98541D01*
Y164303D01*
X98527D01*
Y164316D01*
X98514D01*
Y164330D01*
X98500D01*
Y164344D01*
X98486D01*
Y164357D01*
X98473D01*
Y164371D01*
X98459D01*
Y164385D01*
X98445D01*
Y164398D01*
X98432D01*
Y164412D01*
X98418D01*
Y164426D01*
X98404D01*
Y164439D01*
X98391D01*
Y164453D01*
X98377D01*
Y164467D01*
X98363D01*
Y164480D01*
X98350D01*
Y164494D01*
X98336D01*
Y164508D01*
X98322D01*
Y164522D01*
X98309D01*
Y164535D01*
X98295D01*
Y164549D01*
X98281D01*
Y164562D01*
X98268D01*
Y164576D01*
X98254D01*
Y164590D01*
X98240D01*
Y164603D01*
X98227D01*
Y164617D01*
X98213D01*
Y164631D01*
X98199D01*
Y164645D01*
X98186D01*
Y164658D01*
X98172D01*
Y164672D01*
X98158D01*
Y164685D01*
X98131D01*
Y164699D01*
X98117D01*
Y164713D01*
X98103D01*
Y164727D01*
X98090D01*
Y164740D01*
X98076D01*
Y164754D01*
X98062D01*
Y164768D01*
X98049D01*
Y164781D01*
X98035D01*
Y164795D01*
X98022D01*
Y164809D01*
X98008D01*
Y164822D01*
X97994D01*
Y164836D01*
X97980D01*
Y164850D01*
X97967D01*
Y164863D01*
X97953D01*
Y164877D01*
X97939D01*
Y164891D01*
X97926D01*
Y164904D01*
X97912D01*
Y164918D01*
X97898D01*
Y164932D01*
X97885D01*
Y164945D01*
X97871D01*
Y164959D01*
X97857D01*
Y164973D01*
X97844D01*
Y164986D01*
X97830D01*
Y165000D01*
X97816D01*
Y165014D01*
X97803D01*
Y165027D01*
X97789D01*
Y165041D01*
X97775D01*
Y165055D01*
X97762D01*
Y165068D01*
X97748D01*
Y165082D01*
X97734D01*
Y165096D01*
X97721D01*
Y165109D01*
X97707D01*
Y165123D01*
X97693D01*
Y165137D01*
X97680D01*
Y165150D01*
X97666D01*
Y165164D01*
X97652D01*
Y165178D01*
X97639D01*
Y165191D01*
X97625D01*
Y165205D01*
X97611D01*
Y165219D01*
X97598D01*
Y165232D01*
X97584D01*
Y165246D01*
X97570D01*
Y165260D01*
X97557D01*
Y165273D01*
X97543D01*
Y165287D01*
X97529D01*
Y165301D01*
X97516D01*
Y165314D01*
X97502D01*
Y165328D01*
X97475D01*
Y165342D01*
X97461D01*
Y165356D01*
X97447D01*
Y165369D01*
X97434D01*
Y165383D01*
X97420D01*
Y165396D01*
X97406D01*
Y165410D01*
X97393D01*
Y165424D01*
X97379D01*
Y165437D01*
X97365D01*
Y165451D01*
X97352D01*
Y165465D01*
X97338D01*
Y165479D01*
X97324D01*
Y165492D01*
X97311D01*
Y165506D01*
X97297D01*
Y165519D01*
X97283D01*
Y165533D01*
X97269D01*
Y165547D01*
X97256D01*
Y165560D01*
X97242D01*
Y165574D01*
X97228D01*
Y165588D01*
X97215D01*
Y165602D01*
X97201D01*
Y165615D01*
X97188D01*
Y165629D01*
X97174D01*
Y165643D01*
X97160D01*
Y165656D01*
X97146D01*
Y165670D01*
X97133D01*
Y165684D01*
X97119D01*
Y165697D01*
X97105D01*
Y165711D01*
X97092D01*
Y165725D01*
X97078D01*
Y165738D01*
X97064D01*
Y165752D01*
X97051D01*
Y165766D01*
X97037D01*
Y165779D01*
X97023D01*
Y165793D01*
X97010D01*
Y165807D01*
X96996D01*
Y165820D01*
X96982D01*
Y165834D01*
X96969D01*
Y165848D01*
X96955D01*
Y165861D01*
X96941D01*
Y165875D01*
X96928D01*
Y165889D01*
X96914D01*
Y165902D01*
X96900D01*
Y165916D01*
X96887D01*
Y165930D01*
X96873D01*
Y165943D01*
X96859D01*
Y165957D01*
X96846D01*
Y165971D01*
X96818D01*
Y165984D01*
X96805D01*
Y165998D01*
X96791D01*
Y166012D01*
X96777D01*
Y166025D01*
X96764D01*
Y166039D01*
X96750D01*
Y166053D01*
X96736D01*
Y166066D01*
X96723D01*
Y166080D01*
X96709D01*
Y166094D01*
X96695D01*
Y166107D01*
X96682D01*
Y166121D01*
X96668D01*
Y166135D01*
X96654D01*
Y166148D01*
X96641D01*
Y166162D01*
X96627D01*
Y166176D01*
X96613D01*
Y166190D01*
X96600D01*
Y166203D01*
X96586D01*
Y166217D01*
X96572D01*
Y166230D01*
X96559D01*
Y166244D01*
X96545D01*
Y166258D01*
X96531D01*
Y166271D01*
X96518D01*
Y166285D01*
X96504D01*
Y166299D01*
X96490D01*
Y166313D01*
X96477D01*
Y166326D01*
X96463D01*
Y166340D01*
X96449D01*
Y166353D01*
X96436D01*
Y166367D01*
X96422D01*
Y166381D01*
X96408D01*
Y166394D01*
X96394D01*
Y166408D01*
X96381D01*
Y166422D01*
X96367D01*
Y166436D01*
X96354D01*
Y166449D01*
X96340D01*
Y166463D01*
X96326D01*
Y166477D01*
X96312D01*
Y166490D01*
X96299D01*
Y166504D01*
X96285D01*
Y166518D01*
X96272D01*
Y166531D01*
X96258D01*
Y166545D01*
X96244D01*
Y166559D01*
X96231D01*
Y166572D01*
X96217D01*
Y166586D01*
X96203D01*
Y166600D01*
X96176D01*
Y166613D01*
X96162D01*
Y166627D01*
X96148D01*
Y166641D01*
X96135D01*
Y166654D01*
X96121D01*
Y166668D01*
X96107D01*
Y166682D01*
X96094D01*
Y166695D01*
X96080D01*
Y166709D01*
X96066D01*
Y166723D01*
X96053D01*
Y166736D01*
X96039D01*
Y166750D01*
X96025D01*
Y166764D01*
X96012D01*
Y166777D01*
X95998D01*
Y166791D01*
X95984D01*
Y166805D01*
X95971D01*
Y166818D01*
X95957D01*
Y166832D01*
X95943D01*
Y166846D01*
X95930D01*
Y166859D01*
X95916D01*
Y166873D01*
X95902D01*
Y166887D01*
X95889D01*
Y166900D01*
X95875D01*
Y166914D01*
X95861D01*
Y166928D01*
X95848D01*
Y166941D01*
X95834D01*
Y166955D01*
X95820D01*
Y166969D01*
X95807D01*
Y166982D01*
X95793D01*
Y166996D01*
X95779D01*
Y167010D01*
X95766D01*
Y167023D01*
X95752D01*
Y167037D01*
X95738D01*
Y167051D01*
X95725D01*
Y167064D01*
X95711D01*
Y167078D01*
X95697D01*
Y167092D01*
X95684D01*
Y167105D01*
X95670D01*
Y167119D01*
X95656D01*
Y167133D01*
X95643D01*
Y167147D01*
X95629D01*
Y167160D01*
X95615D01*
Y167174D01*
X95602D01*
Y167188D01*
X95588D01*
Y167201D01*
X95574D01*
Y167215D01*
X95561D01*
Y167228D01*
X95547D01*
Y167242D01*
X95520D01*
Y167256D01*
X95506D01*
Y167270D01*
X95492D01*
Y167283D01*
X95478D01*
Y167297D01*
X95465D01*
Y167311D01*
X95451D01*
Y167324D01*
X95438D01*
Y167338D01*
X95424D01*
Y167352D01*
X95410D01*
Y167365D01*
X95397D01*
Y167379D01*
X95383D01*
Y167393D01*
X95369D01*
Y167406D01*
X95355D01*
Y167420D01*
X95342D01*
Y167434D01*
X95328D01*
Y167447D01*
X95314D01*
Y167461D01*
X95301D01*
Y167475D01*
X95287D01*
Y167488D01*
X95273D01*
Y167502D01*
X95260D01*
Y167516D01*
X95246D01*
Y167529D01*
X95232D01*
Y167543D01*
X95219D01*
Y167557D01*
X95205D01*
Y167570D01*
X95191D01*
Y167584D01*
X95178D01*
Y167598D01*
X95164D01*
Y167611D01*
X95150D01*
Y167625D01*
X95137D01*
Y167639D01*
X95123D01*
Y167652D01*
X95109D01*
Y167666D01*
X95096D01*
Y167680D01*
X95082D01*
Y167693D01*
X95068D01*
Y167707D01*
X95055D01*
Y167721D01*
X95041D01*
Y167734D01*
X95027D01*
Y167748D01*
X95014D01*
Y167762D01*
X95000D01*
Y167775D01*
X94986D01*
Y167789D01*
X94973D01*
Y167803D01*
X94959D01*
Y167816D01*
X94945D01*
Y167830D01*
X94932D01*
Y167844D01*
X94918D01*
Y167857D01*
X94904D01*
Y167871D01*
X94891D01*
Y167885D01*
X94863D01*
Y167898D01*
X94850D01*
Y167912D01*
X94836D01*
Y167926D01*
X94822D01*
Y167939D01*
X94809D01*
Y167953D01*
X94795D01*
Y167967D01*
X94781D01*
Y167981D01*
X94768D01*
Y167994D01*
X94754D01*
Y168008D01*
X94740D01*
Y168022D01*
X94727D01*
Y168035D01*
X94713D01*
Y168049D01*
X94699D01*
Y168062D01*
X94686D01*
Y168076D01*
X94672D01*
Y168090D01*
X94658D01*
Y168104D01*
X94644D01*
Y168117D01*
X94631D01*
Y168131D01*
X94617D01*
Y168145D01*
X94604D01*
Y168158D01*
X94590D01*
Y168172D01*
X94576D01*
Y168185D01*
X94563D01*
Y168199D01*
X94549D01*
Y168213D01*
X94535D01*
Y168227D01*
X94521D01*
Y168240D01*
X94508D01*
Y168254D01*
X94494D01*
Y168268D01*
X94481D01*
Y168281D01*
X94467D01*
Y168295D01*
X94453D01*
Y168309D01*
X94439D01*
Y168322D01*
X94426D01*
Y168336D01*
X94412D01*
Y168350D01*
X94398D01*
Y168363D01*
X94385D01*
Y168377D01*
X94371D01*
Y168391D01*
X94357D01*
Y168404D01*
X94344D01*
Y168418D01*
X94330D01*
Y168432D01*
X94316D01*
Y168445D01*
X94303D01*
Y168459D01*
X94289D01*
Y168473D01*
X94275D01*
Y168486D01*
X94262D01*
Y168500D01*
X94248D01*
Y168514D01*
X94221D01*
Y168527D01*
X94207D01*
Y168541D01*
X94193D01*
Y168555D01*
D02*
G37*
G36*
X186425Y130762D02*
X184852D01*
Y130663D01*
X184753D01*
Y129680D01*
X184852D01*
Y129483D01*
X184950D01*
Y129385D01*
X185048D01*
Y129287D01*
X185245D01*
Y129188D01*
X186032D01*
Y129287D01*
X186228D01*
Y129385D01*
X186327D01*
Y129582D01*
X186425D01*
Y130762D01*
D02*
G37*
G36*
X187605Y126730D02*
X185835D01*
Y126632D01*
X185343D01*
Y126533D01*
X185048D01*
Y126435D01*
X184950D01*
Y126337D01*
X184852D01*
Y126140D01*
X184753D01*
Y125353D01*
X184852D01*
Y125157D01*
X184950D01*
Y125058D01*
X185147D01*
Y124960D01*
X185343D01*
Y124862D01*
X188097D01*
Y124960D01*
X188293D01*
Y125058D01*
X188490D01*
Y125255D01*
X188588D01*
Y125353D01*
X188687D01*
Y126140D01*
X188588D01*
Y126337D01*
X188490D01*
Y126435D01*
X188293D01*
Y126533D01*
X188097D01*
Y126632D01*
X187605D01*
Y126730D01*
D02*
G37*
G36*
X186523Y104703D02*
X184852D01*
Y104605D01*
X184753D01*
Y103523D01*
X184852D01*
Y103327D01*
X184950D01*
Y103228D01*
X185048D01*
Y103130D01*
X185245D01*
Y103032D01*
X186130D01*
Y103130D01*
X186327D01*
Y103228D01*
X186425D01*
Y103327D01*
X186523D01*
Y103425D01*
X186622D01*
Y104605D01*
X186523D01*
Y104703D01*
D02*
G37*
G36*
X186425Y100573D02*
X184852D01*
Y100475D01*
X184753D01*
Y99492D01*
X184852D01*
Y99295D01*
X184950D01*
Y99197D01*
X185048D01*
Y99098D01*
X185245D01*
Y99000D01*
X186032D01*
Y99098D01*
X186228D01*
Y99197D01*
X186327D01*
Y99393D01*
X186425D01*
Y100573D01*
D02*
G37*
G36*
X187507Y96542D02*
X185835D01*
Y96443D01*
X185343D01*
Y96345D01*
X185048D01*
Y96247D01*
X184950D01*
Y96148D01*
X184852D01*
Y95952D01*
X184753D01*
Y95165D01*
X184852D01*
Y94968D01*
X184950D01*
Y94870D01*
X185147D01*
Y94772D01*
X185343D01*
Y94673D01*
X185835D01*
Y94575D01*
X187507D01*
Y94673D01*
X188097D01*
Y94772D01*
X188293D01*
Y94870D01*
X188490D01*
Y95067D01*
X188588D01*
Y95165D01*
X188687D01*
Y95952D01*
X188588D01*
Y96148D01*
X188490D01*
Y96247D01*
X188293D01*
Y96345D01*
X188097D01*
Y96443D01*
X187507D01*
Y96542D01*
D02*
G37*
G36*
X186622Y92117D02*
X184753D01*
Y90937D01*
X184852D01*
Y90740D01*
X184950D01*
Y90642D01*
X185147D01*
Y90543D01*
X185343D01*
Y90445D01*
X186032D01*
Y90543D01*
X186327D01*
Y90642D01*
X186425D01*
Y90740D01*
X186523D01*
Y90937D01*
X186622D01*
Y92117D01*
D02*
G37*
G36*
X188097Y74515D02*
X185343D01*
Y74417D01*
X185147D01*
Y74318D01*
X184950D01*
Y74220D01*
X184852D01*
Y74023D01*
X184753D01*
Y73237D01*
X184852D01*
Y73040D01*
X184950D01*
Y72942D01*
X185048D01*
Y72843D01*
X185245D01*
Y72745D01*
X185638D01*
Y72647D01*
X187802D01*
Y72745D01*
X188195D01*
Y72843D01*
X188392D01*
Y72942D01*
X188490D01*
Y73040D01*
X188588D01*
Y73237D01*
X188687D01*
Y74023D01*
X188588D01*
Y74122D01*
X188490D01*
Y74220D01*
X188392D01*
Y74318D01*
X188293D01*
Y74417D01*
X188097D01*
Y74515D01*
D02*
G37*
G36*
X187310Y60257D02*
X187212D01*
Y60158D01*
X186917D01*
Y60060D01*
X186523D01*
Y59962D01*
X186228D01*
Y59863D01*
X185933D01*
Y59765D01*
X185540D01*
Y59568D01*
X185933D01*
Y59470D01*
X186228D01*
Y59372D01*
X186523D01*
Y59273D01*
X186917D01*
Y59175D01*
X187212D01*
Y59077D01*
X187310D01*
Y60257D01*
D02*
G37*
G36*
X186327Y56225D02*
X184753D01*
Y55340D01*
X184852D01*
Y55143D01*
X184950D01*
Y55045D01*
X185048D01*
Y54947D01*
X185245D01*
Y54848D01*
X185835D01*
Y54947D01*
X186032D01*
Y55045D01*
X186130D01*
Y55143D01*
X186228D01*
Y55340D01*
X186327D01*
Y56225D01*
D02*
G37*
G36*
X188687D02*
X186917D01*
Y55143D01*
X187015D01*
Y54947D01*
X187113D01*
Y54848D01*
X187310D01*
Y54750D01*
X187703D01*
Y54652D01*
X187900D01*
Y54750D01*
X188293D01*
Y54848D01*
X188490D01*
Y55045D01*
X188588D01*
Y55242D01*
X188687D01*
Y56225D01*
D02*
G37*
G36*
X187605Y52390D02*
X185737D01*
Y52292D01*
X185245D01*
Y52193D01*
X185048D01*
Y52095D01*
X184950D01*
Y51997D01*
X184852D01*
Y51800D01*
X184753D01*
Y51013D01*
X184852D01*
Y50817D01*
X184950D01*
Y50718D01*
X185147D01*
Y50620D01*
X185343D01*
Y50522D01*
X188097D01*
Y50620D01*
X188293D01*
Y50718D01*
X188392D01*
Y50817D01*
X188490D01*
Y50915D01*
X188588D01*
Y51013D01*
X188687D01*
Y51800D01*
X188588D01*
Y51997D01*
X188490D01*
Y52095D01*
X188293D01*
Y52193D01*
X188097D01*
Y52292D01*
X187605D01*
Y52390D01*
D02*
G37*
G36*
X186425Y47965D02*
X184753D01*
Y46883D01*
X184852D01*
Y46687D01*
X184950D01*
Y46588D01*
X185048D01*
Y46490D01*
X185343D01*
Y46392D01*
X185933D01*
Y46490D01*
X186130D01*
Y46588D01*
X186228D01*
Y46687D01*
X186327D01*
Y46785D01*
X186425D01*
Y47965D01*
D02*
G37*
G36*
X187310Y43540D02*
X187015D01*
Y43442D01*
X186720D01*
Y43343D01*
X186425D01*
Y43245D01*
X186032D01*
Y43147D01*
X185737D01*
Y43048D01*
X185540D01*
Y42950D01*
X185737D01*
Y42852D01*
X186032D01*
Y42753D01*
X186425D01*
Y42655D01*
X186720D01*
Y42557D01*
X187015D01*
Y42458D01*
X187310D01*
Y43540D01*
D02*
G37*
G36*
X188097Y36558D02*
X185343D01*
Y36460D01*
X185147D01*
Y36362D01*
X184950D01*
Y36263D01*
X184852D01*
Y36067D01*
X184753D01*
Y35280D01*
X184852D01*
Y35083D01*
X184950D01*
Y34985D01*
X185147D01*
Y34887D01*
X185245D01*
Y34788D01*
X185737D01*
Y34690D01*
X187703D01*
Y34788D01*
X188097D01*
Y34887D01*
X188293D01*
Y34985D01*
X188490D01*
Y35083D01*
X188588D01*
Y35280D01*
X188687D01*
Y36067D01*
X188588D01*
Y36165D01*
X188490D01*
Y36362D01*
X188293D01*
Y36460D01*
X188097D01*
Y36558D01*
D02*
G37*
G36*
X186425Y32232D02*
X184753D01*
Y31150D01*
X184852D01*
Y30953D01*
X184950D01*
Y30855D01*
X185048D01*
Y30757D01*
X185245D01*
Y30658D01*
X186032D01*
Y30757D01*
X186228D01*
Y30855D01*
X186327D01*
Y31052D01*
X186425D01*
Y32232D01*
D02*
G37*
%LPD*%
D11*
X1500Y196500D02*
X211500D01*
X1500Y336500D02*
X211500D01*
Y196500D02*
Y336500D01*
X1500Y196500D02*
Y336500D01*
X66502Y174049D02*
Y179000D01*
X74500D01*
Y174049D01*
X70310Y179000D02*
Y175953D01*
X66502Y172716D02*
X74500D01*
Y168145D01*
X66502Y162318D02*
Y167269D01*
X74500D01*
Y162318D01*
X70310Y167269D02*
Y164222D01*
X68406Y155272D02*
X67644Y155653D01*
X66883Y156414D01*
X66502Y157176D01*
Y158700D01*
X66883Y159461D01*
X67644Y160223D01*
X68406Y160604D01*
X69549Y160985D01*
X71453D01*
X72596Y160604D01*
X73357Y160223D01*
X74119Y159461D01*
X74500Y158700D01*
Y157176D01*
X74119Y156414D01*
X73357Y155653D01*
X72596Y155272D01*
X66502Y150358D02*
X74500D01*
X66502Y153025D02*
Y147692D01*
Y146740D02*
X74500D01*
X66502D02*
Y143312D01*
X66883Y142170D01*
X67264Y141789D01*
X68025Y141408D01*
X68787D01*
X69549Y141789D01*
X69929Y142170D01*
X70310Y143312D01*
Y146740D01*
Y144074D02*
X74500Y141408D01*
X66502Y139618D02*
X74500D01*
X68406Y132229D02*
X67644Y132610D01*
X66883Y133372D01*
X66502Y134133D01*
Y135657D01*
X66883Y136419D01*
X67644Y137180D01*
X68406Y137561D01*
X69549Y137942D01*
X71453D01*
X72596Y137561D01*
X73357Y137180D01*
X74119Y136419D01*
X74500Y135657D01*
Y134133D01*
X74119Y133372D01*
X73357Y132610D01*
X72596Y132229D01*
X74500Y123888D02*
X66502Y126935D01*
X74500Y129982D01*
X71834Y128839D02*
Y125031D01*
X66502Y122022D02*
X74500D01*
Y117451D01*
X66502Y105340D02*
Y110291D01*
X74500D01*
Y105340D01*
X70310Y110291D02*
Y107244D01*
X66502Y104007D02*
X74500D01*
X66502D02*
X74500Y98674D01*
X66502D02*
X74500D01*
X68406Y90752D02*
X67644Y91133D01*
X66883Y91895D01*
X66502Y92657D01*
Y94180D01*
X66883Y94942D01*
X67644Y95704D01*
X68406Y96084D01*
X69549Y96465D01*
X71453D01*
X72596Y96084D01*
X73357Y95704D01*
X74119Y94942D01*
X74500Y94180D01*
Y92657D01*
X74119Y91895D01*
X73357Y91133D01*
X72596Y90752D01*
X71453D01*
Y92657D02*
Y90752D01*
X66502Y88924D02*
X74500D01*
X66502Y87248D02*
X74500D01*
X66502D02*
X74500Y81916D01*
X66502D02*
X74500D01*
X66502Y74756D02*
Y79707D01*
X74500D01*
Y74756D01*
X70310Y79707D02*
Y76660D01*
X66502Y68471D02*
Y73423D01*
X74500D01*
Y68471D01*
X70310Y73423D02*
Y70376D01*
X66502Y67138D02*
X74500D01*
X66502D02*
Y63710D01*
X66883Y62568D01*
X67264Y62187D01*
X68025Y61806D01*
X68787D01*
X69549Y62187D01*
X69929Y62568D01*
X70310Y63710D01*
Y67138D01*
Y64472D02*
X74500Y61806D01*
X0Y338000D02*
X213000D01*
Y500D02*
Y338000D01*
X500Y500D02*
X213000D01*
X0Y0D02*
X500Y500D01*
X0Y0D02*
Y338000D01*
D38*
X90502Y151287D02*
X97167D01*
X91930D02*
X90978Y152239D01*
X90502Y153191D01*
Y154620D01*
X90978Y155572D01*
X91930Y156524D01*
X93359Y157000D01*
X94311D01*
X95739Y156524D01*
X96691Y155572D01*
X97167Y154620D01*
Y153191D01*
X96691Y152239D01*
X95739Y151287D01*
X87169Y147669D02*
X87646Y147193D01*
X87169Y146716D01*
X86693Y147193D01*
X87169Y147669D01*
X90502Y147193D02*
X97167D01*
X87169Y139242D02*
X97167D01*
X91930D02*
X90978Y140194D01*
X90502Y141146D01*
Y142575D01*
X90978Y143527D01*
X91930Y144479D01*
X93359Y144955D01*
X94311D01*
X95739Y144479D01*
X96691Y143527D01*
X97167Y142575D01*
Y141146D01*
X96691Y140194D01*
X95739Y139242D01*
X90502Y130863D02*
X97167D01*
X91930D02*
X90978Y131815D01*
X90502Y132767D01*
Y134195D01*
X90978Y135148D01*
X91930Y136100D01*
X93359Y136576D01*
X94311D01*
X95739Y136100D01*
X96691Y135148D01*
X97167Y134195D01*
Y132767D01*
X96691Y131815D01*
X95739Y130863D01*
X90502Y128197D02*
X97167D01*
X92406D02*
X90978Y126768D01*
X90502Y125816D01*
Y124388D01*
X90978Y123436D01*
X92406Y122960D01*
X97167D01*
X87169Y119389D02*
Y114152D01*
X90978Y117009D01*
Y115580D01*
X91454Y114628D01*
X91930Y114152D01*
X93359Y113676D01*
X94311D01*
X95739Y114152D01*
X96691Y115104D01*
X97167Y116533D01*
Y117961D01*
X96691Y119389D01*
X96215Y119865D01*
X95263Y120341D01*
X89074Y111438D02*
X88598Y110486D01*
X87169Y109058D01*
X97167D01*
X87169Y99346D02*
X93835Y104107D01*
Y96965D01*
X87169Y99346D02*
X97167D01*
X89074Y95204D02*
X88598Y94252D01*
X87169Y92823D01*
X97167D01*
X90978Y80731D02*
X90026Y81207D01*
X89550Y82159D01*
Y83587D01*
X90026Y84539D01*
X90502Y85015D01*
X91930Y85492D01*
X93359D01*
X94311Y85015D01*
X94787Y84063D01*
Y82635D01*
X94311Y81683D01*
X93359Y81207D01*
X89550Y83587D02*
X90502Y84539D01*
X91930Y85015D01*
X93359D01*
X94311Y84539D01*
X94787Y84063D01*
X89550Y80731D02*
X93359Y81207D01*
X94311D01*
X94787Y80255D01*
Y79302D01*
X93835Y78350D01*
X92406Y77874D01*
X91454D01*
X90026Y78350D01*
X89074Y78826D01*
X88122Y79778D01*
X87646Y80731D01*
X87169Y82159D01*
Y83587D01*
X87646Y85015D01*
X88122Y85968D01*
X89074Y86920D01*
X90026Y87396D01*
X91454Y87872D01*
X92883D01*
X94311Y87396D01*
X95263Y86920D01*
X96215Y85968D01*
X96691Y85015D01*
X97167Y83587D01*
Y82159D01*
X96691Y80731D01*
X96215Y79778D01*
X95739Y79302D01*
X89550Y80255D02*
X93359Y80731D01*
X94311D01*
X94787Y80255D01*
X90502Y69590D02*
X98120D01*
X99548Y70066D01*
X100024Y70542D01*
X100500Y71495D01*
Y72923D01*
X100024Y73875D01*
X91930Y69590D02*
X90978Y70542D01*
X90502Y71495D01*
Y72923D01*
X90978Y73875D01*
X91930Y74827D01*
X93359Y75303D01*
X94311D01*
X95739Y74827D01*
X96691Y73875D01*
X97167Y72923D01*
Y71495D01*
X96691Y70542D01*
X95739Y69590D01*
X90502Y66924D02*
X97167D01*
X92406D02*
X90978Y65496D01*
X90502Y64544D01*
Y63115D01*
X90978Y62163D01*
X92406Y61687D01*
X97167D01*
X92406D02*
X90978Y60259D01*
X90502Y59307D01*
Y57878D01*
X90978Y56926D01*
X92406Y56450D01*
X97167D01*
X90502Y47595D02*
X97167D01*
X91930D02*
X90978Y48547D01*
X90502Y49499D01*
Y50928D01*
X90978Y51880D01*
X91930Y52832D01*
X93359Y53308D01*
X94311D01*
X95739Y52832D01*
X96691Y51880D01*
X97167Y50928D01*
Y49499D01*
X96691Y48547D01*
X95739Y47595D01*
X87169Y43977D02*
X87646Y43501D01*
X87169Y43024D01*
X86693Y43501D01*
X87169Y43977D01*
X90502Y43501D02*
X97167D01*
X87169Y41263D02*
X97167D01*
X96215Y38692D02*
X96691Y39168D01*
X97167Y38692D01*
X96691Y38216D01*
X96215Y38692D01*
X91930Y30313D02*
X90978Y31265D01*
X90502Y32217D01*
Y33645D01*
X90978Y34598D01*
X91930Y35550D01*
X93359Y36026D01*
X94311D01*
X95739Y35550D01*
X96691Y34598D01*
X97167Y33645D01*
Y32217D01*
X96691Y31265D01*
X95739Y30313D01*
X90502Y25790D02*
X90978Y26742D01*
X91930Y27694D01*
X93359Y28170D01*
X94311D01*
X95739Y27694D01*
X96691Y26742D01*
X97167Y25790D01*
Y24362D01*
X96691Y23410D01*
X95739Y22457D01*
X94311Y21981D01*
X93359D01*
X91930Y22457D01*
X90978Y23410D01*
X90502Y24362D01*
Y25790D01*
Y19791D02*
X97167D01*
X92406D02*
X90978Y18363D01*
X90502Y17411D01*
Y15983D01*
X90978Y15030D01*
X92406Y14554D01*
X97167D01*
X92406D02*
X90978Y13126D01*
X90502Y12174D01*
Y10746D01*
X90978Y9793D01*
X92406Y9317D01*
X97167D01*
X111957Y151334D02*
X113147Y152524D01*
X114932Y153715D01*
X117313Y154905D01*
X120288Y155500D01*
X122669D01*
X125644Y154905D01*
X128024Y153715D01*
X129810Y152524D01*
X131000Y151334D01*
X113147Y152524D02*
X115527Y153715D01*
X117313Y154310D01*
X120288Y154905D01*
X122669D01*
X125644Y154310D01*
X127429Y153715D01*
X129810Y152524D01*
X118503Y141217D02*
X120288Y141812D01*
X121478Y143003D01*
X122073Y144788D01*
Y145383D01*
X121478Y147168D01*
X120288Y148359D01*
X118503Y148954D01*
X117908D01*
X116122Y148359D01*
X114932Y147168D01*
X114337Y145383D01*
Y144788D01*
X114932Y143003D01*
X116122Y141812D01*
X118503Y141217D01*
X121478D01*
X124454Y141812D01*
X126239Y143003D01*
X126834Y144788D01*
Y145978D01*
X126239Y147764D01*
X125049Y148359D01*
X117313Y137230D02*
X116717D01*
X115527Y136635D01*
X114932Y136040D01*
X114337Y134850D01*
Y132469D01*
X114932Y131279D01*
X115527Y130684D01*
X116717Y130089D01*
X117908D01*
X119098Y130684D01*
X120883Y131874D01*
X126834Y137825D01*
Y129494D01*
X114337Y119555D02*
Y125506D01*
X119693Y126102D01*
X119098Y125506D01*
X118503Y123721D01*
Y121936D01*
X119098Y120150D01*
X120288Y118960D01*
X122073Y118365D01*
X123264D01*
X125049Y118960D01*
X126239Y120150D01*
X126834Y121936D01*
Y123721D01*
X126239Y125506D01*
X125644Y126102D01*
X124454Y126697D01*
X111957Y115568D02*
X113147Y114378D01*
X114932Y113188D01*
X117313Y111997D01*
X120288Y111402D01*
X122669D01*
X125644Y111997D01*
X128024Y113188D01*
X129810Y114378D01*
X131000Y115568D01*
X113147Y114378D02*
X115527Y113188D01*
X117313Y112592D01*
X120288Y111997D01*
X122669D01*
X125644Y112592D01*
X127429Y113188D01*
X129810Y114378D01*
X116122Y91407D02*
X114932Y92002D01*
X114337Y93787D01*
Y94977D01*
X114932Y96763D01*
X116717Y97953D01*
X119693Y98548D01*
X122669D01*
X125049Y97953D01*
X126239Y96763D01*
X126834Y94977D01*
Y94382D01*
X126239Y92597D01*
X125049Y91407D01*
X123264Y90812D01*
X122669D01*
X120883Y91407D01*
X119693Y92597D01*
X119098Y94382D01*
Y94977D01*
X119693Y96763D01*
X120883Y97953D01*
X122669Y98548D01*
X118503Y80338D02*
X120288Y80933D01*
X121478Y82123D01*
X122073Y83908D01*
Y84503D01*
X121478Y86289D01*
X120288Y87479D01*
X118503Y88074D01*
X117908D01*
X116122Y87479D01*
X114932Y86289D01*
X114337Y84503D01*
Y83908D01*
X114932Y82123D01*
X116122Y80933D01*
X118503Y80338D01*
X121478D01*
X124454Y80933D01*
X126239Y82123D01*
X126834Y83908D01*
Y85098D01*
X126239Y86884D01*
X125049Y87479D01*
X118503Y69209D02*
X120288Y69804D01*
X121478Y70994D01*
X122073Y72780D01*
Y73375D01*
X121478Y75160D01*
X120288Y76350D01*
X118503Y76945D01*
X117908D01*
X116122Y76350D01*
X114932Y75160D01*
X114337Y73375D01*
Y72780D01*
X114932Y70994D01*
X116122Y69804D01*
X118503Y69209D01*
X121478D01*
X124454Y69804D01*
X126239Y70994D01*
X126834Y72780D01*
Y73970D01*
X126239Y75755D01*
X125049Y76350D01*
X121478Y65817D02*
Y55105D01*
X118503Y43679D02*
X120288Y44274D01*
X121478Y45464D01*
X122073Y47249D01*
Y47844D01*
X121478Y49630D01*
X120288Y50820D01*
X118503Y51415D01*
X117908D01*
X116122Y50820D01*
X114932Y49630D01*
X114337Y47844D01*
Y47249D01*
X114932Y45464D01*
X116122Y44274D01*
X118503Y43679D01*
X121478D01*
X124454Y44274D01*
X126239Y45464D01*
X126834Y47249D01*
Y48440D01*
X126239Y50225D01*
X125049Y50820D01*
X118503Y32550D02*
X120288Y33145D01*
X121478Y34335D01*
X122073Y36121D01*
Y36716D01*
X121478Y38501D01*
X120288Y39691D01*
X118503Y40287D01*
X117908D01*
X116122Y39691D01*
X114932Y38501D01*
X114337Y36716D01*
Y36121D01*
X114932Y34335D01*
X116122Y33145D01*
X118503Y32550D01*
X121478D01*
X124454Y33145D01*
X126239Y34335D01*
X126834Y36121D01*
Y37311D01*
X126239Y39096D01*
X125049Y39691D01*
X114337Y20826D02*
X126834Y26778D01*
X114337Y29158D02*
Y20826D01*
X116122Y10888D02*
X114932Y11483D01*
X114337Y13269D01*
Y14459D01*
X114932Y16244D01*
X116717Y17434D01*
X119693Y18029D01*
X122669D01*
X125049Y17434D01*
X126239Y16244D01*
X126834Y14459D01*
Y13864D01*
X126239Y12078D01*
X125049Y10888D01*
X123264Y10293D01*
X122669D01*
X120883Y10888D01*
X119693Y12078D01*
X119098Y13864D01*
Y14459D01*
X119693Y16244D01*
X120883Y17434D01*
X122669Y18029D01*
X53500Y169478D02*
X41003Y174239D01*
X53500Y179000D01*
X49334Y177215D02*
Y171264D01*
X41003Y166562D02*
X53500D01*
X41003Y163944D02*
X53500D01*
X41003D02*
Y159778D01*
X41598Y157993D01*
X42788Y156802D01*
X43978Y156207D01*
X45764Y155612D01*
X48739D01*
X50524Y156207D01*
X51715Y156802D01*
X52905Y157993D01*
X53500Y159778D01*
Y163944D01*
Y143293D02*
X41003Y148054D01*
X53500Y152815D01*
X49334Y151030D02*
Y145079D01*
X41003Y140377D02*
X53500D01*
X41003D02*
X53500Y132046D01*
X41003D02*
X53500D01*
X41003Y118775D02*
X53500D01*
X41003D02*
Y114609D01*
X41598Y112824D01*
X42788Y111634D01*
X43978Y111038D01*
X45764Y110443D01*
X48739D01*
X50524Y111038D01*
X51715Y111634D01*
X52905Y112824D01*
X53500Y114609D01*
Y118775D01*
X41003Y104076D02*
X41598Y105266D01*
X42788Y106456D01*
X43978Y107051D01*
X45764Y107646D01*
X48739D01*
X50524Y107051D01*
X51715Y106456D01*
X52905Y105266D01*
X53500Y104076D01*
Y101695D01*
X52905Y100505D01*
X51715Y99315D01*
X50524Y98720D01*
X48739Y98124D01*
X45764D01*
X43978Y98720D01*
X42788Y99315D01*
X41598Y100505D01*
X41003Y101695D01*
Y104076D01*
Y95208D02*
X49929D01*
X51715Y94613D01*
X52905Y93423D01*
X53500Y91638D01*
Y90448D01*
X52905Y88662D01*
X51715Y87472D01*
X49929Y86877D01*
X41003D01*
X43978Y74499D02*
X42788Y75094D01*
X41598Y76284D01*
X41003Y77474D01*
Y79855D01*
X41598Y81045D01*
X42788Y82235D01*
X43978Y82830D01*
X45764Y83425D01*
X48739D01*
X50524Y82830D01*
X51715Y82235D01*
X52905Y81045D01*
X53500Y79855D01*
Y77474D01*
X52905Y76284D01*
X51715Y75094D01*
X50524Y74499D01*
X48739D01*
Y77474D02*
Y74499D01*
X41003Y71642D02*
X53500D01*
X41003Y63310D02*
X53500D01*
X46954Y71642D02*
Y63310D01*
X41003Y52122D02*
X41003Y59859D01*
X53500D01*
X53500Y52122D01*
X46954Y59859D02*
X46954Y55098D01*
X41003Y50039D02*
X53500D01*
X41003D02*
Y44684D01*
X41598Y42898D01*
X42193Y42303D01*
X43383Y41708D01*
X44573D01*
X45763Y42303D01*
X46359Y42898D01*
X46954Y44684D01*
Y50039D01*
Y45874D02*
X53500Y41708D01*
X41003Y34745D02*
X53500D01*
X41003Y38911D02*
Y30579D01*
Y29092D02*
X46954Y24331D01*
X53500D01*
X41003Y19570D02*
X46954Y24331D01*
M02*
